{"glyphs":{"0":{"ha":663,"x_min":44,"x_max":618,"o":"m 333 -18 q 184 19 250 -18 q 81 123 118 57 q 44 272 44 189 q 82 418 44 354 q 185 518 119 482 q 335 554 251 554 q 481 517 417 554 q 582 415 546 481 q 618 268 618 350 q 582 121 618 186 q 481 19 546 56 q 333 -18 415 -18 m 349 4 q 465 70 425 4 q 504 250 504 136 q 452 461 504 390 q 321 532 400 532 q 200 464 243 532 q 157 285 157 396 q 210 83 157 161 q 349 4 263 4 z "},"1":{"ha":461,"x_min":56,"x_max":433,"o":"m 69 0 q 67 8 67 0 q 69 17 67 17 q 155 24 128 17 q 192 51 182 31 q 203 113 203 71 l 203 367 q 195 438 203 418 q 164 458 188 458 q 67 426 138 458 l 65 425 q 58 432 61 425 q 61 442 56 439 l 285 549 q 289 550 286 550 q 296 547 293 550 q 299 539 299 543 l 299 113 q 308 50 299 69 q 344 24 317 31 q 429 17 371 17 q 433 8 433 17 q 429 0 433 0 q 356 1 382 0 l 250 3 l 146 1 q 69 0 118 0 z "},"2":{"ha":558,"x_min":46,"x_max":521,"o":"m 51 26 q 235 190 172 128 q 326 299 299 251 q 354 393 354 346 q 322 483 354 447 q 239 519 290 519 q 147 475 185 519 q 82 343 108 431 q 76 342 82 342 q 65 347 64 342 l 122 567 q 128 569 122 569 q 135 567 132 569 q 138 564 139 565 q 136 549 136 558 q 157 526 136 526 q 199 536 169 526 q 303 554 258 554 q 417 517 375 554 q 458 418 458 479 q 424 315 458 365 q 335 219 389 265 q 175 92 282 174 q 172 85 169 88 q 181 82 174 82 q 379 86 321 82 q 466 107 438 90 q 504 165 494 124 q 513 169 506 169 q 521 165 521 168 l 497 15 q 494 5 497 10 q 485 0 490 0 l 61 0 q 50 10 54 0 q 51 26 46 21 z "},"3":{"ha":543,"x_min":42,"x_max":490,"o":"m 301 182 q 442 115 394 169 q 490 -14 490 60 q 445 -151 490 -82 q 308 -282 400 -221 q 79 -382 215 -343 q 70 -376 74 -383 q 72 -367 67 -368 q 304 -219 233 -312 q 375 -31 375 -125 q 335 98 375 47 q 219 149 296 149 q 154 140 182 149 q 147 147 150 139 q 150 157 144 156 q 299 234 254 183 q 344 372 344 285 q 317 481 344 442 q 236 521 290 521 q 60 358 113 521 q 54 357 60 357 q 43 363 42 357 l 94 565 q 100 568 97 568 q 108 566 104 568 q 111 563 113 564 q 108 547 108 551 q 132 524 108 524 q 176 535 147 524 q 231 549 208 544 q 282 554 254 554 q 405 508 360 554 q 450 396 450 461 q 410 270 450 329 q 301 182 369 211 z "},"4":{"ha":629,"x_min":28,"x_max":583,"o":"m 578 63 q 583 38 583 63 q 581 13 583 25 q 576 1 579 1 q 467 7 536 4 l 467 -204 q 456 -224 467 -219 l 382 -261 q 374 -264 374 -264 q 369 -253 369 -264 l 369 10 q 43 11 283 11 q 32 17 36 11 q 33 28 28 22 l 446 550 q 454 553 449 553 q 463 551 458 553 q 467 544 467 549 l 467 60 q 578 63 497 60 m 115 54 q 369 57 228 54 l 369 389 l 108 64 q 106 57 104 60 q 115 54 108 54 z "},"5":{"ha":568,"x_min":79,"x_max":496,"o":"m 165 436 q 144 415 147 436 l 118 272 q 401 201 311 271 q 492 13 492 132 q 451 -131 492 -67 q 324 -256 411 -196 q 94 -382 238 -317 l 93 -382 q 84 -376 88 -382 q 86 -367 81 -369 q 317 -196 250 -282 q 383 -11 383 -110 q 308 168 383 104 q 94 232 233 232 q 83 237 88 232 q 81 249 79 242 l 125 496 q 129 508 126 506 q 143 511 132 510 q 378 540 318 532 q 455 558 438 549 q 479 588 472 567 q 488 591 481 592 q 494 585 496 590 l 467 467 q 453 446 461 450 q 428 442 446 442 l 165 436 z "},"6":{"ha":646,"x_min":61,"x_max":601,"o":"m 419 396 q 556 344 511 396 q 601 221 601 293 q 563 101 601 156 q 460 14 525 46 q 319 -18 396 -18 q 131 63 200 -18 q 61 289 61 143 q 121 543 61 418 q 292 767 181 668 q 556 918 404 865 q 564 913 561 919 q 563 903 567 906 q 346 747 435 843 q 212 537 257 650 q 167 311 167 424 q 219 97 167 183 q 358 11 271 11 q 458 57 421 11 q 496 183 496 103 q 463 304 496 258 q 364 350 429 350 q 302 337 331 350 q 238 293 274 324 q 233 292 236 292 q 226 296 229 292 q 224 303 222 300 q 419 396 301 396 z "},"7":{"ha":596,"x_min":26,"x_max":546,"o":"m 232 -300 q 203 -333 224 -324 l 119 -382 l 118 -382 q 112 -378 115 -382 q 110 -372 108 -375 l 476 440 q 471 450 482 450 q 189 444 268 450 q 84 421 110 439 q 44 356 58 403 q 38 353 42 353 q 30 355 33 353 q 28 360 26 357 l 81 574 q 90 576 82 576 q 97 572 99 575 q 96 558 96 567 q 109 540 96 544 q 163 536 122 536 l 531 536 q 541 530 536 536 q 543 518 546 524 l 232 -300 z "},"8":{"ha":679,"x_min":61,"x_max":633,"o":"m 419 479 q 531 408 489 439 q 603 331 574 376 q 633 225 633 286 q 593 101 633 157 q 485 14 553 46 q 336 -18 417 -18 q 192 13 254 -18 q 95 97 129 44 q 61 210 61 149 q 113 358 61 289 q 247 469 165 428 q 168 540 196 503 q 140 628 140 578 q 174 722 140 683 q 258 778 207 760 q 360 797 308 797 q 460 776 417 797 q 528 721 504 754 q 551 651 551 688 q 517 561 551 607 q 419 479 482 515 m 335 772 q 260 746 289 772 q 232 674 232 719 q 275 576 232 617 q 403 489 318 536 q 445 558 431 524 q 460 629 460 592 q 424 733 460 693 q 335 772 389 772 m 374 8 q 492 56 446 8 q 539 178 539 104 q 510 281 539 238 q 440 353 481 325 q 325 422 399 381 l 268 456 q 194 364 221 418 q 168 246 168 310 q 194 129 168 183 q 268 42 221 75 q 374 8 315 8 z "},"9":{"ha":646,"x_min":44,"x_max":585,"o":"m 240 149 q 129 177 174 149 q 65 249 85 206 q 44 339 44 293 q 78 450 44 401 q 169 526 111 499 q 300 554 228 554 q 508 467 432 554 q 585 233 585 379 q 526 -17 585 107 q 354 -239 467 -142 q 90 -382 242 -336 q 83 -376 86 -383 q 85 -367 79 -369 q 300 -219 211 -314 q 434 -12 389 -124 q 479 207 479 100 q 459 354 479 281 q 394 478 439 428 q 279 528 349 528 q 183 485 217 528 q 150 368 150 443 q 186 242 150 290 q 290 193 222 193 q 349 204 324 193 q 408 242 375 215 q 413 243 410 243 q 421 239 417 243 q 424 232 425 235 q 343 170 390 192 q 240 149 296 149 z "}," ":{"ha":325,"x_min":0,"x_max":0,"o":""},"A":{"ha":981,"x_min":-7,"x_max":985,"o":"m 979 17 q 985 8 985 17 q 979 0 985 0 q 894 3 953 0 q 813 6 839 6 q 733 3 781 6 q 663 0 686 0 q 657 8 657 0 q 663 17 657 17 q 731 26 710 17 q 751 58 751 35 q 731 124 751 82 l 575 446 l 319 446 l 206 183 q 186 107 186 138 q 321 17 186 17 q 328 8 328 17 q 321 0 328 0 q 249 3 296 0 q 157 6 196 6 q 71 3 121 6 q -1 0 26 0 q -7 8 -7 0 q -1 17 -7 17 q 65 32 38 17 q 117 85 92 47 q 174 196 142 122 l 469 878 q 479 883 471 882 q 489 878 488 883 l 824 190 q 904 53 871 89 q 979 17 938 17 m 332 478 l 560 478 l 440 728 l 332 478 z "},"Á":{"ha":981,"x_min":-7,"x_max":985,"o":"m 979 17 q 985 8 985 17 q 979 0 985 0 q 894 3 953 0 q 813 6 839 6 q 733 3 781 6 q 663 0 686 0 q 657 8 657 0 q 663 17 657 17 q 731 26 710 17 q 751 58 751 35 q 731 124 751 82 l 575 446 l 319 446 l 206 183 q 186 107 186 138 q 321 17 186 17 q 328 8 328 17 q 321 0 328 0 q 249 3 296 0 q 157 6 196 6 q 71 3 121 6 q -1 0 26 0 q -7 8 -7 0 q -1 17 -7 17 q 65 32 38 17 q 117 85 92 47 q 174 196 142 122 l 469 878 q 479 883 471 882 q 489 878 488 883 l 824 190 q 904 53 871 89 q 979 17 938 17 m 332 478 l 560 478 l 440 728 l 332 478 m 342 942 q 335 948 336 942 q 338 957 333 954 q 481 1049 388 985 q 547 1093 525 1079 q 585 1088 554 1097 q 641 1065 617 1078 q 653 1050 665 1053 q 495 1003 567 1029 q 344 943 424 978 l 342 942 z "},"Ă":{"ha":981,"x_min":-7,"x_max":985,"o":"m 979 17 q 985 8 985 17 q 979 0 985 0 q 894 3 953 0 q 813 6 839 6 q 733 3 781 6 q 663 0 686 0 q 657 8 657 0 q 663 17 657 17 q 731 26 710 17 q 751 58 751 35 q 731 124 751 82 l 575 446 l 319 446 l 206 183 q 186 107 186 138 q 321 17 186 17 q 328 8 328 17 q 321 0 328 0 q 249 3 296 0 q 157 6 196 6 q 71 3 121 6 q -1 0 26 0 q -7 8 -7 0 q -1 17 -7 17 q 65 32 38 17 q 117 85 92 47 q 174 196 142 122 l 469 878 q 479 883 471 882 q 489 878 488 883 l 824 190 q 904 53 871 89 q 979 17 938 17 m 332 478 l 560 478 l 440 728 l 332 478 m 479 958 q 380 999 417 958 q 336 1115 343 1040 q 342 1122 335 1121 q 351 1119 350 1122 q 395 1059 358 1085 q 479 1033 432 1033 q 562 1059 525 1033 q 606 1119 599 1085 q 611 1122 606 1122 q 619 1120 615 1122 q 621 1115 622 1118 q 578 999 614 1040 q 479 958 542 958 z "},"Ắ":{"ha":981,"x_min":-7,"x_max":985,"o":"m 979 17 q 985 8 985 17 q 979 0 985 0 q 894 3 953 0 q 813 6 839 6 q 733 3 781 6 q 663 0 686 0 q 657 8 657 0 q 663 17 657 17 q 731 26 710 17 q 751 58 751 35 q 731 124 751 82 l 575 446 l 319 446 l 206 183 q 186 107 186 138 q 321 17 186 17 q 328 8 328 17 q 321 0 328 0 q 249 3 296 0 q 157 6 196 6 q 71 3 121 6 q -1 0 26 0 q -7 8 -7 0 q -1 17 -7 17 q 65 32 38 17 q 117 85 92 47 q 174 196 142 122 l 469 878 q 479 883 471 882 q 489 878 488 883 l 824 190 q 904 53 871 89 q 979 17 938 17 m 332 478 l 560 478 l 440 728 l 332 478 m 479 917 q 380 957 417 917 q 336 1074 343 997 q 342 1080 335 1079 q 351 1076 350 1081 q 395 1017 358 1043 q 479 992 432 992 q 562 1017 525 992 q 606 1076 599 1043 q 615 1080 607 1081 q 621 1074 622 1079 q 578 957 614 997 q 479 917 542 917 m 397 1054 q 391 1060 393 1054 q 392 1068 389 1065 q 489 1206 449 1140 q 525 1203 493 1213 q 583 1180 557 1193 q 596 1163 608 1167 q 497 1117 540 1142 q 401 1056 453 1092 l 397 1054 z "},"Ặ":{"ha":981,"x_min":-7,"x_max":985,"o":"m 979 17 q 985 8 985 17 q 979 0 985 0 q 894 3 953 0 q 813 6 839 6 q 733 3 781 6 q 663 0 686 0 q 657 8 657 0 q 663 17 657 17 q 731 26 710 17 q 751 58 751 35 q 731 124 751 82 l 575 446 l 319 446 l 206 183 q 186 107 186 138 q 321 17 186 17 q 328 8 328 17 q 321 0 328 0 q 249 3 296 0 q 157 6 196 6 q 71 3 121 6 q -1 0 26 0 q -7 8 -7 0 q -1 17 -7 17 q 65 32 38 17 q 117 85 92 47 q 174 196 142 122 l 469 878 q 479 883 471 882 q 489 878 488 883 l 824 190 q 904 53 871 89 q 979 17 938 17 m 332 478 l 560 478 l 440 728 l 332 478 m 493 -272 q 442 -254 461 -272 q 424 -204 424 -236 q 442 -156 424 -174 q 493 -139 461 -139 q 541 -156 524 -139 q 558 -204 558 -174 q 541 -254 558 -236 q 493 -272 524 -272 m 479 958 q 380 999 417 958 q 336 1115 343 1040 q 342 1122 335 1121 q 351 1119 350 1122 q 395 1059 358 1085 q 479 1033 432 1033 q 562 1059 525 1033 q 606 1119 599 1085 q 611 1122 606 1122 q 619 1120 615 1122 q 621 1115 622 1118 q 578 999 614 1040 q 479 958 542 958 z "},"Ằ":{"ha":981,"x_min":-7,"x_max":985,"o":"m 979 17 q 985 8 985 17 q 979 0 985 0 q 894 3 953 0 q 813 6 839 6 q 733 3 781 6 q 663 0 686 0 q 657 8 657 0 q 663 17 657 17 q 731 26 710 17 q 751 58 751 35 q 731 124 751 82 l 575 446 l 319 446 l 206 183 q 186 107 186 138 q 321 17 186 17 q 328 8 328 17 q 321 0 328 0 q 249 3 296 0 q 157 6 196 6 q 71 3 121 6 q -1 0 26 0 q -7 8 -7 0 q -1 17 -7 17 q 65 32 38 17 q 117 85 92 47 q 174 196 142 122 l 469 878 q 479 883 471 882 q 489 878 488 883 l 824 190 q 904 53 871 89 q 979 17 938 17 m 332 478 l 560 478 l 440 728 l 332 478 m 479 917 q 380 957 417 917 q 336 1074 343 997 q 342 1080 335 1079 q 351 1076 350 1081 q 395 1017 358 1043 q 479 992 432 992 q 562 1017 525 992 q 606 1076 599 1043 q 615 1080 607 1081 q 621 1074 622 1079 q 578 957 614 997 q 479 917 542 917 m 550 1056 q 453 1117 494 1093 q 358 1163 411 1142 q 371 1180 346 1167 q 428 1203 396 1193 q 464 1206 460 1213 q 560 1068 513 1129 q 561 1063 561 1067 q 558 1056 561 1058 q 550 1056 554 1054 z "},"Ẳ":{"ha":981,"x_min":-7,"x_max":985,"o":"m 979 17 q 985 8 985 17 q 979 0 985 0 q 894 3 953 0 q 813 6 839 6 q 733 3 781 6 q 663 0 686 0 q 657 8 657 0 q 663 17 657 17 q 731 26 710 17 q 751 58 751 35 q 731 124 751 82 l 575 446 l 319 446 l 206 183 q 186 107 186 138 q 321 17 186 17 q 328 8 328 17 q 321 0 328 0 q 249 3 296 0 q 157 6 196 6 q 71 3 121 6 q -1 0 26 0 q -7 8 -7 0 q -1 17 -7 17 q 65 32 38 17 q 117 85 92 47 q 174 196 142 122 l 469 878 q 479 883 471 882 q 489 878 488 883 l 824 190 q 904 53 871 89 q 979 17 938 17 m 332 478 l 560 478 l 440 728 l 332 478 m 479 917 q 380 957 417 917 q 336 1074 343 997 q 342 1080 335 1079 q 351 1076 350 1081 q 395 1017 358 1043 q 479 992 432 992 q 562 1017 525 992 q 606 1076 599 1043 q 615 1080 607 1081 q 621 1074 622 1079 q 578 957 614 997 q 479 917 542 917 m 461 1038 q 458 1056 458 1051 q 476 1107 458 1076 q 486 1126 478 1110 q 494 1160 494 1143 q 481 1192 494 1181 q 449 1203 467 1203 q 418 1196 432 1203 l 417 1196 q 408 1201 413 1196 q 408 1207 404 1206 q 452 1226 429 1219 q 492 1233 475 1233 q 543 1215 524 1233 q 563 1174 563 1197 q 550 1138 563 1154 q 515 1101 538 1122 q 483 1067 493 1081 q 476 1038 474 1053 q 470 1034 478 1035 q 461 1038 463 1033 z "},"Ẵ":{"ha":981,"x_min":-7,"x_max":985,"o":"m 979 17 q 985 8 985 17 q 979 0 985 0 q 894 3 953 0 q 813 6 839 6 q 733 3 781 6 q 663 0 686 0 q 657 8 657 0 q 663 17 657 17 q 731 26 710 17 q 751 58 751 35 q 731 124 751 82 l 575 446 l 319 446 l 206 183 q 186 107 186 138 q 321 17 186 17 q 328 8 328 17 q 321 0 328 0 q 249 3 296 0 q 157 6 196 6 q 71 3 121 6 q -1 0 26 0 q -7 8 -7 0 q -1 17 -7 17 q 65 32 38 17 q 117 85 92 47 q 174 196 142 122 l 469 878 q 479 883 471 882 q 489 878 488 883 l 824 190 q 904 53 871 89 q 979 17 938 17 m 332 478 l 560 478 l 440 728 l 332 478 m 482 931 q 383 972 419 931 q 339 1088 346 1013 q 345 1094 338 1093 q 354 1092 353 1094 q 398 1031 361 1057 q 482 1006 435 1006 q 565 1031 528 1006 q 608 1092 601 1057 q 614 1094 608 1094 q 622 1092 618 1094 q 624 1088 625 1090 q 581 972 617 1013 q 482 931 544 931 m 586 1178 q 624 1187 610 1178 q 656 1215 639 1196 l 657 1215 q 665 1212 661 1215 q 665 1206 668 1208 q 606 1131 629 1150 q 554 1111 582 1111 q 471 1128 526 1111 q 435 1138 465 1129 q 375 1146 406 1146 q 340 1139 353 1146 q 319 1122 328 1132 q 306 1108 310 1113 l 303 1108 q 296 1112 299 1108 q 296 1118 293 1115 q 414 1211 358 1211 q 483 1197 433 1211 q 586 1178 547 1178 z "},"Ǎ":{"ha":981,"x_min":-7,"x_max":985,"o":"m 979 17 q 985 8 985 17 q 979 0 985 0 q 894 3 953 0 q 813 6 839 6 q 733 3 781 6 q 663 0 686 0 q 657 8 657 0 q 663 17 657 17 q 731 26 710 17 q 751 58 751 35 q 731 124 751 82 l 575 446 l 319 446 l 206 183 q 186 107 186 138 q 321 17 186 17 q 328 8 328 17 q 321 0 328 0 q 249 3 296 0 q 157 6 196 6 q 71 3 121 6 q -1 0 26 0 q -7 8 -7 0 q -1 17 -7 17 q 65 32 38 17 q 117 85 92 47 q 174 196 142 122 l 469 878 q 479 883 471 882 q 489 878 488 883 l 824 190 q 904 53 871 89 q 979 17 938 17 m 332 478 l 560 478 l 440 728 l 332 478 m 319 1097 q 318 1098 318 1097 q 318 1099 318 1099 q 322 1105 318 1101 q 328 1107 325 1108 l 479 1035 l 629 1107 l 631 1107 q 637 1103 635 1107 q 636 1097 639 1100 l 494 954 q 479 949 489 949 q 463 954 468 949 l 319 1097 z "},"Â":{"ha":981,"x_min":-7,"x_max":985,"o":"m 979 17 q 985 8 985 17 q 979 0 985 0 q 894 3 953 0 q 813 6 839 6 q 733 3 781 6 q 663 0 686 0 q 657 8 657 0 q 663 17 657 17 q 731 26 710 17 q 751 58 751 35 q 731 124 751 82 l 575 446 l 319 446 l 206 183 q 186 107 186 138 q 321 17 186 17 q 328 8 328 17 q 321 0 328 0 q 249 3 296 0 q 157 6 196 6 q 71 3 121 6 q -1 0 26 0 q -7 8 -7 0 q -1 17 -7 17 q 65 32 38 17 q 117 85 92 47 q 174 196 142 122 l 469 878 q 479 883 471 882 q 489 878 488 883 l 824 190 q 904 53 871 89 q 979 17 938 17 m 332 478 l 560 478 l 440 728 l 332 478 m 463 1053 q 478 1060 469 1060 q 494 1053 488 1060 l 636 910 q 638 907 638 910 q 634 901 638 904 q 629 900 631 899 l 479 971 l 328 900 q 321 903 325 899 q 319 910 317 908 l 463 1053 z "},"Ấ":{"ha":981,"x_min":-7,"x_max":985,"o":"m 979 17 q 985 8 985 17 q 979 0 985 0 q 894 3 953 0 q 813 6 839 6 q 733 3 781 6 q 663 0 686 0 q 657 8 657 0 q 663 17 657 17 q 731 26 710 17 q 751 58 751 35 q 731 124 751 82 l 575 446 l 319 446 l 206 183 q 186 107 186 138 q 321 17 186 17 q 328 8 328 17 q 321 0 328 0 q 249 3 296 0 q 157 6 196 6 q 71 3 121 6 q -1 0 26 0 q -7 8 -7 0 q -1 17 -7 17 q 65 32 38 17 q 117 85 92 47 q 174 196 142 122 l 469 878 q 479 883 471 882 q 489 878 488 883 l 824 190 q 904 53 871 89 q 979 17 938 17 m 332 478 l 560 478 l 440 728 l 332 478 m 463 1053 q 478 1060 469 1060 q 494 1053 488 1060 l 636 910 q 638 907 638 910 q 634 901 638 904 q 629 900 631 899 l 479 971 l 328 900 q 321 903 325 899 q 319 910 317 908 l 463 1053 m 565 1015 q 559 1021 561 1015 q 560 1029 557 1026 q 657 1167 617 1101 q 693 1164 661 1174 q 751 1141 725 1154 q 764 1124 776 1128 q 665 1078 708 1103 q 569 1017 621 1053 l 565 1015 z "},"Ậ":{"ha":981,"x_min":-7,"x_max":985,"o":"m 979 17 q 985 8 985 17 q 979 0 985 0 q 894 3 953 0 q 813 6 839 6 q 733 3 781 6 q 663 0 686 0 q 657 8 657 0 q 663 17 657 17 q 731 26 710 17 q 751 58 751 35 q 731 124 751 82 l 575 446 l 319 446 l 206 183 q 186 107 186 138 q 321 17 186 17 q 328 8 328 17 q 321 0 328 0 q 249 3 296 0 q 157 6 196 6 q 71 3 121 6 q -1 0 26 0 q -7 8 -7 0 q -1 17 -7 17 q 65 32 38 17 q 117 85 92 47 q 174 196 142 122 l 469 878 q 479 883 471 882 q 489 878 488 883 l 824 190 q 904 53 871 89 q 979 17 938 17 m 332 478 l 560 478 l 440 728 l 332 478 m 493 -272 q 442 -254 461 -272 q 424 -204 424 -236 q 442 -156 424 -174 q 493 -139 461 -139 q 541 -156 524 -139 q 558 -204 558 -174 q 541 -254 558 -236 q 493 -272 524 -272 m 463 1053 q 478 1060 469 1060 q 494 1053 488 1060 l 636 910 q 638 907 638 910 q 634 901 638 904 q 629 900 631 899 l 479 971 l 328 900 q 321 903 325 899 q 319 910 317 908 l 463 1053 z "},"Ầ":{"ha":981,"x_min":-7,"x_max":985,"o":"m 979 17 q 985 8 985 17 q 979 0 985 0 q 894 3 953 0 q 813 6 839 6 q 733 3 781 6 q 663 0 686 0 q 657 8 657 0 q 663 17 657 17 q 731 26 710 17 q 751 58 751 35 q 731 124 751 82 l 575 446 l 319 446 l 206 183 q 186 107 186 138 q 321 17 186 17 q 328 8 328 17 q 321 0 328 0 q 249 3 296 0 q 157 6 196 6 q 71 3 121 6 q -1 0 26 0 q -7 8 -7 0 q -1 17 -7 17 q 65 32 38 17 q 117 85 92 47 q 174 196 142 122 l 469 878 q 479 883 471 882 q 489 878 488 883 l 824 190 q 904 53 871 89 q 979 17 938 17 m 332 478 l 560 478 l 440 728 l 332 478 m 463 1053 q 478 1060 469 1060 q 494 1053 488 1060 l 636 910 q 638 907 638 910 q 634 901 638 904 q 629 900 631 899 l 479 971 l 328 900 q 321 903 325 899 q 319 910 317 908 l 463 1053 m 706 986 q 608 1048 650 1024 q 514 1093 567 1072 q 526 1110 501 1097 q 583 1133 551 1124 q 619 1136 615 1143 q 715 999 668 1060 q 717 993 717 997 q 713 987 717 989 q 706 986 710 985 z "},"Ẩ":{"ha":981,"x_min":-7,"x_max":985,"o":"m 979 17 q 985 8 985 17 q 979 0 985 0 q 894 3 953 0 q 813 6 839 6 q 733 3 781 6 q 663 0 686 0 q 657 8 657 0 q 663 17 657 17 q 731 26 710 17 q 751 58 751 35 q 731 124 751 82 l 575 446 l 319 446 l 206 183 q 186 107 186 138 q 321 17 186 17 q 328 8 328 17 q 321 0 328 0 q 249 3 296 0 q 157 6 196 6 q 71 3 121 6 q -1 0 26 0 q -7 8 -7 0 q -1 17 -7 17 q 65 32 38 17 q 117 85 92 47 q 174 196 142 122 l 469 878 q 479 883 471 882 q 489 878 488 883 l 824 190 q 904 53 871 89 q 979 17 938 17 m 332 478 l 560 478 l 440 728 l 332 478 m 463 1053 q 478 1060 469 1060 q 494 1053 488 1060 l 636 910 q 638 907 638 910 q 634 901 638 904 q 629 900 631 899 l 479 971 l 328 900 q 321 903 325 899 q 319 910 317 908 l 463 1053 m 594 1008 q 592 1026 592 1022 q 610 1078 592 1047 q 619 1097 611 1081 q 628 1131 628 1114 q 614 1163 628 1151 q 582 1174 600 1174 q 551 1167 565 1174 l 550 1167 q 542 1172 546 1167 q 542 1178 538 1176 q 585 1197 563 1190 q 625 1204 608 1204 q 676 1186 657 1204 q 696 1144 696 1168 q 683 1109 696 1125 q 649 1072 671 1093 q 617 1038 626 1051 q 610 1008 607 1024 q 603 1005 611 1006 q 594 1008 596 1004 z "},"Ẫ":{"ha":981,"x_min":-7,"x_max":985,"o":"m 979 17 q 985 8 985 17 q 979 0 985 0 q 894 3 953 0 q 813 6 839 6 q 733 3 781 6 q 663 0 686 0 q 657 8 657 0 q 663 17 657 17 q 731 26 710 17 q 751 58 751 35 q 731 124 751 82 l 575 446 l 319 446 l 206 183 q 186 107 186 138 q 321 17 186 17 q 328 8 328 17 q 321 0 328 0 q 249 3 296 0 q 157 6 196 6 q 71 3 121 6 q -1 0 26 0 q -7 8 -7 0 q -1 17 -7 17 q 65 32 38 17 q 117 85 92 47 q 174 196 142 122 l 469 878 q 479 883 471 882 q 489 878 488 883 l 824 190 q 904 53 871 89 q 979 17 938 17 m 332 478 l 560 478 l 440 728 l 332 478 m 463 1053 q 478 1060 469 1060 q 494 1053 488 1060 l 636 910 q 638 907 638 910 q 634 901 638 904 q 629 900 631 899 l 479 971 l 328 900 q 321 903 325 899 q 319 910 317 908 l 463 1053 m 593 1144 q 631 1153 617 1144 q 663 1182 646 1163 l 664 1182 q 672 1178 668 1182 q 672 1172 675 1175 q 613 1097 636 1117 q 561 1078 589 1078 q 478 1094 533 1078 q 442 1104 472 1096 q 382 1113 413 1113 q 347 1106 360 1113 q 326 1089 335 1099 q 313 1075 317 1079 l 310 1075 q 303 1078 306 1075 q 303 1085 300 1082 q 421 1178 365 1178 q 490 1164 440 1178 q 593 1144 554 1144 z "},"Ä":{"ha":981,"x_min":-7,"x_max":985,"o":"m 979 17 q 985 8 985 17 q 979 0 985 0 q 894 3 953 0 q 813 6 839 6 q 733 3 781 6 q 663 0 686 0 q 657 8 657 0 q 663 17 657 17 q 731 26 710 17 q 751 58 751 35 q 731 124 751 82 l 575 446 l 319 446 l 206 183 q 186 107 186 138 q 321 17 186 17 q 328 8 328 17 q 321 0 328 0 q 249 3 296 0 q 157 6 196 6 q 71 3 121 6 q -1 0 26 0 q -7 8 -7 0 q -1 17 -7 17 q 65 32 38 17 q 117 85 92 47 q 174 196 142 122 l 469 878 q 479 883 471 882 q 489 878 488 883 l 824 190 q 904 53 871 89 q 979 17 938 17 m 332 478 l 560 478 l 440 728 l 332 478 m 358 989 q 311 1006 328 989 q 294 1053 294 1022 q 311 1098 294 1082 q 358 1114 328 1114 q 405 1098 389 1114 q 421 1053 421 1082 q 405 1006 421 1022 q 358 989 389 989 m 601 989 q 554 1006 571 989 q 538 1053 538 1022 q 554 1098 538 1082 q 601 1114 571 1114 q 648 1098 632 1114 q 664 1053 664 1082 q 648 1006 664 1022 q 601 989 632 989 z "},"Ạ":{"ha":981,"x_min":-7,"x_max":985,"o":"m 979 17 q 985 8 985 17 q 979 0 985 0 q 894 3 953 0 q 813 6 839 6 q 733 3 781 6 q 663 0 686 0 q 657 8 657 0 q 663 17 657 17 q 731 26 710 17 q 751 58 751 35 q 731 124 751 82 l 575 446 l 319 446 l 206 183 q 186 107 186 138 q 321 17 186 17 q 328 8 328 17 q 321 0 328 0 q 249 3 296 0 q 157 6 196 6 q 71 3 121 6 q -1 0 26 0 q -7 8 -7 0 q -1 17 -7 17 q 65 32 38 17 q 117 85 92 47 q 174 196 142 122 l 469 878 q 479 883 471 882 q 489 878 488 883 l 824 190 q 904 53 871 89 q 979 17 938 17 m 332 478 l 560 478 l 440 728 l 332 478 m 493 -272 q 442 -254 461 -272 q 424 -204 424 -236 q 442 -156 424 -174 q 493 -139 461 -139 q 541 -156 524 -139 q 558 -204 558 -174 q 541 -254 558 -236 q 493 -272 524 -272 z "},"À":{"ha":981,"x_min":-7,"x_max":985,"o":"m 979 17 q 985 8 985 17 q 979 0 985 0 q 894 3 953 0 q 813 6 839 6 q 733 3 781 6 q 663 0 686 0 q 657 8 657 0 q 663 17 657 17 q 731 26 710 17 q 751 58 751 35 q 731 124 751 82 l 575 446 l 319 446 l 206 183 q 186 107 186 138 q 321 17 186 17 q 328 8 328 17 q 321 0 328 0 q 249 3 296 0 q 157 6 196 6 q 71 3 121 6 q -1 0 26 0 q -7 8 -7 0 q -1 17 -7 17 q 65 32 38 17 q 117 85 92 47 q 174 196 142 122 l 469 878 q 479 883 471 882 q 489 878 488 883 l 824 190 q 904 53 871 89 q 979 17 938 17 m 332 478 l 560 478 l 440 728 l 332 478 m 617 943 q 308 1050 461 1013 q 319 1065 296 1053 q 376 1088 343 1078 q 414 1093 408 1097 q 485 1046 461 1063 q 622 957 576 983 q 626 951 626 956 q 624 944 626 947 q 617 943 621 942 z "},"Ả":{"ha":981,"x_min":-7,"x_max":985,"o":"m 979 17 q 985 8 985 17 q 979 0 985 0 q 894 3 953 0 q 813 6 839 6 q 733 3 781 6 q 663 0 686 0 q 657 8 657 0 q 663 17 657 17 q 731 26 710 17 q 751 58 751 35 q 731 124 751 82 l 575 446 l 319 446 l 206 183 q 186 107 186 138 q 321 17 186 17 q 328 8 328 17 q 321 0 328 0 q 249 3 296 0 q 157 6 196 6 q 71 3 121 6 q -1 0 26 0 q -7 8 -7 0 q -1 17 -7 17 q 65 32 38 17 q 117 85 92 47 q 174 196 142 122 l 469 878 q 479 883 471 882 q 489 878 488 883 l 824 190 q 904 53 871 89 q 979 17 938 17 m 332 478 l 560 478 l 440 728 l 332 478 m 482 904 q 476 901 483 901 q 467 904 468 901 q 463 935 463 921 q 469 974 463 956 q 489 1017 476 993 q 508 1054 501 1039 q 514 1088 514 1069 q 499 1128 514 1114 q 461 1142 485 1142 q 418 1131 446 1142 l 417 1131 q 408 1135 413 1131 q 408 1142 404 1139 q 507 1174 453 1174 q 574 1153 549 1174 q 599 1101 599 1133 q 583 1053 599 1075 q 538 1000 568 1032 q 492 949 507 971 q 482 904 478 928 z "},"Ā":{"ha":981,"x_min":-7,"x_max":985,"o":"m 979 17 q 985 8 985 17 q 979 0 985 0 q 894 3 953 0 q 813 6 839 6 q 733 3 781 6 q 663 0 686 0 q 657 8 657 0 q 663 17 657 17 q 731 26 710 17 q 751 58 751 35 q 731 124 751 82 l 575 446 l 319 446 l 206 183 q 186 107 186 138 q 321 17 186 17 q 328 8 328 17 q 321 0 328 0 q 249 3 296 0 q 157 6 196 6 q 71 3 121 6 q -1 0 26 0 q -7 8 -7 0 q -1 17 -7 17 q 65 32 38 17 q 117 85 92 47 q 174 196 142 122 l 469 878 q 479 883 471 882 q 489 878 488 883 l 824 190 q 904 53 871 89 q 979 17 938 17 m 332 478 l 560 478 l 440 728 l 332 478 m 304 999 q 294 1021 294 999 q 304 1042 294 1042 l 653 1042 q 661 1035 658 1042 q 664 1021 664 1029 q 661 1006 664 1013 q 653 999 658 999 l 304 999 z "},"Ą":{"ha":983,"x_min":-7,"x_max":985,"o":"m 979 13 q 985 5 985 13 q 979 -3 985 -3 q 900 0 947 -3 l 838 1 q 719 -47 765 1 q 672 -172 672 -94 q 709 -289 672 -243 q 813 -335 746 -335 q 885 -318 851 -335 l 886 -318 q 894 -322 890 -318 q 894 -329 897 -326 q 744 -382 828 -382 q 621 -341 667 -382 q 575 -232 575 -300 q 599 -141 575 -178 q 671 -58 624 -104 q 727 3 708 -24 q 746 61 746 29 q 731 121 746 90 l 572 446 l 319 446 l 206 183 q 186 107 186 138 q 321 17 186 17 q 328 8 328 17 q 321 0 328 0 q 249 3 296 0 q 157 6 196 6 q 71 3 121 6 q -1 0 26 0 q -7 8 -7 0 q -1 17 -7 17 q 65 32 38 17 q 117 85 92 47 q 172 196 142 122 l 469 878 q 479 883 471 882 q 489 878 488 883 l 824 189 q 903 51 869 90 q 979 13 938 13 m 332 478 l 557 478 l 439 722 l 332 478 z "},"Å":{"ha":981,"x_min":-7,"x_max":985,"o":"m 979 17 q 985 8 985 17 q 979 0 985 0 q 894 3 953 0 q 813 6 839 6 q 733 3 781 6 q 663 0 686 0 q 657 8 657 0 q 663 17 657 17 q 731 26 710 17 q 751 58 751 35 q 731 124 751 82 l 575 446 l 319 446 l 206 183 q 186 107 186 138 q 321 17 186 17 q 328 8 328 17 q 321 0 328 0 q 249 3 296 0 q 157 6 196 6 q 71 3 121 6 q -1 0 26 0 q -7 8 -7 0 q -1 17 -7 17 q 65 32 38 17 q 117 85 92 47 q 174 196 142 122 l 469 878 q 479 883 471 882 q 489 878 488 883 l 824 190 q 904 53 871 89 q 979 17 938 17 m 332 478 l 560 478 l 440 728 l 332 478 m 471 921 q 376 953 411 921 q 340 1031 340 986 q 385 1109 340 1081 q 485 1138 429 1138 q 576 1106 538 1138 q 614 1028 614 1074 q 570 950 614 979 q 471 921 526 921 m 492 938 q 527 953 515 938 q 539 1003 539 968 q 515 1087 539 1051 q 457 1122 492 1122 q 425 1106 435 1122 q 415 1058 415 1090 q 436 975 415 1013 q 492 938 457 938 z "},"Ǻ":{"ha":981,"x_min":-7,"x_max":985,"o":"m 979 17 q 985 8 985 17 q 979 0 985 0 q 894 3 953 0 q 813 6 839 6 q 733 3 781 6 q 663 0 686 0 q 657 8 657 0 q 663 17 657 17 q 731 26 710 17 q 751 58 751 35 q 731 124 751 82 l 575 446 l 319 446 l 206 183 q 186 107 186 138 q 321 17 186 17 q 328 8 328 17 q 321 0 328 0 q 249 3 296 0 q 157 6 196 6 q 71 3 121 6 q -1 0 26 0 q -7 8 -7 0 q -1 17 -7 17 q 65 32 38 17 q 117 85 92 47 q 174 196 142 122 l 469 878 q 479 883 471 882 q 489 878 488 883 l 824 190 q 904 53 871 89 q 979 17 938 17 m 332 478 l 560 478 l 440 728 l 332 478 m 350 1133 q 344 1140 346 1133 q 346 1147 342 1146 q 444 1199 383 1165 q 492 1222 471 1211 q 532 1243 514 1233 q 565 1235 539 1247 q 613 1210 592 1224 q 624 1194 633 1196 q 353 1133 490 1172 l 350 1133 m 469 938 q 381 965 414 938 q 347 1032 347 993 q 390 1099 347 1074 q 483 1124 432 1124 q 575 1096 536 1124 q 614 1029 614 1068 q 569 963 614 988 q 469 938 525 938 m 492 954 q 538 1004 538 954 q 515 1077 538 1047 q 457 1107 492 1107 q 414 1060 414 1107 q 435 987 414 1019 q 492 954 457 954 z "},"Ã":{"ha":981,"x_min":-7,"x_max":985,"o":"m 979 17 q 985 8 985 17 q 979 0 985 0 q 894 3 953 0 q 813 6 839 6 q 733 3 781 6 q 663 0 686 0 q 657 8 657 0 q 663 17 657 17 q 731 26 710 17 q 751 58 751 35 q 731 124 751 82 l 575 446 l 319 446 l 206 183 q 186 107 186 138 q 321 17 186 17 q 328 8 328 17 q 321 0 328 0 q 249 3 296 0 q 157 6 196 6 q 71 3 121 6 q -1 0 26 0 q -7 8 -7 0 q -1 17 -7 17 q 65 32 38 17 q 117 85 92 47 q 174 196 142 122 l 469 878 q 479 883 471 882 q 489 878 488 883 l 824 190 q 904 53 871 89 q 979 17 938 17 m 332 478 l 560 478 l 440 728 l 332 478 m 589 1039 q 627 1048 613 1039 q 658 1076 642 1057 l 660 1076 q 667 1073 664 1076 q 668 1067 671 1069 q 608 992 632 1011 q 556 972 585 972 q 507 979 533 972 q 472 988 481 986 q 378 1006 418 1006 q 340 998 351 1006 q 308 968 329 990 l 307 968 q 299 972 303 968 q 297 978 296 975 q 417 1074 360 1074 q 485 1058 439 1074 q 524 1048 492 1057 q 589 1039 557 1039 z "},"Æ":{"ha":1221,"x_min":-7,"x_max":1154,"o":"m 1138 211 q 1143 214 1138 214 q 1151 212 1147 214 q 1154 208 1154 210 q 1142 21 1142 118 q 1137 5 1142 10 q 1119 0 1132 0 l 540 0 q 538 8 538 0 q 540 17 538 17 q 613 24 590 17 q 644 51 636 31 q 653 113 653 71 l 653 436 l 424 436 l 253 181 q 213 81 213 119 q 319 17 213 17 q 326 8 326 17 q 319 0 326 0 q 242 3 292 0 q 140 6 183 6 q 63 3 107 6 q 0 0 24 0 q -7 8 -7 0 q 0 17 -7 17 q 207 183 94 17 l 621 797 q 639 832 639 822 q 616 848 639 844 q 532 851 593 851 q 529 860 529 851 q 532 868 529 868 l 1096 868 q 1108 856 1108 868 l 1111 681 q 1103 676 1111 676 q 1096 679 1096 675 q 1042 788 1089 740 q 931 835 994 835 l 860 835 q 780 818 800 835 q 760 754 760 801 l 760 468 l 903 468 q 1007 492 974 468 q 1040 568 1040 517 q 1049 571 1040 571 q 1057 568 1057 571 l 1056 451 q 1057 389 1056 410 l 1058 319 q 1050 317 1058 317 q 1042 319 1042 317 q 1007 408 1042 379 q 900 436 972 436 l 760 436 l 760 118 q 778 50 760 68 q 853 32 797 32 l 942 32 q 1065 83 1008 32 q 1138 211 1121 135 m 444 468 l 653 468 l 653 781 l 444 468 z "},"Ǽ":{"ha":1221,"x_min":-7,"x_max":1154,"o":"m 1138 211 q 1143 214 1138 214 q 1151 212 1147 214 q 1154 208 1154 210 q 1142 21 1142 118 q 1137 5 1142 10 q 1119 0 1132 0 l 540 0 q 538 8 538 0 q 540 17 538 17 q 613 24 590 17 q 644 51 636 31 q 653 113 653 71 l 653 436 l 424 436 l 253 181 q 213 81 213 119 q 319 17 213 17 q 326 8 326 17 q 319 0 326 0 q 242 3 292 0 q 140 6 183 6 q 63 3 107 6 q 0 0 24 0 q -7 8 -7 0 q 0 17 -7 17 q 207 183 94 17 l 621 797 q 639 832 639 822 q 616 848 639 844 q 532 851 593 851 q 529 860 529 851 q 532 868 529 868 l 1096 868 q 1108 856 1108 868 l 1111 681 q 1103 676 1111 676 q 1096 679 1096 675 q 1042 788 1089 740 q 931 835 994 835 l 860 835 q 780 818 800 835 q 760 754 760 801 l 760 468 l 903 468 q 1007 492 974 468 q 1040 568 1040 517 q 1049 571 1040 571 q 1057 568 1057 571 l 1056 451 q 1057 389 1056 410 l 1058 319 q 1050 317 1058 317 q 1042 319 1042 317 q 1007 408 1042 379 q 900 436 972 436 l 760 436 l 760 118 q 778 50 760 68 q 853 32 797 32 l 942 32 q 1065 83 1008 32 q 1138 211 1121 135 m 444 468 l 653 468 l 653 781 l 444 468 m 667 942 q 660 948 661 942 q 663 957 658 954 q 806 1049 713 985 q 872 1093 850 1079 q 910 1088 879 1097 q 966 1065 942 1078 q 978 1050 990 1053 q 820 1003 892 1029 q 669 943 749 978 l 667 942 z "},"Ǣ":{"ha":1221,"x_min":-7,"x_max":1154,"o":"m 1138 211 q 1143 214 1138 214 q 1151 212 1147 214 q 1154 208 1154 210 q 1142 21 1142 118 q 1137 5 1142 10 q 1119 0 1132 0 l 540 0 q 538 8 538 0 q 540 17 538 17 q 613 24 590 17 q 644 51 636 31 q 653 113 653 71 l 653 436 l 424 436 l 253 181 q 213 81 213 119 q 319 17 213 17 q 326 8 326 17 q 319 0 326 0 q 242 3 292 0 q 140 6 183 6 q 63 3 107 6 q 0 0 24 0 q -7 8 -7 0 q 0 17 -7 17 q 207 183 94 17 l 621 797 q 639 832 639 822 q 616 848 639 844 q 532 851 593 851 q 529 860 529 851 q 532 868 529 868 l 1096 868 q 1108 856 1108 868 l 1111 681 q 1103 676 1111 676 q 1096 679 1096 675 q 1042 788 1089 740 q 931 835 994 835 l 860 835 q 780 818 800 835 q 760 754 760 801 l 760 468 l 903 468 q 1007 492 974 468 q 1040 568 1040 517 q 1049 571 1040 571 q 1057 568 1057 571 l 1056 451 q 1057 389 1056 410 l 1058 319 q 1050 317 1058 317 q 1042 319 1042 317 q 1007 408 1042 379 q 900 436 972 436 l 760 436 l 760 118 q 778 50 760 68 q 853 32 797 32 l 942 32 q 1065 83 1008 32 q 1138 211 1121 135 m 444 468 l 653 468 l 653 781 l 444 468 m 629 999 q 619 1021 619 999 q 629 1042 619 1042 l 978 1042 q 986 1035 983 1042 q 989 1021 989 1029 q 986 1006 989 1013 q 978 999 983 999 l 629 999 z "},"B":{"ha":792,"x_min":56,"x_max":721,"o":"m 474 489 q 653 414 585 479 q 721 254 721 349 q 683 122 721 181 q 578 28 644 63 q 431 -6 513 -6 q 333 -1 386 -6 q 288 1 314 0 q 228 3 261 3 l 131 1 q 60 0 104 0 q 56 8 56 0 q 60 17 56 17 q 131 24 108 17 q 164 51 154 32 q 174 113 174 71 l 174 756 q 165 817 174 797 q 133 844 156 836 q 61 851 110 851 q 58 860 58 851 q 61 868 58 868 l 131 867 q 228 864 192 864 q 310 868 265 864 q 347 871 325 869 q 393 872 368 872 q 575 823 513 872 q 638 690 638 774 q 594 570 638 624 q 474 489 551 517 m 367 849 q 316 842 333 849 q 291 815 299 835 q 283 753 283 794 l 283 489 l 344 488 q 482 540 436 488 q 528 679 528 593 q 488 803 528 758 q 367 849 449 849 m 408 22 q 555 74 507 22 q 603 221 603 125 q 544 390 603 326 q 379 456 486 454 q 283 453 342 457 l 283 113 q 293 59 283 78 q 329 31 303 40 q 408 22 356 22 z "},"C":{"ha":929,"x_min":68,"x_max":869,"o":"m 579 883 q 711 872 643 883 q 819 839 779 860 q 834 827 831 833 q 840 806 838 821 l 856 638 q 849 633 856 633 q 840 636 842 632 q 722 798 804 744 q 525 851 640 851 q 349 805 424 851 q 234 674 274 758 q 194 478 194 589 q 244 240 194 349 q 380 69 294 132 q 567 6 465 6 q 853 235 767 6 q 858 239 853 239 q 866 238 863 239 q 869 233 869 236 l 850 65 q 844 44 847 49 q 828 33 840 39 q 567 -17 700 -17 q 286 51 399 -17 q 121 222 174 118 q 68 440 68 326 q 140 670 68 569 q 328 827 211 771 q 579 883 446 883 z "},"Ć":{"ha":929,"x_min":68,"x_max":869,"o":"m 579 883 q 711 872 643 883 q 819 839 779 860 q 834 827 831 833 q 840 806 838 821 l 856 638 q 849 633 856 633 q 840 636 842 632 q 722 798 804 744 q 525 851 640 851 q 349 805 424 851 q 234 674 274 758 q 194 478 194 589 q 244 240 194 349 q 380 69 294 132 q 567 6 465 6 q 853 235 767 6 q 858 239 853 239 q 866 238 863 239 q 869 233 869 236 l 850 65 q 844 44 847 49 q 828 33 840 39 q 567 -17 700 -17 q 286 51 399 -17 q 121 222 174 118 q 68 440 68 326 q 140 670 68 569 q 328 827 211 771 q 579 883 446 883 m 389 942 q 382 948 383 942 q 385 957 381 954 q 528 1049 435 985 q 594 1093 572 1079 q 633 1088 601 1097 q 688 1065 664 1078 q 700 1050 713 1053 q 542 1003 614 1029 q 392 943 471 978 l 389 942 z "},"Č":{"ha":929,"x_min":68,"x_max":869,"o":"m 579 883 q 711 872 643 883 q 819 839 779 860 q 834 827 831 833 q 840 806 838 821 l 856 638 q 849 633 856 633 q 840 636 842 632 q 722 798 804 744 q 525 851 640 851 q 349 805 424 851 q 234 674 274 758 q 194 478 194 589 q 244 240 194 349 q 380 69 294 132 q 567 6 465 6 q 853 235 767 6 q 858 239 853 239 q 866 238 863 239 q 869 233 869 236 l 850 65 q 844 44 847 49 q 828 33 840 39 q 567 -17 700 -17 q 286 51 399 -17 q 121 222 174 118 q 68 440 68 326 q 140 670 68 569 q 328 827 211 771 q 579 883 446 883 m 367 1097 q 365 1098 365 1097 q 365 1099 365 1099 q 369 1105 365 1101 q 375 1107 372 1108 l 526 1035 l 676 1107 l 678 1107 q 684 1103 682 1107 q 683 1097 686 1100 l 542 954 q 526 949 536 949 q 510 954 515 949 l 367 1097 z "},"Ç":{"ha":929,"x_min":68,"x_max":869,"o":"m 853 235 q 858 239 853 239 q 866 238 863 239 q 869 233 869 236 l 850 65 q 844 44 847 49 q 828 33 840 39 q 567 -17 700 -17 l 540 -17 q 531 -69 531 -56 q 543 -105 531 -92 q 589 -137 556 -118 q 644 -182 624 -157 q 665 -244 665 -207 q 627 -340 665 -299 q 513 -382 589 -382 q 444 -367 469 -382 q 418 -325 418 -353 q 432 -293 418 -307 q 465 -279 446 -279 q 494 -288 485 -279 q 511 -315 503 -297 q 529 -343 519 -333 q 560 -353 539 -353 q 603 -306 603 -353 q 577 -241 603 -269 q 485 -176 551 -212 q 467 -158 467 -167 q 474 -135 467 -153 q 519 -15 496 -85 q 266 63 368 -6 q 116 232 164 132 q 68 440 68 332 q 140 670 68 569 q 328 827 211 771 q 579 883 446 883 q 711 872 643 883 q 819 839 779 860 q 834 827 831 833 q 840 806 838 821 l 856 638 q 849 633 856 633 q 840 636 842 632 q 722 798 804 744 q 525 851 640 851 q 349 805 424 851 q 234 674 274 758 q 194 478 194 589 q 244 240 194 349 q 380 69 294 132 q 567 6 465 6 q 853 235 767 6 z "},"Ĉ":{"ha":929,"x_min":68,"x_max":869,"o":"m 579 883 q 711 872 643 883 q 819 839 779 860 q 834 827 831 833 q 840 806 838 821 l 856 638 q 849 633 856 633 q 840 636 842 632 q 722 798 804 744 q 525 851 640 851 q 349 805 424 851 q 234 674 274 758 q 194 478 194 589 q 244 240 194 349 q 380 69 294 132 q 567 6 465 6 q 853 235 767 6 q 858 239 853 239 q 866 238 863 239 q 869 233 869 236 l 850 65 q 844 44 847 49 q 828 33 840 39 q 567 -17 700 -17 q 286 51 399 -17 q 121 222 174 118 q 68 440 68 326 q 140 670 68 569 q 328 827 211 771 q 579 883 446 883 m 511 1110 q 528 1117 518 1117 q 543 1110 536 1117 l 685 965 q 686 963 686 965 q 683 957 686 960 q 678 956 679 954 l 528 1028 l 376 956 q 369 959 374 954 q 368 965 365 964 l 511 1110 z "},"Ċ":{"ha":929,"x_min":68,"x_max":869,"o":"m 579 883 q 711 872 643 883 q 819 839 779 860 q 834 827 831 833 q 840 806 838 821 l 856 638 q 849 633 856 633 q 840 636 842 632 q 722 798 804 744 q 525 851 640 851 q 349 805 424 851 q 234 674 274 758 q 194 478 194 589 q 244 240 194 349 q 380 69 294 132 q 567 6 465 6 q 853 235 767 6 q 858 239 853 239 q 866 238 863 239 q 869 233 869 236 l 850 65 q 844 44 847 49 q 828 33 840 39 q 567 -17 700 -17 q 286 51 399 -17 q 121 222 174 118 q 68 440 68 326 q 140 670 68 569 q 328 827 211 771 q 579 883 446 883 m 526 990 q 476 1008 494 990 q 457 1058 457 1026 q 476 1106 457 1089 q 526 1124 494 1124 q 574 1106 557 1124 q 592 1058 592 1089 q 574 1008 592 1026 q 526 990 557 990 z "},"D":{"ha":967,"x_min":43,"x_max":899,"o":"m 431 -6 q 335 -1 389 -6 q 283 1 314 0 q 215 3 253 3 l 118 1 q 46 0 92 0 q 43 8 43 0 q 46 17 43 17 q 119 24 96 17 q 151 51 143 31 q 160 113 160 71 l 160 756 q 151 817 160 797 q 120 844 143 836 q 49 851 97 851 q 44 860 44 851 q 49 868 44 868 l 118 867 q 215 864 179 864 q 322 868 268 864 q 411 871 389 871 q 665 815 554 871 q 838 664 776 760 q 899 449 899 568 q 835 210 899 314 q 665 51 772 107 q 431 -6 558 -6 m 417 19 q 601 66 521 19 q 726 202 681 113 q 771 418 771 292 q 728 637 771 539 q 608 791 686 735 q 425 847 529 847 q 333 840 365 847 q 286 813 301 833 q 271 753 271 793 l 271 128 q 301 44 271 68 q 417 19 331 19 z "},"Ð":{"ha":967,"x_min":43,"x_max":899,"o":"m 411 871 q 665 815 554 871 q 838 664 776 760 q 899 449 899 568 q 835 210 899 314 q 665 51 772 107 q 431 -6 558 -6 q 335 -1 389 -6 q 283 1 314 0 q 215 3 253 3 l 118 1 q 46 0 92 0 q 43 8 43 0 q 46 17 43 17 q 119 24 96 17 q 151 51 143 31 q 160 113 160 71 l 160 417 l 74 417 q 68 432 68 417 q 74 447 68 447 l 160 447 l 160 756 q 151 817 160 797 q 120 844 143 836 q 49 851 97 851 q 44 860 44 851 q 49 868 44 868 l 118 867 q 215 864 179 864 q 322 868 268 864 q 411 871 389 871 m 417 19 q 601 66 521 19 q 726 202 681 113 q 771 418 771 292 q 728 637 771 539 q 608 791 686 735 q 425 847 529 847 q 333 840 365 847 q 286 813 301 833 q 271 753 271 793 l 271 447 l 460 447 q 465 432 465 447 q 460 417 465 417 l 271 417 l 271 128 q 301 44 271 68 q 417 19 331 19 z "},"Ď":{"ha":967,"x_min":43,"x_max":899,"o":"m 431 -6 q 335 -1 389 -6 q 283 1 314 0 q 215 3 253 3 l 118 1 q 46 0 92 0 q 43 8 43 0 q 46 17 43 17 q 119 24 96 17 q 151 51 143 31 q 160 113 160 71 l 160 756 q 151 817 160 797 q 120 844 143 836 q 49 851 97 851 q 44 860 44 851 q 49 868 44 868 l 118 867 q 215 864 179 864 q 322 868 268 864 q 411 871 389 871 q 665 815 554 871 q 838 664 776 760 q 899 449 899 568 q 835 210 899 314 q 665 51 772 107 q 431 -6 558 -6 m 417 19 q 601 66 521 19 q 726 202 681 113 q 771 418 771 292 q 728 637 771 539 q 608 791 686 735 q 425 847 529 847 q 333 840 365 847 q 286 813 301 833 q 271 753 271 793 l 271 128 q 301 44 271 68 q 417 19 331 19 m 285 1097 q 283 1098 283 1097 q 283 1099 283 1099 q 287 1105 283 1101 q 293 1107 290 1108 l 444 1035 l 594 1107 l 596 1107 q 602 1103 600 1107 q 601 1097 604 1100 l 460 954 q 444 949 454 949 q 428 954 433 949 l 285 1097 z "},"Đ":{"ha":967,"x_min":43,"x_max":899,"o":"m 411 871 q 665 815 554 871 q 838 664 776 760 q 899 449 899 568 q 835 210 899 314 q 665 51 772 107 q 431 -6 558 -6 q 335 -1 389 -6 q 283 1 314 0 q 215 3 253 3 l 118 1 q 46 0 92 0 q 43 8 43 0 q 46 17 43 17 q 119 24 96 17 q 151 51 143 31 q 160 113 160 71 l 160 417 l 74 417 q 68 432 68 417 q 74 447 68 447 l 160 447 l 160 756 q 151 817 160 797 q 120 844 143 836 q 49 851 97 851 q 44 860 44 851 q 49 868 44 868 l 118 867 q 215 864 179 864 q 322 868 268 864 q 411 871 389 871 m 417 19 q 601 66 521 19 q 726 202 681 113 q 771 418 771 292 q 728 637 771 539 q 608 791 686 735 q 425 847 529 847 q 333 840 365 847 q 286 813 301 833 q 271 753 271 793 l 271 447 l 460 447 q 465 432 465 447 q 460 417 465 417 l 271 417 l 271 128 q 301 44 271 68 q 417 19 331 19 z "},"Ḍ":{"ha":967,"x_min":43,"x_max":899,"o":"m 431 -6 q 335 -1 389 -6 q 283 1 314 0 q 215 3 253 3 l 118 1 q 46 0 92 0 q 43 8 43 0 q 46 17 43 17 q 119 24 96 17 q 151 51 143 31 q 160 113 160 71 l 160 756 q 151 817 160 797 q 120 844 143 836 q 49 851 97 851 q 44 860 44 851 q 49 868 44 868 l 118 867 q 215 864 179 864 q 322 868 268 864 q 411 871 389 871 q 665 815 554 871 q 838 664 776 760 q 899 449 899 568 q 835 210 899 314 q 665 51 772 107 q 431 -6 558 -6 m 417 19 q 601 66 521 19 q 726 202 681 113 q 771 418 771 292 q 728 637 771 539 q 608 791 686 735 q 425 847 529 847 q 333 840 365 847 q 286 813 301 833 q 271 753 271 793 l 271 128 q 301 44 271 68 q 417 19 331 19 m 456 -272 q 405 -254 424 -272 q 386 -204 386 -236 q 405 -156 386 -174 q 456 -139 424 -139 q 503 -156 486 -139 q 521 -204 521 -174 q 503 -254 521 -236 q 456 -272 486 -272 z "},"Ḏ":{"ha":967,"x_min":43,"x_max":899,"o":"m 431 -6 q 335 -1 389 -6 q 283 1 314 0 q 215 3 253 3 l 118 1 q 46 0 92 0 q 43 8 43 0 q 46 17 43 17 q 119 24 96 17 q 151 51 143 31 q 160 113 160 71 l 160 756 q 151 817 160 797 q 120 844 143 836 q 49 851 97 851 q 44 860 44 851 q 49 868 44 868 l 118 867 q 215 864 179 864 q 322 868 268 864 q 411 871 389 871 q 665 815 554 871 q 838 664 776 760 q 899 449 899 568 q 835 210 899 314 q 665 51 772 107 q 431 -6 558 -6 m 417 19 q 601 66 521 19 q 726 202 681 113 q 771 418 771 292 q 728 637 771 539 q 608 791 686 735 q 425 847 529 847 q 333 840 365 847 q 286 813 301 833 q 271 753 271 793 l 271 128 q 301 44 271 68 q 417 19 331 19 m 279 -161 q 271 -155 274 -161 q 268 -140 268 -149 q 271 -125 268 -132 q 279 -118 274 -118 l 628 -118 q 638 -140 638 -118 q 628 -161 638 -161 l 279 -161 z "},"E":{"ha":753,"x_min":56,"x_max":686,"o":"m 669 211 q 675 214 669 214 q 683 212 679 214 q 686 208 686 210 q 672 21 672 108 q 668 5 672 10 q 651 0 664 0 l 60 0 q 56 8 56 0 q 60 17 56 17 q 132 24 110 17 q 163 51 154 31 q 171 113 171 71 l 171 756 q 163 817 171 797 q 131 844 154 836 q 60 851 108 851 q 56 860 56 851 q 60 868 56 868 l 626 868 q 640 856 640 868 l 643 681 q 635 676 643 676 q 626 679 628 675 q 572 795 617 756 q 456 835 528 835 l 385 835 q 303 817 324 835 q 282 750 282 800 l 282 468 l 435 468 q 539 492 506 468 q 572 568 572 517 q 580 571 572 571 q 588 568 588 571 l 586 451 l 588 389 q 590 319 590 344 q 582 317 590 317 q 574 319 574 317 q 540 408 574 379 q 431 436 506 436 l 282 436 l 282 118 q 301 50 282 68 q 376 32 319 32 l 467 32 q 598 78 546 32 q 669 211 650 125 z "},"É":{"ha":753,"x_min":56,"x_max":686,"o":"m 669 211 q 675 214 669 214 q 683 212 679 214 q 686 208 686 210 q 672 21 672 108 q 668 5 672 10 q 651 0 664 0 l 60 0 q 56 8 56 0 q 60 17 56 17 q 132 24 110 17 q 163 51 154 31 q 171 113 171 71 l 171 756 q 163 817 171 797 q 131 844 154 836 q 60 851 108 851 q 56 860 56 851 q 60 868 56 868 l 626 868 q 640 856 640 868 l 643 681 q 635 676 643 676 q 626 679 628 675 q 572 795 617 756 q 456 835 528 835 l 385 835 q 303 817 324 835 q 282 750 282 800 l 282 468 l 435 468 q 539 492 506 468 q 572 568 572 517 q 580 571 572 571 q 588 568 588 571 l 586 451 l 588 389 q 590 319 590 344 q 582 317 590 317 q 574 319 574 317 q 540 408 574 379 q 431 436 506 436 l 282 436 l 282 118 q 301 50 282 68 q 376 32 319 32 l 467 32 q 598 78 546 32 q 669 211 650 125 m 271 942 q 264 948 265 942 q 267 957 263 954 q 410 1049 317 985 q 476 1093 454 1079 q 515 1088 483 1097 q 570 1065 546 1078 q 582 1050 594 1053 q 424 1003 496 1029 q 274 943 353 978 l 271 942 z "},"Ĕ":{"ha":753,"x_min":56,"x_max":686,"o":"m 669 211 q 675 214 669 214 q 683 212 679 214 q 686 208 686 210 q 672 21 672 108 q 668 5 672 10 q 651 0 664 0 l 60 0 q 56 8 56 0 q 60 17 56 17 q 132 24 110 17 q 163 51 154 31 q 171 113 171 71 l 171 756 q 163 817 171 797 q 131 844 154 836 q 60 851 108 851 q 56 860 56 851 q 60 868 56 868 l 626 868 q 640 856 640 868 l 643 681 q 635 676 643 676 q 626 679 628 675 q 572 795 617 756 q 456 835 528 835 l 385 835 q 303 817 324 835 q 282 750 282 800 l 282 468 l 435 468 q 539 492 506 468 q 572 568 572 517 q 580 571 572 571 q 588 568 588 571 l 586 451 l 588 389 q 590 319 590 344 q 582 317 590 317 q 574 319 574 317 q 540 408 574 379 q 431 436 506 436 l 282 436 l 282 118 q 301 50 282 68 q 376 32 319 32 l 467 32 q 598 78 546 32 q 669 211 650 125 m 408 958 q 309 999 346 958 q 265 1115 272 1040 q 272 1122 264 1121 q 281 1119 279 1122 q 324 1059 288 1085 q 408 1033 361 1033 q 491 1059 454 1033 q 535 1119 528 1085 q 540 1122 535 1122 q 548 1120 544 1122 q 550 1115 551 1118 q 507 999 543 1040 q 408 958 471 958 z "},"Ě":{"ha":753,"x_min":56,"x_max":686,"o":"m 669 211 q 675 214 669 214 q 683 212 679 214 q 686 208 686 210 q 672 21 672 108 q 668 5 672 10 q 651 0 664 0 l 60 0 q 56 8 56 0 q 60 17 56 17 q 132 24 110 17 q 163 51 154 31 q 171 113 171 71 l 171 756 q 163 817 171 797 q 131 844 154 836 q 60 851 108 851 q 56 860 56 851 q 60 868 56 868 l 626 868 q 640 856 640 868 l 643 681 q 635 676 643 676 q 626 679 628 675 q 572 795 617 756 q 456 835 528 835 l 385 835 q 303 817 324 835 q 282 750 282 800 l 282 468 l 435 468 q 539 492 506 468 q 572 568 572 517 q 580 571 572 571 q 588 568 588 571 l 586 451 l 588 389 q 590 319 590 344 q 582 317 590 317 q 574 319 574 317 q 540 408 574 379 q 431 436 506 436 l 282 436 l 282 118 q 301 50 282 68 q 376 32 319 32 l 467 32 q 598 78 546 32 q 669 211 650 125 m 249 1097 q 247 1098 247 1097 q 247 1099 247 1099 q 251 1105 247 1101 q 257 1107 254 1108 l 408 1035 l 558 1107 l 560 1107 q 566 1103 564 1107 q 565 1097 568 1100 l 424 954 q 408 949 418 949 q 392 954 397 949 l 249 1097 z "},"Ê":{"ha":753,"x_min":56,"x_max":686,"o":"m 669 211 q 675 214 669 214 q 683 212 679 214 q 686 208 686 210 q 672 21 672 108 q 668 5 672 10 q 651 0 664 0 l 60 0 q 56 8 56 0 q 60 17 56 17 q 132 24 110 17 q 163 51 154 31 q 171 113 171 71 l 171 756 q 163 817 171 797 q 131 844 154 836 q 60 851 108 851 q 56 860 56 851 q 60 868 56 868 l 626 868 q 640 856 640 868 l 643 681 q 635 676 643 676 q 626 679 628 675 q 572 795 617 756 q 456 835 528 835 l 385 835 q 303 817 324 835 q 282 750 282 800 l 282 468 l 435 468 q 539 492 506 468 q 572 568 572 517 q 580 571 572 571 q 588 568 588 571 l 586 451 l 588 389 q 590 319 590 344 q 582 317 590 317 q 574 319 574 317 q 540 408 574 379 q 431 436 506 436 l 282 436 l 282 118 q 301 50 282 68 q 376 32 319 32 l 467 32 q 598 78 546 32 q 669 211 650 125 m 393 1110 q 410 1117 400 1117 q 425 1110 418 1117 l 567 965 q 568 963 568 965 q 565 957 568 960 q 560 956 561 954 l 410 1028 l 258 956 q 251 959 256 954 q 250 965 247 964 l 393 1110 z "},"Ế":{"ha":753,"x_min":56,"x_max":697,"o":"m 669 211 q 675 214 669 214 q 683 212 679 214 q 686 208 686 210 q 672 21 672 108 q 668 5 672 10 q 651 0 664 0 l 60 0 q 56 8 56 0 q 60 17 56 17 q 132 24 110 17 q 163 51 154 31 q 171 113 171 71 l 171 756 q 163 817 171 797 q 131 844 154 836 q 60 851 108 851 q 56 860 56 851 q 60 868 56 868 l 626 868 q 640 856 640 868 l 643 681 q 635 676 643 676 q 626 679 628 675 q 572 795 617 756 q 456 835 528 835 l 385 835 q 303 817 324 835 q 282 750 282 800 l 282 468 l 435 468 q 539 492 506 468 q 572 568 572 517 q 580 571 572 571 q 588 568 588 571 l 586 451 l 588 389 q 590 319 590 344 q 582 317 590 317 q 574 319 574 317 q 540 408 574 379 q 431 436 506 436 l 282 436 l 282 118 q 301 50 282 68 q 376 32 319 32 l 467 32 q 598 78 546 32 q 669 211 650 125 m 392 1053 q 407 1060 399 1060 q 424 1053 417 1060 l 565 910 q 567 907 567 910 q 563 901 567 904 q 558 900 560 899 l 408 971 l 257 900 q 250 903 254 899 q 249 910 246 908 l 392 1053 m 494 1015 q 488 1021 490 1015 q 489 1029 486 1026 q 586 1167 546 1101 q 622 1164 590 1174 q 680 1141 654 1154 q 693 1124 706 1128 q 594 1078 638 1103 q 499 1017 550 1053 l 494 1015 z "},"Ệ":{"ha":753,"x_min":56,"x_max":686,"o":"m 669 211 q 675 214 669 214 q 683 212 679 214 q 686 208 686 210 q 672 21 672 108 q 668 5 672 10 q 651 0 664 0 l 60 0 q 56 8 56 0 q 60 17 56 17 q 132 24 110 17 q 163 51 154 31 q 171 113 171 71 l 171 756 q 163 817 171 797 q 131 844 154 836 q 60 851 108 851 q 56 860 56 851 q 60 868 56 868 l 626 868 q 640 856 640 868 l 643 681 q 635 676 643 676 q 626 679 628 675 q 572 795 617 756 q 456 835 528 835 l 385 835 q 303 817 324 835 q 282 750 282 800 l 282 468 l 435 468 q 539 492 506 468 q 572 568 572 517 q 580 571 572 571 q 588 568 588 571 l 586 451 l 588 389 q 590 319 590 344 q 582 317 590 317 q 574 319 574 317 q 540 408 574 379 q 431 436 506 436 l 282 436 l 282 118 q 301 50 282 68 q 376 32 319 32 l 467 32 q 598 78 546 32 q 669 211 650 125 m 404 -272 q 353 -254 372 -272 q 335 -204 335 -236 q 353 -156 335 -174 q 404 -139 372 -139 q 452 -156 435 -139 q 469 -204 469 -174 q 452 -254 469 -236 q 404 -272 435 -272 m 392 1053 q 407 1060 399 1060 q 424 1053 417 1060 l 565 910 q 567 907 567 910 q 563 901 567 904 q 558 900 560 899 l 408 971 l 257 900 q 250 903 254 899 q 249 910 246 908 l 392 1053 z "},"Ề":{"ha":753,"x_min":56,"x_max":686,"o":"m 669 211 q 675 214 669 214 q 683 212 679 214 q 686 208 686 210 q 672 21 672 108 q 668 5 672 10 q 651 0 664 0 l 60 0 q 56 8 56 0 q 60 17 56 17 q 132 24 110 17 q 163 51 154 31 q 171 113 171 71 l 171 756 q 163 817 171 797 q 131 844 154 836 q 60 851 108 851 q 56 860 56 851 q 60 868 56 868 l 626 868 q 640 856 640 868 l 643 681 q 635 676 643 676 q 626 679 628 675 q 572 795 617 756 q 456 835 528 835 l 385 835 q 303 817 324 835 q 282 750 282 800 l 282 468 l 435 468 q 539 492 506 468 q 572 568 572 517 q 580 571 572 571 q 588 568 588 571 l 586 451 l 588 389 q 590 319 590 344 q 582 317 590 317 q 574 319 574 317 q 540 408 574 379 q 431 436 506 436 l 282 436 l 282 118 q 301 50 282 68 q 376 32 319 32 l 467 32 q 598 78 546 32 q 669 211 650 125 m 392 1053 q 407 1060 399 1060 q 424 1053 417 1060 l 565 910 q 567 907 567 910 q 563 901 567 904 q 558 900 560 899 l 408 971 l 257 900 q 250 903 254 899 q 249 910 246 908 l 392 1053 m 635 986 q 538 1048 579 1024 q 443 1093 496 1072 q 456 1110 431 1097 q 513 1133 481 1124 q 549 1136 544 1143 q 644 999 597 1060 q 646 993 646 997 q 642 987 646 989 q 635 986 639 985 z "},"Ể":{"ha":753,"x_min":56,"x_max":686,"o":"m 669 211 q 675 214 669 214 q 683 212 679 214 q 686 208 686 210 q 672 21 672 108 q 668 5 672 10 q 651 0 664 0 l 60 0 q 56 8 56 0 q 60 17 56 17 q 132 24 110 17 q 163 51 154 31 q 171 113 171 71 l 171 756 q 163 817 171 797 q 131 844 154 836 q 60 851 108 851 q 56 860 56 851 q 60 868 56 868 l 626 868 q 640 856 640 868 l 643 681 q 635 676 643 676 q 626 679 628 675 q 572 795 617 756 q 456 835 528 835 l 385 835 q 303 817 324 835 q 282 750 282 800 l 282 468 l 435 468 q 539 492 506 468 q 572 568 572 517 q 580 571 572 571 q 588 568 588 571 l 586 451 l 588 389 q 590 319 590 344 q 582 317 590 317 q 574 319 574 317 q 540 408 574 379 q 431 436 506 436 l 282 436 l 282 118 q 301 50 282 68 q 376 32 319 32 l 467 32 q 598 78 546 32 q 669 211 650 125 m 392 1053 q 407 1060 399 1060 q 424 1053 417 1060 l 565 910 q 567 907 567 910 q 563 901 567 904 q 558 900 560 899 l 408 971 l 257 900 q 250 903 254 899 q 249 910 246 908 l 392 1053 m 524 1008 q 521 1026 521 1022 q 539 1078 521 1047 q 549 1097 540 1081 q 557 1131 557 1114 q 543 1163 557 1151 q 511 1174 529 1174 q 481 1167 494 1174 l 479 1167 q 471 1172 475 1167 q 471 1178 467 1176 q 515 1197 492 1190 q 554 1204 538 1204 q 606 1186 586 1204 q 625 1144 625 1168 q 613 1109 625 1125 q 578 1072 600 1093 q 546 1038 556 1051 q 539 1008 536 1024 q 533 1005 540 1006 q 524 1008 525 1004 z "},"Ễ":{"ha":753,"x_min":56,"x_max":686,"o":"m 669 211 q 675 214 669 214 q 683 212 679 214 q 686 208 686 210 q 672 21 672 108 q 668 5 672 10 q 651 0 664 0 l 60 0 q 56 8 56 0 q 60 17 56 17 q 132 24 110 17 q 163 51 154 31 q 171 113 171 71 l 171 756 q 163 817 171 797 q 131 844 154 836 q 60 851 108 851 q 56 860 56 851 q 60 868 56 868 l 626 868 q 640 856 640 868 l 643 681 q 635 676 643 676 q 626 679 628 675 q 572 795 617 756 q 456 835 528 835 l 385 835 q 303 817 324 835 q 282 750 282 800 l 282 468 l 435 468 q 539 492 506 468 q 572 568 572 517 q 580 571 572 571 q 588 568 588 571 l 586 451 l 588 389 q 590 319 590 344 q 582 317 590 317 q 574 319 574 317 q 540 408 574 379 q 431 436 506 436 l 282 436 l 282 118 q 301 50 282 68 q 376 32 319 32 l 467 32 q 598 78 546 32 q 669 211 650 125 m 392 1053 q 407 1060 399 1060 q 424 1053 417 1060 l 565 910 q 567 907 567 910 q 563 901 567 904 q 558 900 560 899 l 408 971 l 257 900 q 250 903 254 899 q 249 910 246 908 l 392 1053 m 522 1144 q 560 1153 546 1144 q 592 1182 575 1163 l 593 1182 q 601 1178 597 1182 q 601 1172 604 1175 q 542 1097 565 1117 q 490 1078 518 1078 q 407 1094 463 1078 q 372 1104 401 1096 q 311 1113 342 1113 q 276 1106 289 1113 q 255 1089 264 1099 q 242 1075 246 1079 l 239 1075 q 232 1078 235 1075 q 232 1085 229 1082 q 350 1178 294 1178 q 419 1164 369 1178 q 522 1144 483 1144 z "},"Ë":{"ha":753,"x_min":56,"x_max":686,"o":"m 669 211 q 675 214 669 214 q 683 212 679 214 q 686 208 686 210 q 672 21 672 108 q 668 5 672 10 q 651 0 664 0 l 60 0 q 56 8 56 0 q 60 17 56 17 q 132 24 110 17 q 163 51 154 31 q 171 113 171 71 l 171 756 q 163 817 171 797 q 131 844 154 836 q 60 851 108 851 q 56 860 56 851 q 60 868 56 868 l 626 868 q 640 856 640 868 l 643 681 q 635 676 643 676 q 626 679 628 675 q 572 795 617 756 q 456 835 528 835 l 385 835 q 303 817 324 835 q 282 750 282 800 l 282 468 l 435 468 q 539 492 506 468 q 572 568 572 517 q 580 571 572 571 q 588 568 588 571 l 586 451 l 588 389 q 590 319 590 344 q 582 317 590 317 q 574 319 574 317 q 540 408 574 379 q 431 436 506 436 l 282 436 l 282 118 q 301 50 282 68 q 376 32 319 32 l 467 32 q 598 78 546 32 q 669 211 650 125 m 288 989 q 240 1006 257 989 q 224 1053 224 1022 q 240 1098 224 1082 q 288 1114 257 1114 q 334 1098 318 1114 q 350 1053 350 1082 q 334 1006 350 1022 q 288 989 318 989 m 531 989 q 483 1006 500 989 q 467 1053 467 1022 q 483 1098 467 1082 q 531 1114 500 1114 q 577 1098 561 1114 q 593 1053 593 1082 q 577 1006 593 1022 q 531 989 561 989 z "},"Ė":{"ha":753,"x_min":56,"x_max":686,"o":"m 669 211 q 675 214 669 214 q 683 212 679 214 q 686 208 686 210 q 672 21 672 108 q 668 5 672 10 q 651 0 664 0 l 60 0 q 56 8 56 0 q 60 17 56 17 q 132 24 110 17 q 163 51 154 31 q 171 113 171 71 l 171 756 q 163 817 171 797 q 131 844 154 836 q 60 851 108 851 q 56 860 56 851 q 60 868 56 868 l 626 868 q 640 856 640 868 l 643 681 q 635 676 643 676 q 626 679 628 675 q 572 795 617 756 q 456 835 528 835 l 385 835 q 303 817 324 835 q 282 750 282 800 l 282 468 l 435 468 q 539 492 506 468 q 572 568 572 517 q 580 571 572 571 q 588 568 588 571 l 586 451 l 588 389 q 590 319 590 344 q 582 317 590 317 q 574 319 574 317 q 540 408 574 379 q 431 436 506 436 l 282 436 l 282 118 q 301 50 282 68 q 376 32 319 32 l 467 32 q 598 78 546 32 q 669 211 650 125 m 408 990 q 358 1008 376 990 q 339 1058 339 1026 q 358 1106 339 1089 q 408 1124 376 1124 q 456 1106 439 1124 q 474 1058 474 1089 q 456 1008 474 1026 q 408 990 439 990 z "},"Ẹ":{"ha":753,"x_min":56,"x_max":686,"o":"m 669 211 q 675 214 669 214 q 683 212 679 214 q 686 208 686 210 q 672 21 672 108 q 668 5 672 10 q 651 0 664 0 l 60 0 q 56 8 56 0 q 60 17 56 17 q 132 24 110 17 q 163 51 154 31 q 171 113 171 71 l 171 756 q 163 817 171 797 q 131 844 154 836 q 60 851 108 851 q 56 860 56 851 q 60 868 56 868 l 626 868 q 640 856 640 868 l 643 681 q 635 676 643 676 q 626 679 628 675 q 572 795 617 756 q 456 835 528 835 l 385 835 q 303 817 324 835 q 282 750 282 800 l 282 468 l 435 468 q 539 492 506 468 q 572 568 572 517 q 580 571 572 571 q 588 568 588 571 l 586 451 l 588 389 q 590 319 590 344 q 582 317 590 317 q 574 319 574 317 q 540 408 574 379 q 431 436 506 436 l 282 436 l 282 118 q 301 50 282 68 q 376 32 319 32 l 467 32 q 598 78 546 32 q 669 211 650 125 m 404 -272 q 353 -254 372 -272 q 335 -204 335 -236 q 353 -156 335 -174 q 404 -139 372 -139 q 452 -156 435 -139 q 469 -204 469 -174 q 452 -254 469 -236 q 404 -272 435 -272 z "},"È":{"ha":753,"x_min":56,"x_max":686,"o":"m 669 211 q 675 214 669 214 q 683 212 679 214 q 686 208 686 210 q 672 21 672 108 q 668 5 672 10 q 651 0 664 0 l 60 0 q 56 8 56 0 q 60 17 56 17 q 132 24 110 17 q 163 51 154 31 q 171 113 171 71 l 171 756 q 163 817 171 797 q 131 844 154 836 q 60 851 108 851 q 56 860 56 851 q 60 868 56 868 l 626 868 q 640 856 640 868 l 643 681 q 635 676 643 676 q 626 679 628 675 q 572 795 617 756 q 456 835 528 835 l 385 835 q 303 817 324 835 q 282 750 282 800 l 282 468 l 435 468 q 539 492 506 468 q 572 568 572 517 q 580 571 572 571 q 588 568 588 571 l 586 451 l 588 389 q 590 319 590 344 q 582 317 590 317 q 574 319 574 317 q 540 408 574 379 q 431 436 506 436 l 282 436 l 282 118 q 301 50 282 68 q 376 32 319 32 l 467 32 q 598 78 546 32 q 669 211 650 125 m 546 943 q 238 1050 390 1013 q 249 1065 225 1053 q 305 1088 272 1078 q 343 1093 338 1097 q 414 1046 390 1063 q 551 957 506 983 q 556 951 556 956 q 553 944 556 947 q 546 943 550 942 z "},"Ẻ":{"ha":753,"x_min":56,"x_max":686,"o":"m 669 211 q 675 214 669 214 q 683 212 679 214 q 686 208 686 210 q 672 21 672 108 q 668 5 672 10 q 651 0 664 0 l 60 0 q 56 8 56 0 q 60 17 56 17 q 132 24 110 17 q 163 51 154 31 q 171 113 171 71 l 171 756 q 163 817 171 797 q 131 844 154 836 q 60 851 108 851 q 56 860 56 851 q 60 868 56 868 l 626 868 q 640 856 640 868 l 643 681 q 635 676 643 676 q 626 679 628 675 q 572 795 617 756 q 456 835 528 835 l 385 835 q 303 817 324 835 q 282 750 282 800 l 282 468 l 435 468 q 539 492 506 468 q 572 568 572 517 q 580 571 572 571 q 588 568 588 571 l 586 451 l 588 389 q 590 319 590 344 q 582 317 590 317 q 574 319 574 317 q 540 408 574 379 q 431 436 506 436 l 282 436 l 282 118 q 301 50 282 68 q 376 32 319 32 l 467 32 q 598 78 546 32 q 669 211 650 125 m 411 904 q 405 901 413 901 q 396 904 397 901 q 392 935 392 921 q 399 974 392 956 q 418 1017 406 993 q 437 1054 431 1039 q 443 1088 443 1069 q 428 1128 443 1114 q 390 1142 414 1142 q 347 1131 375 1142 l 346 1131 q 338 1135 342 1131 q 338 1142 333 1139 q 436 1174 382 1174 q 503 1153 478 1174 q 528 1101 528 1133 q 513 1053 528 1075 q 467 1000 497 1032 q 422 949 436 971 q 411 904 407 928 z "},"Ē":{"ha":753,"x_min":56,"x_max":686,"o":"m 669 211 q 675 214 669 214 q 683 212 679 214 q 686 208 686 210 q 672 21 672 108 q 668 5 672 10 q 651 0 664 0 l 60 0 q 56 8 56 0 q 60 17 56 17 q 132 24 110 17 q 163 51 154 31 q 171 113 171 71 l 171 756 q 163 817 171 797 q 131 844 154 836 q 60 851 108 851 q 56 860 56 851 q 60 868 56 868 l 626 868 q 640 856 640 868 l 643 681 q 635 676 643 676 q 626 679 628 675 q 572 795 617 756 q 456 835 528 835 l 385 835 q 303 817 324 835 q 282 750 282 800 l 282 468 l 435 468 q 539 492 506 468 q 572 568 572 517 q 580 571 572 571 q 588 568 588 571 l 586 451 l 588 389 q 590 319 590 344 q 582 317 590 317 q 574 319 574 317 q 540 408 574 379 q 431 436 506 436 l 282 436 l 282 118 q 301 50 282 68 q 376 32 319 32 l 467 32 q 598 78 546 32 q 669 211 650 125 m 233 999 q 224 1021 224 999 q 233 1042 224 1042 l 582 1042 q 590 1035 588 1042 q 593 1021 593 1029 q 590 1006 593 1013 q 582 999 588 999 l 233 999 z "},"Ę":{"ha":753,"x_min":56,"x_max":707,"o":"m 696 -308 q 703 -312 700 -308 q 703 -319 707 -317 q 551 -382 631 -382 q 435 -342 478 -382 q 393 -240 393 -303 q 553 0 393 -122 l 60 0 q 56 8 56 0 q 60 17 56 17 q 132 24 110 17 q 163 51 154 31 q 171 113 171 71 l 171 756 q 163 817 171 797 q 131 844 154 836 q 60 851 108 851 q 56 860 56 851 q 60 868 56 868 l 626 868 q 640 856 640 868 l 643 681 q 635 676 643 676 q 626 679 628 675 q 572 795 617 756 q 456 835 528 835 l 385 835 q 303 817 324 835 q 282 750 282 800 l 282 468 l 435 468 q 539 492 506 468 q 572 568 572 517 q 580 571 572 571 q 588 568 588 571 l 586 451 l 588 389 q 590 319 590 344 q 582 317 590 317 q 574 319 574 317 q 540 408 574 379 q 431 436 506 436 l 282 436 l 282 118 q 301 50 282 68 q 376 32 319 32 l 467 32 q 598 78 546 32 q 669 211 650 125 q 675 214 669 214 q 683 212 679 214 q 686 208 686 210 q 672 21 672 108 q 668 5 672 10 q 651 0 664 0 l 579 0 q 505 -92 528 -49 q 482 -187 482 -135 q 516 -295 482 -256 q 613 -335 550 -335 q 693 -308 656 -335 l 696 -308 z "},"Ẽ":{"ha":753,"x_min":56,"x_max":686,"o":"m 669 211 q 675 214 669 214 q 683 212 679 214 q 686 208 686 210 q 672 21 672 108 q 668 5 672 10 q 651 0 664 0 l 60 0 q 56 8 56 0 q 60 17 56 17 q 132 24 110 17 q 163 51 154 31 q 171 113 171 71 l 171 756 q 163 817 171 797 q 131 844 154 836 q 60 851 108 851 q 56 860 56 851 q 60 868 56 868 l 626 868 q 640 856 640 868 l 643 681 q 635 676 643 676 q 626 679 628 675 q 572 795 617 756 q 456 835 528 835 l 385 835 q 303 817 324 835 q 282 750 282 800 l 282 468 l 435 468 q 539 492 506 468 q 572 568 572 517 q 580 571 572 571 q 588 568 588 571 l 586 451 l 588 389 q 590 319 590 344 q 582 317 590 317 q 574 319 574 317 q 540 408 574 379 q 431 436 506 436 l 282 436 l 282 118 q 301 50 282 68 q 376 32 319 32 l 467 32 q 598 78 546 32 q 669 211 650 125 m 518 1039 q 556 1048 542 1039 q 588 1076 571 1057 l 589 1076 q 597 1073 593 1076 q 597 1067 600 1069 q 538 992 561 1011 q 485 972 514 972 q 436 979 463 972 q 401 988 410 986 q 307 1006 347 1006 q 269 998 281 1006 q 238 968 258 990 l 236 968 q 228 972 232 968 q 226 978 225 975 q 346 1074 289 1074 q 414 1058 368 1074 q 453 1048 421 1057 q 518 1039 486 1039 z "},"F":{"ha":713,"x_min":51,"x_max":643,"o":"m 643 681 q 635 676 643 676 q 626 679 628 675 q 572 795 617 756 q 456 835 528 835 l 385 835 q 303 818 325 835 q 282 754 282 801 l 282 451 l 410 451 q 520 476 485 451 q 556 551 556 501 q 564 554 556 554 q 572 551 572 554 l 571 435 q 572 372 571 393 l 574 303 q 565 300 574 300 q 557 303 557 300 q 521 391 557 363 q 406 419 485 419 l 282 419 l 282 118 q 294 53 282 74 q 339 25 306 33 q 444 17 372 17 q 447 8 447 17 q 444 0 447 0 q 356 1 388 0 l 225 3 l 128 1 q 54 0 101 0 q 51 8 51 0 q 54 17 51 17 q 130 24 106 17 q 163 51 154 31 q 171 113 171 71 l 171 756 q 163 817 171 797 q 131 844 154 836 q 60 851 108 851 q 56 860 56 851 q 60 868 56 868 l 626 868 q 640 856 640 868 l 643 681 z "},"G":{"ha":994,"x_min":68,"x_max":944,"o":"m 564 -17 q 300 42 413 -17 q 128 200 188 100 q 68 424 68 300 q 137 663 68 558 q 326 825 206 767 q 596 883 446 883 q 726 871 663 883 q 829 838 789 858 q 843 825 840 831 q 847 806 846 819 l 865 638 q 858 633 865 633 q 849 636 850 632 q 731 794 813 739 q 533 850 649 850 q 281 750 369 850 q 192 475 192 650 q 244 233 192 339 q 390 67 297 126 q 599 7 482 7 q 701 19 665 7 q 754 68 738 32 q 771 175 771 104 q 762 276 771 247 q 723 314 753 304 q 619 324 693 324 q 611 335 611 324 q 613 342 611 339 q 618 346 615 346 q 799 339 729 339 q 938 343 864 339 q 942 340 940 343 q 944 333 944 336 q 938 324 944 324 q 894 315 907 325 q 878 272 882 304 q 875 161 875 240 q 880 72 875 99 q 885 39 885 46 q 881 28 885 31 q 868 22 878 26 q 564 -17 697 -17 z "},"Ğ":{"ha":994,"x_min":68,"x_max":944,"o":"m 564 -17 q 300 42 413 -17 q 128 200 188 100 q 68 424 68 300 q 137 663 68 558 q 326 825 206 767 q 596 883 446 883 q 726 871 663 883 q 829 838 789 858 q 843 825 840 831 q 847 806 846 819 l 865 638 q 858 633 865 633 q 849 636 850 632 q 731 794 813 739 q 533 850 649 850 q 281 750 369 850 q 192 475 192 650 q 244 233 192 339 q 390 67 297 126 q 599 7 482 7 q 701 19 665 7 q 754 68 738 32 q 771 175 771 104 q 762 276 771 247 q 723 314 753 304 q 619 324 693 324 q 611 335 611 324 q 613 342 611 339 q 618 346 615 346 q 799 339 729 339 q 938 343 864 339 q 942 340 940 343 q 944 333 944 336 q 938 324 944 324 q 894 315 907 325 q 878 272 882 304 q 875 161 875 240 q 880 72 875 99 q 885 39 885 46 q 881 28 885 31 q 868 22 878 26 q 564 -17 697 -17 m 547 958 q 448 999 485 958 q 404 1115 411 1040 q 410 1122 403 1121 q 419 1119 418 1122 q 463 1059 426 1085 q 547 1033 500 1033 q 630 1059 593 1033 q 674 1119 667 1085 q 679 1122 674 1122 q 687 1120 683 1122 q 689 1115 690 1118 q 646 999 682 1040 q 547 958 610 958 z "},"Ǧ":{"ha":994,"x_min":68,"x_max":944,"o":"m 564 -17 q 300 42 413 -17 q 128 200 188 100 q 68 424 68 300 q 137 663 68 558 q 326 825 206 767 q 596 883 446 883 q 726 871 663 883 q 829 838 789 858 q 843 825 840 831 q 847 806 846 819 l 865 638 q 858 633 865 633 q 849 636 850 632 q 731 794 813 739 q 533 850 649 850 q 281 750 369 850 q 192 475 192 650 q 244 233 192 339 q 390 67 297 126 q 599 7 482 7 q 701 19 665 7 q 754 68 738 32 q 771 175 771 104 q 762 276 771 247 q 723 314 753 304 q 619 324 693 324 q 611 335 611 324 q 613 342 611 339 q 618 346 615 346 q 799 339 729 339 q 938 343 864 339 q 942 340 940 343 q 944 333 944 336 q 938 324 944 324 q 894 315 907 325 q 878 272 882 304 q 875 161 875 240 q 880 72 875 99 q 885 39 885 46 q 881 28 885 31 q 868 22 878 26 q 564 -17 697 -17 m 388 1097 q 386 1098 386 1097 q 386 1099 386 1099 q 390 1105 386 1101 q 396 1107 393 1108 l 547 1035 l 697 1107 l 699 1107 q 705 1103 703 1107 q 704 1097 707 1100 l 563 954 q 547 949 557 949 q 531 954 536 949 l 388 1097 z "},"Ĝ":{"ha":994,"x_min":68,"x_max":944,"o":"m 564 -17 q 300 42 413 -17 q 128 200 188 100 q 68 424 68 300 q 137 663 68 558 q 326 825 206 767 q 596 883 446 883 q 726 871 663 883 q 829 838 789 858 q 843 825 840 831 q 847 806 846 819 l 865 638 q 858 633 865 633 q 849 636 850 632 q 731 794 813 739 q 533 850 649 850 q 281 750 369 850 q 192 475 192 650 q 244 233 192 339 q 390 67 297 126 q 599 7 482 7 q 701 19 665 7 q 754 68 738 32 q 771 175 771 104 q 762 276 771 247 q 723 314 753 304 q 619 324 693 324 q 611 335 611 324 q 613 342 611 339 q 618 346 615 346 q 799 339 729 339 q 938 343 864 339 q 942 340 940 343 q 944 333 944 336 q 938 324 944 324 q 894 315 907 325 q 878 272 882 304 q 875 161 875 240 q 880 72 875 99 q 885 39 885 46 q 881 28 885 31 q 868 22 878 26 q 564 -17 697 -17 m 532 1110 q 549 1117 539 1117 q 564 1110 557 1117 l 706 965 q 707 963 707 965 q 703 957 707 960 q 699 956 700 954 l 549 1028 l 397 956 q 390 959 394 954 q 389 965 386 964 l 532 1110 z "},"Ģ":{"ha":994,"x_min":68,"x_max":944,"o":"m 564 -17 q 300 42 413 -17 q 128 200 188 100 q 68 424 68 300 q 137 663 68 558 q 326 825 206 767 q 596 883 446 883 q 726 871 663 883 q 829 838 789 858 q 843 825 840 831 q 847 806 846 819 l 865 638 q 858 633 865 633 q 849 636 850 632 q 731 794 813 739 q 533 850 649 850 q 281 750 369 850 q 192 475 192 650 q 244 233 192 339 q 390 67 297 126 q 599 7 482 7 q 701 19 665 7 q 754 68 738 32 q 771 175 771 104 q 762 276 771 247 q 723 314 753 304 q 619 324 693 324 q 611 335 611 324 q 613 342 611 339 q 618 346 615 346 q 799 339 729 339 q 938 343 864 339 q 942 340 940 343 q 944 333 944 336 q 938 324 944 324 q 894 315 907 325 q 878 272 882 304 q 875 161 875 240 q 880 72 875 99 q 885 39 885 46 q 881 28 885 31 q 868 22 878 26 q 564 -17 697 -17 m 572 -111 q 635 -139 613 -111 q 657 -215 657 -167 q 633 -304 657 -264 q 565 -382 610 -344 l 563 -383 q 554 -378 557 -383 q 554 -371 551 -374 q 618 -256 618 -317 q 608 -214 618 -229 q 561 -236 596 -236 q 519 -219 535 -236 q 503 -174 503 -201 q 522 -126 503 -142 q 572 -111 542 -111 z "},"Ġ":{"ha":994,"x_min":68,"x_max":944,"o":"m 564 -17 q 300 42 413 -17 q 128 200 188 100 q 68 424 68 300 q 137 663 68 558 q 326 825 206 767 q 596 883 446 883 q 726 871 663 883 q 829 838 789 858 q 843 825 840 831 q 847 806 846 819 l 865 638 q 858 633 865 633 q 849 636 850 632 q 731 794 813 739 q 533 850 649 850 q 281 750 369 850 q 192 475 192 650 q 244 233 192 339 q 390 67 297 126 q 599 7 482 7 q 701 19 665 7 q 754 68 738 32 q 771 175 771 104 q 762 276 771 247 q 723 314 753 304 q 619 324 693 324 q 611 335 611 324 q 613 342 611 339 q 618 346 615 346 q 799 339 729 339 q 938 343 864 339 q 942 340 940 343 q 944 333 944 336 q 938 324 944 324 q 894 315 907 325 q 878 272 882 304 q 875 161 875 240 q 880 72 875 99 q 885 39 885 46 q 881 28 885 31 q 868 22 878 26 q 564 -17 697 -17 m 547 990 q 497 1008 515 990 q 478 1058 478 1026 q 497 1106 478 1089 q 547 1124 515 1124 q 595 1106 578 1124 q 613 1058 613 1089 q 595 1008 613 1026 q 547 990 578 990 z "},"Ḡ":{"ha":994,"x_min":68,"x_max":944,"o":"m 564 -17 q 300 42 413 -17 q 128 200 188 100 q 68 424 68 300 q 137 663 68 558 q 326 825 206 767 q 596 883 446 883 q 726 871 663 883 q 829 838 789 858 q 843 825 840 831 q 847 806 846 819 l 865 638 q 858 633 865 633 q 849 636 850 632 q 731 794 813 739 q 533 850 649 850 q 281 750 369 850 q 192 475 192 650 q 244 233 192 339 q 390 67 297 126 q 599 7 482 7 q 701 19 665 7 q 754 68 738 32 q 771 175 771 104 q 762 276 771 247 q 723 314 753 304 q 619 324 693 324 q 611 335 611 324 q 613 342 611 339 q 618 346 615 346 q 799 339 729 339 q 938 343 864 339 q 942 340 940 343 q 944 333 944 336 q 938 324 944 324 q 894 315 907 325 q 878 272 882 304 q 875 161 875 240 q 880 72 875 99 q 885 39 885 46 q 881 28 885 31 q 868 22 878 26 q 564 -17 697 -17 m 372 999 q 364 1006 367 999 q 361 1021 361 1013 q 364 1035 361 1029 q 372 1042 367 1042 l 721 1042 q 731 1021 731 1042 q 721 999 731 999 l 372 999 z "},"H":{"ha":1057,"x_min":43,"x_max":1011,"o":"m 1007 17 q 1011 8 1011 17 q 1007 0 1011 0 q 936 1 963 0 l 836 3 l 726 1 q 661 0 703 0 q 657 8 657 0 q 661 17 657 17 q 739 24 714 17 q 772 51 764 31 q 781 113 781 71 l 781 436 l 275 436 l 275 113 q 283 51 275 71 q 317 24 292 31 q 394 17 342 17 q 397 8 397 17 q 394 0 397 0 q 324 1 350 0 l 217 3 l 118 1 q 46 0 92 0 q 43 8 43 0 q 46 17 43 17 q 122 24 97 17 q 155 51 146 31 q 164 113 164 71 l 164 756 q 156 817 164 797 q 124 844 147 836 q 49 851 100 851 q 44 860 44 851 q 49 868 44 868 l 119 867 q 217 864 178 864 q 325 867 261 864 l 394 868 q 397 860 397 868 q 394 851 397 851 q 318 843 343 851 q 284 815 293 835 q 275 753 275 794 l 275 468 l 781 468 l 781 753 q 772 815 781 794 q 738 843 763 835 q 661 851 714 851 q 657 860 657 851 q 661 868 657 868 l 726 867 q 836 864 790 864 q 936 867 875 864 l 1007 868 q 1011 860 1011 868 q 1007 851 1011 851 q 932 844 956 851 q 899 817 908 836 q 890 756 890 797 l 890 113 q 899 51 890 71 q 932 24 908 31 q 1007 17 956 17 z "},"Ħ":{"ha":1057,"x_min":43,"x_max":1011,"o":"m 1007 17 q 1011 8 1011 17 q 1007 0 1011 0 q 936 1 963 0 l 836 3 l 726 1 q 661 0 703 0 q 657 8 657 0 q 661 17 657 17 q 739 24 714 17 q 772 51 764 31 q 781 113 781 71 l 781 306 l 275 306 l 275 113 q 283 51 275 71 q 317 24 292 31 q 394 17 342 17 q 397 8 397 17 q 394 0 397 0 q 324 1 350 0 l 217 3 l 118 1 q 46 0 92 0 q 43 8 43 0 q 46 17 43 17 q 122 24 97 17 q 155 51 146 31 q 164 113 164 71 l 164 756 q 156 817 164 797 q 124 844 147 836 q 49 851 100 851 q 44 860 44 851 q 49 868 44 868 l 119 867 q 217 864 178 864 q 325 867 261 864 l 394 868 q 397 860 397 868 q 394 851 397 851 q 318 843 343 851 q 284 815 293 835 q 275 753 275 794 l 275 597 l 781 597 l 781 753 q 772 815 781 794 q 738 843 763 835 q 661 851 714 851 q 657 860 657 851 q 661 868 657 868 l 726 867 q 836 864 790 864 q 936 867 875 864 l 1007 868 q 1011 860 1011 868 q 1007 851 1011 851 q 932 844 956 851 q 899 817 908 836 q 890 756 890 797 l 890 113 q 899 51 890 71 q 932 24 908 31 q 1007 17 956 17 m 275 338 l 781 338 l 781 565 l 275 565 l 275 338 z "},"Ḫ":{"ha":1057,"x_min":43,"x_max":1011,"o":"m 1007 17 q 1011 8 1011 17 q 1007 0 1011 0 q 936 1 963 0 l 836 3 l 726 1 q 661 0 703 0 q 657 8 657 0 q 661 17 657 17 q 739 24 714 17 q 772 51 764 31 q 781 113 781 71 l 781 436 l 275 436 l 275 113 q 283 51 275 71 q 317 24 292 31 q 394 17 342 17 q 397 8 397 17 q 394 0 397 0 q 324 1 350 0 l 217 3 l 118 1 q 46 0 92 0 q 43 8 43 0 q 46 17 43 17 q 122 24 97 17 q 155 51 146 31 q 164 113 164 71 l 164 756 q 156 817 164 797 q 124 844 147 836 q 49 851 100 851 q 44 860 44 851 q 49 868 44 868 l 119 867 q 217 864 178 864 q 325 867 261 864 l 394 868 q 397 860 397 868 q 394 851 397 851 q 318 843 343 851 q 284 815 293 835 q 275 753 275 794 l 275 468 l 781 468 l 781 753 q 772 815 781 794 q 738 843 763 835 q 661 851 714 851 q 657 860 657 851 q 661 868 657 868 l 726 867 q 836 864 790 864 q 936 867 875 864 l 1007 868 q 1011 860 1011 868 q 1007 851 1011 851 q 932 844 956 851 q 899 817 908 836 q 890 756 890 797 l 890 113 q 899 51 890 71 q 932 24 908 31 q 1007 17 956 17 m 385 -108 q 392 -103 385 -104 q 400 -106 400 -103 q 437 -200 400 -161 q 528 -239 474 -239 q 617 -199 581 -239 q 654 -106 654 -160 q 660 -103 654 -103 q 666 -105 663 -103 q 669 -108 669 -107 q 633 -268 669 -214 q 528 -322 597 -322 q 422 -268 458 -322 q 385 -108 385 -214 z "},"Ĥ":{"ha":1057,"x_min":43,"x_max":1011,"o":"m 1007 17 q 1011 8 1011 17 q 1007 0 1011 0 q 936 1 963 0 l 836 3 l 726 1 q 661 0 703 0 q 657 8 657 0 q 661 17 657 17 q 739 24 714 17 q 772 51 764 31 q 781 113 781 71 l 781 436 l 275 436 l 275 113 q 283 51 275 71 q 317 24 292 31 q 394 17 342 17 q 397 8 397 17 q 394 0 397 0 q 324 1 350 0 l 217 3 l 118 1 q 46 0 92 0 q 43 8 43 0 q 46 17 43 17 q 122 24 97 17 q 155 51 146 31 q 164 113 164 71 l 164 756 q 156 817 164 797 q 124 844 147 836 q 49 851 100 851 q 44 860 44 851 q 49 868 44 868 l 119 867 q 217 864 178 864 q 325 867 261 864 l 394 868 q 397 860 397 868 q 394 851 397 851 q 318 843 343 851 q 284 815 293 835 q 275 753 275 794 l 275 468 l 781 468 l 781 753 q 772 815 781 794 q 738 843 763 835 q 661 851 714 851 q 657 860 657 851 q 661 868 657 868 l 726 867 q 836 864 790 864 q 936 867 875 864 l 1007 868 q 1011 860 1011 868 q 1007 851 1011 851 q 932 844 956 851 q 899 817 908 836 q 890 756 890 797 l 890 113 q 899 51 890 71 q 932 24 908 31 q 1007 17 956 17 m 515 1110 q 532 1117 522 1117 q 547 1110 540 1117 l 689 965 q 690 963 690 965 q 687 957 690 960 q 682 956 683 954 l 532 1028 l 381 956 q 374 959 378 954 q 372 965 369 964 l 515 1110 z "},"Ḥ":{"ha":1057,"x_min":43,"x_max":1011,"o":"m 1007 17 q 1011 8 1011 17 q 1007 0 1011 0 q 936 1 963 0 l 836 3 l 726 1 q 661 0 703 0 q 657 8 657 0 q 661 17 657 17 q 739 24 714 17 q 772 51 764 31 q 781 113 781 71 l 781 436 l 275 436 l 275 113 q 283 51 275 71 q 317 24 292 31 q 394 17 342 17 q 397 8 397 17 q 394 0 397 0 q 324 1 350 0 l 217 3 l 118 1 q 46 0 92 0 q 43 8 43 0 q 46 17 43 17 q 122 24 97 17 q 155 51 146 31 q 164 113 164 71 l 164 756 q 156 817 164 797 q 124 844 147 836 q 49 851 100 851 q 44 860 44 851 q 49 868 44 868 l 119 867 q 217 864 178 864 q 325 867 261 864 l 394 868 q 397 860 397 868 q 394 851 397 851 q 318 843 343 851 q 284 815 293 835 q 275 753 275 794 l 275 468 l 781 468 l 781 753 q 772 815 781 794 q 738 843 763 835 q 661 851 714 851 q 657 860 657 851 q 661 868 657 868 l 726 867 q 836 864 790 864 q 936 867 875 864 l 1007 868 q 1011 860 1011 868 q 1007 851 1011 851 q 932 844 956 851 q 899 817 908 836 q 890 756 890 797 l 890 113 q 899 51 890 71 q 932 24 908 31 q 1007 17 956 17 m 529 -272 q 478 -254 497 -272 q 460 -204 460 -236 q 478 -156 460 -174 q 529 -139 497 -139 q 577 -156 560 -139 q 594 -204 594 -174 q 577 -254 594 -236 q 529 -272 560 -272 z "},"I":{"ha":465,"x_min":60,"x_max":404,"o":"m 289 113 q 297 51 289 71 q 328 24 306 31 q 401 17 351 17 q 404 8 404 17 q 401 0 404 0 q 332 1 357 0 l 232 3 l 135 1 q 63 0 108 0 q 60 8 60 0 q 63 17 60 17 q 136 24 113 17 q 168 51 160 31 q 176 113 176 71 l 176 756 q 168 817 176 797 q 136 844 160 836 q 63 851 113 851 q 60 860 60 851 q 63 868 60 868 l 135 867 q 232 864 196 864 q 333 867 272 864 l 401 868 q 404 860 404 868 q 401 851 404 851 q 329 843 353 851 q 297 815 306 835 q 289 753 289 794 l 289 113 z "},"Ĳ":{"ha":963,"x_min":53,"x_max":921,"o":"m 282 486 q 290 424 282 443 q 320 397 297 404 q 394 390 343 390 q 399 382 399 390 q 394 374 399 374 q 325 375 350 374 l 225 376 l 128 375 q 56 374 101 374 q 53 382 53 374 q 56 390 53 390 q 129 397 106 390 q 161 424 153 404 q 169 486 169 444 l 169 756 q 161 817 169 797 q 129 844 153 836 q 56 851 106 851 q 53 860 53 851 q 56 868 53 868 l 128 867 q 225 864 189 864 q 328 867 267 864 l 394 868 q 399 860 399 868 q 394 851 399 851 q 322 843 346 851 q 290 815 299 835 q 282 753 282 794 l 282 486 m 918 868 q 921 860 921 868 q 918 851 921 851 q 855 843 875 851 q 828 815 835 835 q 821 753 821 794 l 821 358 q 778 154 821 239 q 657 26 735 69 q 476 -18 579 -18 q 315 13 388 -18 q 199 90 242 43 q 157 185 157 138 q 173 228 157 211 q 217 246 189 246 q 265 224 251 246 q 290 157 279 203 q 315 79 300 110 q 367 27 329 49 q 474 6 404 6 q 710 278 710 6 l 710 756 q 700 817 710 797 q 663 844 690 836 q 579 851 636 851 q 576 860 576 851 q 579 868 576 868 l 661 867 q 764 864 725 864 q 856 867 800 864 l 918 868 z "},"Í":{"ha":465,"x_min":60,"x_max":411,"o":"m 289 113 q 297 51 289 71 q 328 24 306 31 q 401 17 351 17 q 404 8 404 17 q 401 0 404 0 q 332 1 357 0 l 232 3 l 135 1 q 63 0 108 0 q 60 8 60 0 q 63 17 60 17 q 136 24 113 17 q 168 51 160 31 q 176 113 176 71 l 176 756 q 168 817 176 797 q 136 844 160 836 q 63 851 113 851 q 60 860 60 851 q 63 868 60 868 l 135 867 q 232 864 196 864 q 333 867 272 864 l 401 868 q 404 860 404 868 q 401 851 404 851 q 329 843 353 851 q 297 815 306 835 q 289 753 289 794 l 289 113 m 96 942 q 89 948 90 942 q 92 957 88 954 q 235 1049 142 985 q 301 1093 279 1079 q 340 1088 308 1097 q 395 1065 371 1078 q 407 1050 419 1053 q 249 1003 321 1029 q 99 943 178 978 l 96 942 z "},"Ĭ":{"ha":465,"x_min":60,"x_max":404,"o":"m 289 113 q 297 51 289 71 q 328 24 306 31 q 401 17 351 17 q 404 8 404 17 q 401 0 404 0 q 332 1 357 0 l 232 3 l 135 1 q 63 0 108 0 q 60 8 60 0 q 63 17 60 17 q 136 24 113 17 q 168 51 160 31 q 176 113 176 71 l 176 756 q 168 817 176 797 q 136 844 160 836 q 63 851 113 851 q 60 860 60 851 q 63 868 60 868 l 135 867 q 232 864 196 864 q 333 867 272 864 l 401 868 q 404 860 404 868 q 401 851 404 851 q 329 843 353 851 q 297 815 306 835 q 289 753 289 794 l 289 113 m 233 958 q 134 999 171 958 q 90 1115 97 1040 q 97 1122 89 1121 q 106 1119 104 1122 q 149 1059 113 1085 q 233 1033 186 1033 q 316 1059 279 1033 q 360 1119 353 1085 q 365 1122 360 1122 q 373 1120 369 1122 q 375 1115 376 1118 q 332 999 368 1040 q 233 958 296 958 z "},"Ǐ":{"ha":465,"x_min":60,"x_max":404,"o":"m 289 113 q 297 51 289 71 q 328 24 306 31 q 401 17 351 17 q 404 8 404 17 q 401 0 404 0 q 332 1 357 0 l 232 3 l 135 1 q 63 0 108 0 q 60 8 60 0 q 63 17 60 17 q 136 24 113 17 q 168 51 160 31 q 176 113 176 71 l 176 756 q 168 817 176 797 q 136 844 160 836 q 63 851 113 851 q 60 860 60 851 q 63 868 60 868 l 135 867 q 232 864 196 864 q 333 867 272 864 l 401 868 q 404 860 404 868 q 401 851 404 851 q 329 843 353 851 q 297 815 306 835 q 289 753 289 794 l 289 113 m 74 1097 q 72 1098 72 1097 q 72 1099 72 1099 q 76 1105 72 1101 q 82 1107 79 1108 l 233 1035 l 383 1107 l 385 1107 q 391 1103 389 1107 q 390 1097 393 1100 l 249 954 q 233 949 243 949 q 217 954 222 949 l 74 1097 z "},"Î":{"ha":465,"x_min":60,"x_max":404,"o":"m 289 113 q 297 51 289 71 q 328 24 306 31 q 401 17 351 17 q 404 8 404 17 q 401 0 404 0 q 332 1 357 0 l 232 3 l 135 1 q 63 0 108 0 q 60 8 60 0 q 63 17 60 17 q 136 24 113 17 q 168 51 160 31 q 176 113 176 71 l 176 756 q 168 817 176 797 q 136 844 160 836 q 63 851 113 851 q 60 860 60 851 q 63 868 60 868 l 135 867 q 232 864 196 864 q 333 867 272 864 l 401 868 q 404 860 404 868 q 401 851 404 851 q 329 843 353 851 q 297 815 306 835 q 289 753 289 794 l 289 113 m 218 1110 q 235 1117 225 1117 q 250 1110 243 1117 l 392 965 q 393 963 393 965 q 390 957 393 960 q 385 956 386 954 l 235 1028 l 83 956 q 76 959 81 954 q 75 965 72 964 l 218 1110 z "},"Ï":{"ha":465,"x_min":60,"x_max":404,"o":"m 289 113 q 297 51 289 71 q 328 24 306 31 q 401 17 351 17 q 404 8 404 17 q 401 0 404 0 q 332 1 357 0 l 232 3 l 135 1 q 63 0 108 0 q 60 8 60 0 q 63 17 60 17 q 136 24 113 17 q 168 51 160 31 q 176 113 176 71 l 176 756 q 168 817 176 797 q 136 844 160 836 q 63 851 113 851 q 60 860 60 851 q 63 868 60 868 l 135 867 q 232 864 196 864 q 333 867 272 864 l 401 868 q 404 860 404 868 q 401 851 404 851 q 329 843 353 851 q 297 815 306 835 q 289 753 289 794 l 289 113 m 132 989 q 85 1006 103 989 q 67 1053 67 1024 q 85 1098 67 1082 q 132 1114 103 1114 q 179 1098 163 1114 q 196 1053 196 1082 q 179 1006 196 1022 q 132 989 163 989 m 335 989 q 288 1006 306 989 q 271 1053 271 1022 q 288 1098 271 1082 q 335 1114 306 1114 q 381 1098 364 1114 q 397 1053 397 1082 q 381 1006 397 1022 q 335 989 364 989 z "},"İ":{"ha":465,"x_min":60,"x_max":404,"o":"m 289 113 q 297 51 289 71 q 328 24 306 31 q 401 17 351 17 q 404 8 404 17 q 401 0 404 0 q 332 1 357 0 l 232 3 l 135 1 q 63 0 108 0 q 60 8 60 0 q 63 17 60 17 q 136 24 113 17 q 168 51 160 31 q 176 113 176 71 l 176 756 q 168 817 176 797 q 136 844 160 836 q 63 851 113 851 q 60 860 60 851 q 63 868 60 868 l 135 867 q 232 864 196 864 q 333 867 272 864 l 401 868 q 404 860 404 868 q 401 851 404 851 q 329 843 353 851 q 297 815 306 835 q 289 753 289 794 l 289 113 m 233 990 q 183 1008 201 990 q 164 1058 164 1026 q 183 1106 164 1089 q 233 1124 201 1124 q 281 1106 264 1124 q 299 1058 299 1089 q 281 1008 299 1026 q 233 990 264 990 z "},"Ị":{"ha":465,"x_min":60,"x_max":404,"o":"m 289 113 q 297 51 289 71 q 328 24 306 31 q 401 17 351 17 q 404 8 404 17 q 401 0 404 0 q 332 1 357 0 l 232 3 l 135 1 q 63 0 108 0 q 60 8 60 0 q 63 17 60 17 q 136 24 113 17 q 168 51 160 31 q 176 113 176 71 l 176 756 q 168 817 176 797 q 136 844 160 836 q 63 851 113 851 q 60 860 60 851 q 63 868 60 868 l 135 867 q 232 864 196 864 q 333 867 272 864 l 401 868 q 404 860 404 868 q 401 851 404 851 q 329 843 353 851 q 297 815 306 835 q 289 753 289 794 l 289 113 m 235 -272 q 184 -254 203 -272 q 165 -204 165 -236 q 184 -156 165 -174 q 235 -139 203 -139 q 283 -156 265 -139 q 300 -204 300 -174 q 283 -254 300 -236 q 235 -272 265 -272 z "},"Ì":{"ha":465,"x_min":58,"x_max":404,"o":"m 289 113 q 297 51 289 71 q 328 24 306 31 q 401 17 351 17 q 404 8 404 17 q 401 0 404 0 q 332 1 357 0 l 232 3 l 135 1 q 63 0 108 0 q 60 8 60 0 q 63 17 60 17 q 136 24 113 17 q 168 51 160 31 q 176 113 176 71 l 176 756 q 168 817 176 797 q 136 844 160 836 q 63 851 113 851 q 60 860 60 851 q 63 868 60 868 l 135 867 q 232 864 196 864 q 333 867 272 864 l 401 868 q 404 860 404 868 q 401 851 404 851 q 329 843 353 851 q 297 815 306 835 q 289 753 289 794 l 289 113 m 371 943 q 63 1050 215 1013 q 74 1065 50 1053 q 130 1088 97 1078 q 168 1093 163 1097 q 239 1046 215 1063 q 376 957 331 983 q 381 951 381 956 q 378 944 381 947 q 371 943 375 942 z "},"Ỉ":{"ha":465,"x_min":60,"x_max":404,"o":"m 289 113 q 297 51 289 71 q 328 24 306 31 q 401 17 351 17 q 404 8 404 17 q 401 0 404 0 q 332 1 357 0 l 232 3 l 135 1 q 63 0 108 0 q 60 8 60 0 q 63 17 60 17 q 136 24 113 17 q 168 51 160 31 q 176 113 176 71 l 176 756 q 168 817 176 797 q 136 844 160 836 q 63 851 113 851 q 60 860 60 851 q 63 868 60 868 l 135 867 q 232 864 196 864 q 333 867 272 864 l 401 868 q 404 860 404 868 q 401 851 404 851 q 329 843 353 851 q 297 815 306 835 q 289 753 289 794 l 289 113 m 236 904 q 230 901 238 901 q 221 904 222 901 q 217 935 217 921 q 224 974 217 956 q 243 1017 231 993 q 262 1054 256 1039 q 268 1088 268 1069 q 253 1128 268 1114 q 215 1142 239 1142 q 172 1131 200 1142 l 171 1131 q 163 1135 167 1131 q 163 1142 158 1139 q 261 1174 207 1174 q 328 1153 303 1174 q 353 1101 353 1133 q 338 1053 353 1075 q 292 1000 322 1032 q 247 949 261 971 q 236 904 232 928 z "},"Ī":{"ha":465,"x_min":49,"x_max":418,"o":"m 289 113 q 297 51 289 71 q 328 24 306 31 q 401 17 351 17 q 404 8 404 17 q 401 0 404 0 q 332 1 357 0 l 232 3 l 135 1 q 63 0 108 0 q 60 8 60 0 q 63 17 60 17 q 136 24 113 17 q 168 51 160 31 q 176 113 176 71 l 176 756 q 168 817 176 797 q 136 844 160 836 q 63 851 113 851 q 60 860 60 851 q 63 868 60 868 l 135 867 q 232 864 196 864 q 333 867 272 864 l 401 868 q 404 860 404 868 q 401 851 404 851 q 329 843 353 851 q 297 815 306 835 q 289 753 289 794 l 289 113 m 58 999 q 49 1021 49 999 q 58 1042 49 1042 l 407 1042 q 415 1035 413 1042 q 418 1021 418 1029 q 415 1006 418 1013 q 407 999 413 999 l 58 999 z "},"Į":{"ha":465,"x_min":60,"x_max":404,"o":"m 401 17 q 404 8 404 17 q 401 0 404 0 q 336 1 360 0 l 246 3 q 190 -171 190 -79 q 223 -287 190 -242 q 307 -332 256 -332 q 341 -326 328 -332 q 371 -308 354 -321 l 372 -308 q 380 -312 376 -308 q 381 -319 383 -317 q 315 -367 346 -353 q 244 -382 283 -382 q 139 -344 176 -382 q 101 -242 101 -307 q 222 3 101 -121 l 131 1 q 63 0 106 0 q 60 8 60 0 q 63 17 60 17 q 136 24 113 17 q 168 51 160 31 q 176 113 176 71 l 176 756 q 168 817 176 797 q 136 844 160 836 q 63 851 113 851 q 60 860 60 851 q 63 868 60 868 l 135 867 q 232 864 196 864 q 333 867 272 864 l 401 868 q 404 860 404 868 q 401 851 404 851 q 329 843 353 851 q 297 815 306 835 q 289 753 289 794 l 289 113 q 297 51 289 71 q 328 24 306 31 q 401 17 351 17 z "},"Ĩ":{"ha":465,"x_min":49,"x_max":421,"o":"m 289 113 q 297 51 289 71 q 328 24 306 31 q 401 17 351 17 q 404 8 404 17 q 401 0 404 0 q 332 1 357 0 l 232 3 l 135 1 q 63 0 108 0 q 60 8 60 0 q 63 17 60 17 q 136 24 113 17 q 168 51 160 31 q 176 113 176 71 l 176 756 q 168 817 176 797 q 136 844 160 836 q 63 851 113 851 q 60 860 60 851 q 63 868 60 868 l 135 867 q 232 864 196 864 q 333 867 272 864 l 401 868 q 404 860 404 868 q 401 851 404 851 q 329 843 353 851 q 297 815 306 835 q 289 753 289 794 l 289 113 m 58 968 q 51 972 54 968 q 50 978 47 975 q 103 1044 72 1015 q 169 1074 135 1074 q 238 1058 192 1074 q 277 1048 244 1057 q 340 1039 310 1039 q 378 1048 364 1039 q 410 1076 393 1057 l 413 1076 q 419 1073 417 1076 q 419 1067 422 1069 q 360 991 383 1010 q 308 972 336 972 q 258 979 285 972 q 225 988 231 986 q 129 1006 168 1006 q 92 998 103 1006 q 60 968 81 990 l 58 968 z "},"J":{"ha":456,"x_min":-68,"x_max":400,"o":"m 397 868 q 400 860 400 868 q 397 851 400 851 q 335 843 354 851 q 308 815 315 835 q 301 753 301 794 l 301 -28 q 233 -255 301 -172 q 39 -337 165 -337 q -39 -319 -10 -337 q -68 -271 -68 -301 q -54 -232 -68 -247 q -14 -217 -40 -217 q 28 -230 14 -217 q 57 -269 43 -243 q 78 -301 69 -292 q 103 -310 88 -310 q 167 -256 146 -310 q 189 -79 189 -201 l 189 756 q 179 817 189 797 q 142 844 169 836 q 58 851 115 851 q 56 860 56 851 q 58 868 56 868 l 140 867 q 243 864 204 864 q 335 867 279 864 l 397 868 z "},"Ĵ":{"ha":456,"x_min":-68,"x_max":400,"o":"m 397 868 q 400 860 400 868 q 397 851 400 851 q 335 843 354 851 q 308 815 315 835 q 301 753 301 794 l 301 -28 q 233 -255 301 -172 q 39 -337 165 -337 q -39 -319 -10 -337 q -68 -271 -68 -301 q -54 -232 -68 -247 q -14 -217 -40 -217 q 28 -230 14 -217 q 57 -269 43 -243 q 78 -301 69 -292 q 103 -310 88 -310 q 167 -256 146 -310 q 189 -79 189 -201 l 189 756 q 179 817 189 797 q 142 844 169 836 q 58 851 115 851 q 56 860 56 851 q 58 868 56 868 l 140 867 q 243 864 204 864 q 335 867 279 864 l 397 868 m 217 1118 q 233 1125 224 1125 q 249 1118 242 1125 l 390 974 q 392 971 392 974 q 388 965 392 968 q 383 964 385 963 l 233 1036 l 82 964 q 75 967 79 963 q 74 974 71 972 l 217 1118 z "},"K":{"ha":906,"x_min":43,"x_max":904,"o":"m 900 17 q 904 8 904 17 q 900 0 904 0 l 744 0 l 701 -1 q 672 4 682 -1 q 648 25 661 10 q 604 82 635 40 q 571 126 592 97 q 514 201 550 154 l 313 463 l 271 422 l 271 113 q 279 51 271 71 q 310 24 288 31 q 383 17 333 17 q 388 8 388 17 q 383 0 388 0 q 314 1 339 0 l 215 3 l 118 1 q 46 0 92 0 q 43 8 43 0 q 46 17 43 17 q 119 24 96 17 q 151 51 143 31 q 160 113 160 71 l 160 756 q 151 817 160 797 q 120 844 143 836 q 49 851 97 851 q 44 860 44 851 q 49 868 44 868 l 118 867 q 215 864 179 864 q 315 867 254 864 l 383 868 q 386 860 386 868 q 383 851 386 851 q 311 843 335 851 q 279 815 288 835 q 271 753 271 794 l 271 458 l 556 746 q 600 815 600 790 q 518 851 600 851 q 514 860 514 851 q 518 868 514 868 l 579 867 q 685 864 635 864 q 788 867 735 864 l 843 868 q 847 860 847 868 q 843 851 847 851 q 715 823 783 851 q 590 738 647 794 l 390 539 l 592 276 q 741 92 690 146 q 820 28 792 39 q 900 17 849 17 z "},"Ḱ":{"ha":906,"x_min":43,"x_max":904,"o":"m 900 17 q 904 8 904 17 q 900 0 904 0 l 744 0 l 701 -1 q 672 4 682 -1 q 648 25 661 10 q 604 82 635 40 q 571 126 592 97 q 514 201 550 154 l 313 463 l 271 422 l 271 113 q 279 51 271 71 q 310 24 288 31 q 383 17 333 17 q 388 8 388 17 q 383 0 388 0 q 314 1 339 0 l 215 3 l 118 1 q 46 0 92 0 q 43 8 43 0 q 46 17 43 17 q 119 24 96 17 q 151 51 143 31 q 160 113 160 71 l 160 756 q 151 817 160 797 q 120 844 143 836 q 49 851 97 851 q 44 860 44 851 q 49 868 44 868 l 118 867 q 215 864 179 864 q 315 867 254 864 l 383 868 q 386 860 386 868 q 383 851 386 851 q 311 843 335 851 q 279 815 288 835 q 271 753 271 794 l 271 458 l 556 746 q 600 815 600 790 q 518 851 600 851 q 514 860 514 851 q 518 868 514 868 l 579 867 q 685 864 635 864 q 788 867 735 864 l 843 868 q 847 860 847 868 q 843 851 847 851 q 715 823 783 851 q 590 738 647 794 l 390 539 l 592 276 q 741 92 690 146 q 820 28 792 39 q 900 17 849 17 m 318 942 q 311 948 313 942 q 314 957 310 954 q 457 1049 364 985 q 524 1093 501 1079 q 562 1088 531 1097 q 617 1065 593 1078 q 629 1050 642 1053 q 472 1003 543 1029 q 321 943 400 978 l 318 942 z "},"Ǩ":{"ha":906,"x_min":43,"x_max":904,"o":"m 900 17 q 904 8 904 17 q 900 0 904 0 l 744 0 l 701 -1 q 672 4 682 -1 q 648 25 661 10 q 604 82 635 40 q 571 126 592 97 q 514 201 550 154 l 313 463 l 271 422 l 271 113 q 279 51 271 71 q 310 24 288 31 q 383 17 333 17 q 388 8 388 17 q 383 0 388 0 q 314 1 339 0 l 215 3 l 118 1 q 46 0 92 0 q 43 8 43 0 q 46 17 43 17 q 119 24 96 17 q 151 51 143 31 q 160 113 160 71 l 160 756 q 151 817 160 797 q 120 844 143 836 q 49 851 97 851 q 44 860 44 851 q 49 868 44 868 l 118 867 q 215 864 179 864 q 315 867 254 864 l 383 868 q 386 860 386 868 q 383 851 386 851 q 311 843 335 851 q 279 815 288 835 q 271 753 271 794 l 271 458 l 556 746 q 600 815 600 790 q 518 851 600 851 q 514 860 514 851 q 518 868 514 868 l 579 867 q 685 864 635 864 q 788 867 735 864 l 843 868 q 847 860 847 868 q 843 851 847 851 q 715 823 783 851 q 590 738 647 794 l 390 539 l 592 276 q 741 92 690 146 q 820 28 792 39 q 900 17 849 17 m 296 1097 q 294 1098 294 1097 q 294 1099 294 1099 q 298 1105 294 1101 q 304 1107 301 1108 l 456 1035 l 606 1107 l 607 1107 q 613 1103 611 1107 q 613 1097 615 1100 l 471 954 q 456 949 465 949 q 439 954 444 949 l 296 1097 z "},"Ķ":{"ha":906,"x_min":43,"x_max":904,"o":"m 900 17 q 904 8 904 17 q 900 0 904 0 l 744 0 l 701 -1 q 672 4 682 -1 q 648 25 661 10 q 604 82 635 40 q 571 126 592 97 q 514 201 550 154 l 313 463 l 271 422 l 271 113 q 279 51 271 71 q 310 24 288 31 q 383 17 333 17 q 388 8 388 17 q 383 0 388 0 q 314 1 339 0 l 215 3 l 118 1 q 46 0 92 0 q 43 8 43 0 q 46 17 43 17 q 119 24 96 17 q 151 51 143 31 q 160 113 160 71 l 160 756 q 151 817 160 797 q 120 844 143 836 q 49 851 97 851 q 44 860 44 851 q 49 868 44 868 l 118 867 q 215 864 179 864 q 315 867 254 864 l 383 868 q 386 860 386 868 q 383 851 386 851 q 311 843 335 851 q 279 815 288 835 q 271 753 271 794 l 271 458 l 556 746 q 600 815 600 790 q 518 851 600 851 q 514 860 514 851 q 518 868 514 868 l 579 867 q 685 864 635 864 q 788 867 735 864 l 843 868 q 847 860 847 868 q 843 851 847 851 q 715 823 783 851 q 590 738 647 794 l 390 539 l 592 276 q 741 92 690 146 q 820 28 792 39 q 900 17 849 17 m 472 -111 q 535 -139 513 -111 q 557 -215 557 -167 q 533 -304 557 -264 q 465 -382 510 -344 l 463 -383 q 454 -378 457 -383 q 454 -371 451 -374 q 518 -256 518 -317 q 508 -214 518 -229 q 461 -236 496 -236 q 419 -219 435 -236 q 403 -174 403 -201 q 422 -126 403 -142 q 472 -111 442 -111 z "},"L":{"ha":746,"x_min":43,"x_max":726,"o":"m 269 118 q 277 62 269 79 q 306 38 285 44 q 371 32 326 32 l 489 32 q 634 84 576 32 q 711 225 692 136 q 719 228 711 229 q 726 224 726 228 q 714 21 714 101 q 709 5 714 10 q 693 0 704 0 l 46 0 q 43 8 43 0 q 46 17 43 17 q 119 24 96 17 q 150 51 142 31 q 158 113 158 71 l 158 756 q 150 817 158 797 q 119 844 142 836 q 46 851 96 851 q 43 860 43 851 q 46 868 43 868 l 115 867 q 214 864 176 864 q 313 867 251 864 l 382 868 q 385 860 385 868 q 382 851 385 851 q 310 844 333 851 q 278 816 286 836 q 269 754 269 796 l 269 118 z "},"Ĺ":{"ha":746,"x_min":43,"x_max":726,"o":"m 269 118 q 277 62 269 79 q 306 38 285 44 q 371 32 326 32 l 489 32 q 634 84 576 32 q 711 225 692 136 q 719 228 711 229 q 726 224 726 228 q 714 21 714 101 q 709 5 714 10 q 693 0 704 0 l 46 0 q 43 8 43 0 q 46 17 43 17 q 119 24 96 17 q 150 51 142 31 q 158 113 158 71 l 158 756 q 150 817 158 797 q 119 844 142 836 q 46 851 96 851 q 43 860 43 851 q 46 868 43 868 l 115 867 q 214 864 176 864 q 313 867 251 864 l 382 868 q 385 860 385 868 q 382 851 385 851 q 310 844 333 851 q 278 816 286 836 q 269 754 269 796 l 269 118 m 85 942 q 78 948 79 942 q 81 957 76 954 q 224 1049 131 985 q 290 1093 268 1079 q 328 1088 297 1097 q 384 1065 360 1078 q 396 1050 408 1053 q 238 1003 310 1029 q 88 943 167 978 l 85 942 z "},"Ľ":{"ha":746,"x_min":43,"x_max":726,"o":"m 269 118 q 277 62 269 79 q 306 38 285 44 q 371 32 326 32 l 489 32 q 634 84 576 32 q 711 225 692 136 q 719 228 711 229 q 726 224 726 228 q 714 21 714 101 q 709 5 714 10 q 693 0 704 0 l 46 0 q 43 8 43 0 q 46 17 43 17 q 119 24 96 17 q 150 51 142 31 q 158 113 158 71 l 158 756 q 150 817 158 797 q 119 844 142 836 q 46 851 96 851 q 43 860 43 851 q 46 868 43 868 l 115 867 q 214 864 176 864 q 313 867 251 864 l 382 868 q 385 860 385 868 q 382 851 385 851 q 310 844 333 851 q 278 816 286 836 q 269 754 269 796 l 269 118 m 490 868 q 512 867 490 875 q 554 845 533 858 q 574 824 575 832 l 517 489 q 508 487 515 486 q 501 490 501 488 l 490 868 z "},"Ļ":{"ha":746,"x_min":43,"x_max":726,"o":"m 269 118 q 277 62 269 79 q 306 38 285 44 q 371 32 326 32 l 489 32 q 634 84 576 32 q 711 225 692 136 q 719 228 711 229 q 726 224 726 228 q 714 21 714 101 q 709 5 714 10 q 693 0 704 0 l 46 0 q 43 8 43 0 q 46 17 43 17 q 119 24 96 17 q 150 51 142 31 q 158 113 158 71 l 158 756 q 150 817 158 797 q 119 844 142 836 q 46 851 96 851 q 43 860 43 851 q 46 868 43 868 l 115 867 q 214 864 176 864 q 313 867 251 864 l 382 868 q 385 860 385 868 q 382 851 385 851 q 310 844 333 851 q 278 816 286 836 q 269 754 269 796 l 269 118 m 401 -111 q 464 -139 442 -111 q 486 -215 486 -167 q 463 -304 486 -264 q 394 -382 439 -344 l 392 -383 q 383 -378 386 -383 q 383 -371 381 -374 q 447 -256 447 -317 q 438 -214 447 -229 q 390 -236 425 -236 q 348 -219 364 -236 q 332 -174 332 -201 q 351 -126 332 -142 q 401 -111 371 -111 z "},"Ŀ":{"ha":746,"x_min":43,"x_max":726,"o":"m 269 118 q 277 62 269 79 q 306 38 285 44 q 371 32 326 32 l 489 32 q 634 84 576 32 q 711 225 692 136 q 719 228 711 229 q 726 224 726 228 q 714 21 714 101 q 709 5 714 10 q 693 0 704 0 l 46 0 q 43 8 43 0 q 46 17 43 17 q 119 24 96 17 q 150 51 142 31 q 158 113 158 71 l 158 756 q 150 817 158 797 q 119 844 142 836 q 46 851 96 851 q 43 860 43 851 q 46 868 43 868 l 115 867 q 214 864 176 864 q 313 867 251 864 l 382 868 q 385 860 385 868 q 382 851 385 851 q 310 844 333 851 q 278 816 286 836 q 269 754 269 796 l 269 118 m 594 376 q 545 395 564 376 q 526 444 526 414 q 544 492 526 475 q 594 510 563 510 q 644 492 626 510 q 661 444 661 475 q 644 394 661 413 q 594 376 626 376 z "},"Ḷ":{"ha":746,"x_min":43,"x_max":726,"o":"m 269 118 q 277 62 269 79 q 306 38 285 44 q 371 32 326 32 l 489 32 q 634 84 576 32 q 711 225 692 136 q 719 228 711 229 q 726 224 726 228 q 714 21 714 101 q 709 5 714 10 q 693 0 704 0 l 46 0 q 43 8 43 0 q 46 17 43 17 q 119 24 96 17 q 150 51 142 31 q 158 113 158 71 l 158 756 q 150 817 158 797 q 119 844 142 836 q 46 851 96 851 q 43 860 43 851 q 46 868 43 868 l 115 867 q 214 864 176 864 q 313 867 251 864 l 382 868 q 385 860 385 868 q 382 851 385 851 q 310 844 333 851 q 278 816 286 836 q 269 754 269 796 l 269 118 m 411 -272 q 360 -254 379 -272 q 342 -204 342 -236 q 360 -156 342 -174 q 411 -139 379 -139 q 459 -156 442 -139 q 476 -204 476 -174 q 459 -254 476 -236 q 411 -272 442 -272 z "},"Ḹ":{"ha":746,"x_min":38,"x_max":726,"o":"m 269 118 q 277 62 269 79 q 306 38 285 44 q 371 32 326 32 l 489 32 q 634 84 576 32 q 711 225 692 136 q 719 228 711 229 q 726 224 726 228 q 714 21 714 101 q 709 5 714 10 q 693 0 704 0 l 46 0 q 43 8 43 0 q 46 17 43 17 q 119 24 96 17 q 150 51 142 31 q 158 113 158 71 l 158 756 q 150 817 158 797 q 119 844 142 836 q 46 851 96 851 q 43 860 43 851 q 46 868 43 868 l 115 867 q 214 864 176 864 q 313 867 251 864 l 382 868 q 385 860 385 868 q 382 851 385 851 q 310 844 333 851 q 278 816 286 836 q 269 754 269 796 l 269 118 m 411 -272 q 360 -254 379 -272 q 342 -204 342 -236 q 360 -156 342 -174 q 411 -139 379 -139 q 459 -156 442 -139 q 476 -204 476 -174 q 459 -254 476 -236 q 411 -272 442 -272 m 47 999 q 39 1006 42 999 q 36 1021 36 1013 q 39 1035 36 1029 q 47 1042 42 1042 l 396 1042 q 406 1021 406 1042 q 396 999 406 999 l 47 999 z "},"Ḻ":{"ha":746,"x_min":43,"x_max":726,"o":"m 269 118 q 277 62 269 79 q 306 38 285 44 q 371 32 326 32 l 489 32 q 634 84 576 32 q 711 225 692 136 q 719 228 711 229 q 726 224 726 228 q 714 21 714 101 q 709 5 714 10 q 693 0 704 0 l 46 0 q 43 8 43 0 q 46 17 43 17 q 119 24 96 17 q 150 51 142 31 q 158 113 158 71 l 158 756 q 150 817 158 797 q 119 844 142 836 q 46 851 96 851 q 43 860 43 851 q 46 868 43 868 l 115 867 q 214 864 176 864 q 313 867 251 864 l 382 868 q 385 860 385 868 q 382 851 385 851 q 310 844 333 851 q 278 816 286 836 q 269 754 269 796 l 269 118 m 235 -161 q 226 -155 229 -161 q 224 -140 224 -149 q 226 -125 224 -132 q 235 -118 229 -118 l 583 -118 q 593 -140 593 -118 q 583 -161 593 -161 l 235 -161 z "},"Ł":{"ha":736,"x_min":43,"x_max":726,"o":"m 711 225 q 719 228 711 229 q 726 224 726 228 q 714 21 714 101 q 709 5 714 10 q 693 0 704 0 l 46 0 q 43 8 43 0 q 46 17 43 17 q 119 24 96 17 q 150 51 142 31 q 158 113 158 71 l 158 358 l 88 318 l 86 318 q 72 331 79 318 q 71 346 65 343 l 158 396 l 158 756 q 150 817 158 797 q 119 844 142 836 q 46 851 96 851 q 43 860 43 851 q 46 868 43 868 l 115 867 q 214 864 176 864 q 313 867 251 864 l 382 868 q 385 860 385 868 q 382 851 385 851 q 310 844 333 851 q 278 816 286 836 q 269 754 269 796 l 269 460 l 419 546 l 421 546 q 433 533 426 546 q 435 518 440 521 l 269 422 l 269 118 q 277 62 269 79 q 306 38 285 44 q 371 32 326 32 l 489 32 q 634 84 576 32 q 711 225 692 136 z "},"M":{"ha":1169,"x_min":46,"x_max":1140,"o":"m 1138 17 q 1140 8 1140 17 q 1138 0 1140 0 q 1067 1 1093 0 l 968 3 l 875 1 q 810 0 851 0 q 806 8 806 0 q 810 17 806 17 q 892 31 871 17 q 914 89 914 44 l 913 113 l 886 724 l 579 10 q 568 4 576 4 q 557 10 560 4 l 211 718 l 200 160 q 226 51 199 86 q 317 17 254 17 q 321 8 321 17 q 317 0 321 0 q 258 1 279 0 l 182 3 l 106 1 q 49 0 86 0 q 46 8 46 0 q 49 17 46 17 q 165 160 164 17 l 178 782 q 58 851 133 851 q 56 860 56 851 q 58 868 56 868 l 114 867 q 157 865 131 865 q 207 867 188 865 q 238 868 226 868 q 267 856 256 868 q 301 796 278 843 l 610 169 l 900 833 q 942 868 914 868 q 964 867 950 868 q 1000 865 978 865 l 1071 867 q 1119 868 1088 868 q 1124 860 1124 868 q 1119 851 1124 851 q 1022 829 1051 851 q 993 751 992 807 l 1024 113 q 1035 50 1026 69 q 1065 24 1043 31 q 1138 17 1088 17 z "},"Ṁ":{"ha":1169,"x_min":46,"x_max":1140,"o":"m 1138 17 q 1140 8 1140 17 q 1138 0 1140 0 q 1067 1 1093 0 l 968 3 l 875 1 q 810 0 851 0 q 806 8 806 0 q 810 17 806 17 q 892 31 871 17 q 914 89 914 44 l 913 113 l 886 724 l 579 10 q 568 4 576 4 q 557 10 560 4 l 211 718 l 200 160 q 226 51 199 86 q 317 17 254 17 q 321 8 321 17 q 317 0 321 0 q 258 1 279 0 l 182 3 l 106 1 q 49 0 86 0 q 46 8 46 0 q 49 17 46 17 q 165 160 164 17 l 178 782 q 58 851 133 851 q 56 860 56 851 q 58 868 56 868 l 114 867 q 157 865 131 865 q 207 867 188 865 q 238 868 226 868 q 267 856 256 868 q 301 796 278 843 l 610 169 l 900 833 q 942 868 914 868 q 964 867 950 868 q 1000 865 978 865 l 1071 867 q 1119 868 1088 868 q 1124 860 1124 868 q 1119 851 1124 851 q 1022 829 1051 851 q 993 751 992 807 l 1024 113 q 1035 50 1026 69 q 1065 24 1043 31 q 1138 17 1088 17 m 585 990 q 534 1008 553 990 q 515 1058 515 1026 q 534 1106 515 1089 q 585 1124 553 1124 q 633 1106 615 1124 q 650 1058 650 1089 q 633 1008 650 1026 q 585 990 615 990 z "},"Ṃ":{"ha":1169,"x_min":46,"x_max":1140,"o":"m 1138 17 q 1140 8 1140 17 q 1138 0 1140 0 q 1067 1 1093 0 l 968 3 l 875 1 q 810 0 851 0 q 806 8 806 0 q 810 17 806 17 q 892 31 871 17 q 914 89 914 44 l 913 113 l 886 724 l 579 10 q 568 4 576 4 q 557 10 560 4 l 211 718 l 200 160 q 226 51 199 86 q 317 17 254 17 q 321 8 321 17 q 317 0 321 0 q 258 1 279 0 l 182 3 l 106 1 q 49 0 86 0 q 46 8 46 0 q 49 17 46 17 q 165 160 164 17 l 178 782 q 58 851 133 851 q 56 860 56 851 q 58 868 56 868 l 114 867 q 157 865 131 865 q 207 867 188 865 q 238 868 226 868 q 267 856 256 868 q 301 796 278 843 l 610 169 l 900 833 q 942 868 914 868 q 964 867 950 868 q 1000 865 978 865 l 1071 867 q 1119 868 1088 868 q 1124 860 1124 868 q 1119 851 1124 851 q 1022 829 1051 851 q 993 751 992 807 l 1024 113 q 1035 50 1026 69 q 1065 24 1043 31 q 1138 17 1088 17 m 572 -272 q 522 -254 540 -272 q 503 -204 503 -236 q 522 -156 503 -174 q 572 -139 540 -139 q 620 -156 603 -139 q 638 -204 638 -174 q 620 -254 638 -236 q 572 -272 603 -272 z "},"N":{"ha":1014,"x_min":44,"x_max":990,"o":"m 986 868 q 990 860 990 868 q 986 851 990 851 q 872 707 872 851 l 872 -18 q 866 -22 872 -21 q 857 -21 860 -24 l 206 751 l 206 160 q 233 51 206 86 q 315 17 260 17 q 319 8 319 17 q 315 0 319 0 q 260 1 279 0 l 189 3 l 114 1 q 53 0 93 0 q 50 8 50 0 q 53 17 50 17 q 141 51 113 17 q 169 160 169 86 l 169 790 q 49 851 108 851 q 44 860 44 851 q 49 868 44 868 l 103 867 q 150 865 119 865 l 222 867 q 254 868 235 868 q 270 863 265 868 q 286 842 275 858 q 321 796 299 822 l 838 172 l 838 707 q 811 816 838 781 q 729 851 785 851 q 726 860 726 851 q 729 868 726 868 l 785 867 q 856 864 826 864 q 928 867 881 864 l 986 868 z "},"Ń":{"ha":1014,"x_min":44,"x_max":990,"o":"m 986 868 q 990 860 990 868 q 986 851 990 851 q 872 707 872 851 l 872 -18 q 866 -22 872 -21 q 857 -21 860 -24 l 206 751 l 206 160 q 233 51 206 86 q 315 17 260 17 q 319 8 319 17 q 315 0 319 0 q 260 1 279 0 l 189 3 l 114 1 q 53 0 93 0 q 50 8 50 0 q 53 17 50 17 q 141 51 113 17 q 169 160 169 86 l 169 790 q 49 851 108 851 q 44 860 44 851 q 49 868 44 868 l 103 867 q 150 865 119 865 l 222 867 q 254 868 235 868 q 270 863 265 868 q 286 842 275 858 q 321 796 299 822 l 838 172 l 838 707 q 811 816 838 781 q 729 851 785 851 q 726 860 726 851 q 729 868 726 868 l 785 867 q 856 864 826 864 q 928 867 881 864 l 986 868 m 388 942 q 381 948 382 942 q 383 957 379 954 q 526 1049 433 985 q 593 1093 571 1079 q 631 1088 600 1097 q 687 1065 663 1078 q 699 1050 711 1053 q 541 1003 613 1029 q 390 943 469 978 l 388 942 z "},"Ň":{"ha":1014,"x_min":44,"x_max":990,"o":"m 986 868 q 990 860 990 868 q 986 851 990 851 q 872 707 872 851 l 872 -18 q 866 -22 872 -21 q 857 -21 860 -24 l 206 751 l 206 160 q 233 51 206 86 q 315 17 260 17 q 319 8 319 17 q 315 0 319 0 q 260 1 279 0 l 189 3 l 114 1 q 53 0 93 0 q 50 8 50 0 q 53 17 50 17 q 141 51 113 17 q 169 160 169 86 l 169 790 q 49 851 108 851 q 44 860 44 851 q 49 868 44 868 l 103 867 q 150 865 119 865 l 222 867 q 254 868 235 868 q 270 863 265 868 q 286 842 275 858 q 321 796 299 822 l 838 172 l 838 707 q 811 816 838 781 q 729 851 785 851 q 726 860 726 851 q 729 868 726 868 l 785 867 q 856 864 826 864 q 928 867 881 864 l 986 868 m 365 1097 q 364 1098 364 1097 q 364 1099 364 1099 q 367 1105 364 1101 q 374 1107 371 1108 l 525 1035 l 675 1107 l 676 1107 q 683 1103 681 1107 q 682 1097 685 1100 l 540 954 q 525 949 535 949 q 508 954 514 949 l 365 1097 z "},"Ņ":{"ha":1014,"x_min":44,"x_max":990,"o":"m 986 868 q 990 860 990 868 q 986 851 990 851 q 872 707 872 851 l 872 -18 q 866 -22 872 -21 q 857 -21 860 -24 l 206 751 l 206 160 q 233 51 206 86 q 315 17 260 17 q 319 8 319 17 q 315 0 319 0 q 260 1 279 0 l 189 3 l 114 1 q 53 0 93 0 q 50 8 50 0 q 53 17 50 17 q 141 51 113 17 q 169 160 169 86 l 169 790 q 49 851 108 851 q 44 860 44 851 q 49 868 44 868 l 103 867 q 150 865 119 865 l 222 867 q 254 868 235 868 q 270 863 265 868 q 286 842 275 858 q 321 796 299 822 l 838 172 l 838 707 q 811 816 838 781 q 729 851 785 851 q 726 860 726 851 q 729 868 726 868 l 785 867 q 856 864 826 864 q 928 867 881 864 l 986 868 m 511 -111 q 574 -139 551 -111 q 596 -215 596 -167 q 572 -304 596 -264 q 504 -382 549 -344 l 501 -383 q 493 -378 496 -383 q 493 -371 490 -374 q 557 -256 557 -317 q 547 -214 557 -229 q 500 -236 535 -236 q 458 -219 474 -236 q 442 -174 442 -201 q 461 -126 442 -142 q 511 -111 481 -111 z "},"Ṅ":{"ha":1014,"x_min":44,"x_max":990,"o":"m 986 868 q 990 860 990 868 q 986 851 990 851 q 872 707 872 851 l 872 -18 q 866 -22 872 -21 q 857 -21 860 -24 l 206 751 l 206 160 q 233 51 206 86 q 315 17 260 17 q 319 8 319 17 q 315 0 319 0 q 260 1 279 0 l 189 3 l 114 1 q 53 0 93 0 q 50 8 50 0 q 53 17 50 17 q 141 51 113 17 q 169 160 169 86 l 169 790 q 49 851 108 851 q 44 860 44 851 q 49 868 44 868 l 103 867 q 150 865 119 865 l 222 867 q 254 868 235 868 q 270 863 265 868 q 286 842 275 858 q 321 796 299 822 l 838 172 l 838 707 q 811 816 838 781 q 729 851 785 851 q 726 860 726 851 q 729 868 726 868 l 785 867 q 856 864 826 864 q 928 867 881 864 l 986 868 m 525 990 q 474 1008 493 990 q 456 1058 456 1026 q 474 1106 456 1089 q 525 1124 493 1124 q 573 1106 556 1124 q 590 1058 590 1089 q 573 1008 590 1026 q 525 990 556 990 z "},"Ṇ":{"ha":1014,"x_min":44,"x_max":990,"o":"m 986 868 q 990 860 990 868 q 986 851 990 851 q 872 707 872 851 l 872 -18 q 866 -22 872 -21 q 857 -21 860 -24 l 206 751 l 206 160 q 233 51 206 86 q 315 17 260 17 q 319 8 319 17 q 315 0 319 0 q 260 1 279 0 l 189 3 l 114 1 q 53 0 93 0 q 50 8 50 0 q 53 17 50 17 q 141 51 113 17 q 169 160 169 86 l 169 790 q 49 851 108 851 q 44 860 44 851 q 49 868 44 868 l 103 867 q 150 865 119 865 l 222 867 q 254 868 235 868 q 270 863 265 868 q 286 842 275 858 q 321 796 299 822 l 838 172 l 838 707 q 811 816 838 781 q 729 851 785 851 q 726 860 726 851 q 729 868 726 868 l 785 867 q 856 864 826 864 q 928 867 881 864 l 986 868 m 521 -272 q 470 -254 489 -272 q 451 -204 451 -236 q 470 -156 451 -174 q 521 -139 489 -139 q 569 -156 551 -139 q 586 -204 586 -174 q 569 -254 586 -236 q 521 -272 551 -272 z "},"Ŋ":{"ha":1014,"x_min":44,"x_max":990,"o":"m 986 868 q 990 860 990 868 q 986 851 990 851 q 872 707 872 851 l 872 -18 q 826 -201 872 -136 q 693 -265 779 -265 q 603 -242 638 -265 q 569 -182 569 -218 q 584 -141 569 -157 q 622 -125 599 -125 q 663 -140 651 -125 q 681 -183 674 -154 q 697 -222 688 -210 q 729 -235 706 -235 q 810 -176 781 -235 q 839 -21 839 -118 l 839 0 l 206 751 l 206 160 q 233 51 206 86 q 315 17 260 17 q 319 8 319 17 q 315 0 319 0 q 260 1 279 0 l 189 3 l 114 1 q 53 0 93 0 q 50 8 50 0 q 53 17 50 17 q 142 51 113 17 q 171 160 171 86 l 171 789 q 107 838 136 824 q 49 851 78 851 q 44 860 44 851 q 49 868 44 868 l 103 867 q 150 865 119 865 l 222 867 q 254 868 235 868 q 270 863 265 868 q 286 842 275 858 q 321 796 299 822 l 839 171 l 839 707 q 812 816 839 781 q 729 851 785 851 q 726 860 726 851 q 729 868 726 868 l 785 867 q 856 864 826 864 q 928 867 881 864 l 986 868 z "},"Ṉ":{"ha":1014,"x_min":44,"x_max":990,"o":"m 986 868 q 990 860 990 868 q 986 851 990 851 q 872 707 872 851 l 872 -18 q 866 -22 872 -21 q 857 -21 860 -24 l 206 751 l 206 160 q 233 51 206 86 q 315 17 260 17 q 319 8 319 17 q 315 0 319 0 q 260 1 279 0 l 189 3 l 114 1 q 53 0 93 0 q 50 8 50 0 q 53 17 50 17 q 141 51 113 17 q 169 160 169 86 l 169 790 q 49 851 108 851 q 44 860 44 851 q 49 868 44 868 l 103 867 q 150 865 119 865 l 222 867 q 254 868 235 868 q 270 863 265 868 q 286 842 275 858 q 321 796 299 822 l 838 172 l 838 707 q 811 816 838 781 q 729 851 785 851 q 726 860 726 851 q 729 868 726 868 l 785 867 q 856 864 826 864 q 928 867 881 864 l 986 868 m 344 -161 q 336 -155 339 -161 q 333 -140 333 -149 q 336 -125 333 -132 q 344 -118 339 -118 l 693 -118 q 703 -140 703 -118 q 693 -161 703 -161 l 344 -161 z "},"Ñ":{"ha":1014,"x_min":44,"x_max":990,"o":"m 986 868 q 990 860 990 868 q 986 851 990 851 q 872 707 872 851 l 872 -18 q 866 -22 872 -21 q 857 -21 860 -24 l 206 751 l 206 160 q 233 51 206 86 q 315 17 260 17 q 319 8 319 17 q 315 0 319 0 q 260 1 279 0 l 189 3 l 114 1 q 53 0 93 0 q 50 8 50 0 q 53 17 50 17 q 141 51 113 17 q 169 160 169 86 l 169 790 q 49 851 108 851 q 44 860 44 851 q 49 868 44 868 l 103 867 q 150 865 119 865 l 222 867 q 254 868 235 868 q 270 863 265 868 q 286 842 275 858 q 321 796 299 822 l 838 172 l 838 707 q 811 816 838 781 q 729 851 785 851 q 726 860 726 851 q 729 868 726 868 l 785 867 q 856 864 826 864 q 928 867 881 864 l 986 868 m 635 1039 q 673 1048 658 1039 q 704 1076 688 1057 l 706 1076 q 713 1073 710 1076 q 714 1067 717 1069 q 654 992 678 1011 q 601 972 631 972 q 553 979 579 972 q 518 988 526 986 q 424 1006 464 1006 q 386 998 397 1006 q 354 968 375 990 l 353 968 q 345 972 349 968 q 343 978 342 975 q 463 1074 406 1074 q 531 1058 485 1074 q 570 1048 538 1057 q 635 1039 603 1039 z "},"O":{"ha":1064,"x_min":68,"x_max":996,"o":"m 508 -17 q 278 44 379 -17 q 123 208 178 104 q 68 433 68 311 q 140 678 68 576 q 326 832 213 781 q 557 883 439 883 q 789 822 689 883 q 942 658 889 760 q 996 443 996 557 q 929 211 996 317 q 751 44 863 106 q 508 -17 639 -17 m 557 14 q 717 60 646 14 q 828 194 788 106 q 869 404 869 282 q 824 635 869 533 q 695 793 779 736 q 500 850 611 850 q 275 752 356 850 q 194 482 194 654 q 240 243 194 350 q 369 75 286 136 q 557 14 451 14 z "},"Ó":{"ha":1064,"x_min":68,"x_max":996,"o":"m 508 -17 q 278 44 379 -17 q 123 208 178 104 q 68 433 68 311 q 140 678 68 576 q 326 832 213 781 q 557 883 439 883 q 789 822 689 883 q 942 658 889 760 q 996 443 996 557 q 929 211 996 317 q 751 44 863 106 q 508 -17 639 -17 m 557 14 q 717 60 646 14 q 828 194 788 106 q 869 404 869 282 q 824 635 869 533 q 695 793 779 736 q 500 850 611 850 q 275 752 356 850 q 194 482 194 654 q 240 243 194 350 q 369 75 286 136 q 557 14 451 14 m 399 942 q 392 948 393 942 q 394 957 390 954 q 538 1049 444 985 q 604 1093 582 1079 q 642 1088 611 1097 q 698 1065 674 1078 q 710 1050 722 1053 q 552 1003 624 1029 q 401 943 481 978 l 399 942 z "},"Ŏ":{"ha":1064,"x_min":68,"x_max":996,"o":"m 508 -17 q 278 44 379 -17 q 123 208 178 104 q 68 433 68 311 q 140 678 68 576 q 326 832 213 781 q 557 883 439 883 q 789 822 689 883 q 942 658 889 760 q 996 443 996 557 q 929 211 996 317 q 751 44 863 106 q 508 -17 639 -17 m 557 14 q 717 60 646 14 q 828 194 788 106 q 869 404 869 282 q 824 635 869 533 q 695 793 779 736 q 500 850 611 850 q 275 752 356 850 q 194 482 194 654 q 240 243 194 350 q 369 75 286 136 q 557 14 451 14 m 536 958 q 437 999 474 958 q 393 1115 400 1040 q 399 1122 392 1121 q 408 1119 407 1122 q 452 1059 415 1085 q 536 1033 489 1033 q 619 1059 582 1033 q 663 1119 656 1085 q 668 1122 663 1122 q 676 1120 672 1122 q 678 1115 679 1118 q 635 999 671 1040 q 536 958 599 958 z "},"Ǒ":{"ha":1064,"x_min":68,"x_max":996,"o":"m 508 -17 q 278 44 379 -17 q 123 208 178 104 q 68 433 68 311 q 140 678 68 576 q 326 832 213 781 q 557 883 439 883 q 789 822 689 883 q 942 658 889 760 q 996 443 996 557 q 929 211 996 317 q 751 44 863 106 q 508 -17 639 -17 m 557 14 q 717 60 646 14 q 828 194 788 106 q 869 404 869 282 q 824 635 869 533 q 695 793 779 736 q 500 850 611 850 q 275 752 356 850 q 194 482 194 654 q 240 243 194 350 q 369 75 286 136 q 557 14 451 14 m 376 1097 q 375 1098 375 1097 q 375 1099 375 1099 q 378 1105 375 1101 q 385 1107 382 1108 l 536 1035 l 686 1107 l 688 1107 q 694 1103 692 1107 q 693 1097 696 1100 l 551 954 q 536 949 546 949 q 519 954 525 949 l 376 1097 z "},"Ô":{"ha":1064,"x_min":68,"x_max":996,"o":"m 508 -17 q 278 44 379 -17 q 123 208 178 104 q 68 433 68 311 q 140 678 68 576 q 326 832 213 781 q 557 883 439 883 q 789 822 689 883 q 942 658 889 760 q 996 443 996 557 q 929 211 996 317 q 751 44 863 106 q 508 -17 639 -17 m 557 14 q 717 60 646 14 q 828 194 788 106 q 869 404 869 282 q 824 635 869 533 q 695 793 779 736 q 500 850 611 850 q 275 752 356 850 q 194 482 194 654 q 240 243 194 350 q 369 75 286 136 q 557 14 451 14 m 521 1110 q 538 1117 528 1117 q 553 1110 546 1117 l 694 965 q 696 963 696 965 q 692 957 696 960 q 688 956 689 954 l 538 1028 l 386 956 q 379 959 383 954 q 378 965 375 964 l 521 1110 z "},"Ố":{"ha":1064,"x_min":68,"x_max":996,"o":"m 508 -17 q 278 44 379 -17 q 123 208 178 104 q 68 433 68 311 q 140 678 68 576 q 326 832 213 781 q 557 883 439 883 q 789 822 689 883 q 942 658 889 760 q 996 443 996 557 q 929 211 996 317 q 751 44 863 106 q 508 -17 639 -17 m 557 14 q 717 60 646 14 q 828 194 788 106 q 869 404 869 282 q 824 635 869 533 q 695 793 779 736 q 500 850 611 850 q 275 752 356 850 q 194 482 194 654 q 240 243 194 350 q 369 75 286 136 q 557 14 451 14 m 519 1053 q 535 1060 526 1060 q 551 1053 544 1060 l 693 910 q 694 907 694 910 q 691 901 694 904 q 686 900 688 899 l 536 971 l 385 900 q 378 903 382 899 q 376 910 374 908 l 519 1053 m 622 1015 q 616 1021 618 1015 q 617 1029 614 1026 q 714 1167 674 1101 q 750 1164 718 1174 q 808 1141 782 1154 q 821 1124 833 1128 q 722 1078 765 1103 q 626 1017 678 1053 l 622 1015 z "},"Ộ":{"ha":1064,"x_min":68,"x_max":996,"o":"m 508 -17 q 278 44 379 -17 q 123 208 178 104 q 68 433 68 311 q 140 678 68 576 q 326 832 213 781 q 557 883 439 883 q 789 822 689 883 q 942 658 889 760 q 996 443 996 557 q 929 211 996 317 q 751 44 863 106 q 508 -17 639 -17 m 557 14 q 717 60 646 14 q 828 194 788 106 q 869 404 869 282 q 824 635 869 533 q 695 793 779 736 q 500 850 611 850 q 275 752 356 850 q 194 482 194 654 q 240 243 194 350 q 369 75 286 136 q 557 14 451 14 m 550 -272 q 499 -254 518 -272 q 481 -204 481 -236 q 499 -156 481 -174 q 550 -139 518 -139 q 598 -156 581 -139 q 615 -204 615 -174 q 598 -254 615 -236 q 550 -272 581 -272 m 519 1053 q 535 1060 526 1060 q 551 1053 544 1060 l 693 910 q 694 907 694 910 q 691 901 694 904 q 686 900 688 899 l 536 971 l 385 900 q 378 903 382 899 q 376 910 374 908 l 519 1053 z "},"Ồ":{"ha":1064,"x_min":68,"x_max":996,"o":"m 508 -17 q 278 44 379 -17 q 123 208 178 104 q 68 433 68 311 q 140 678 68 576 q 326 832 213 781 q 557 883 439 883 q 789 822 689 883 q 942 658 889 760 q 996 443 996 557 q 929 211 996 317 q 751 44 863 106 q 508 -17 639 -17 m 557 14 q 717 60 646 14 q 828 194 788 106 q 869 404 869 282 q 824 635 869 533 q 695 793 779 736 q 500 850 611 850 q 275 752 356 850 q 194 482 194 654 q 240 243 194 350 q 369 75 286 136 q 557 14 451 14 m 519 1053 q 535 1060 526 1060 q 551 1053 544 1060 l 693 910 q 694 907 694 910 q 691 901 694 904 q 686 900 688 899 l 536 971 l 385 900 q 378 903 382 899 q 376 910 374 908 l 519 1053 m 763 986 q 665 1048 707 1024 q 571 1093 624 1072 q 583 1110 558 1097 q 640 1133 608 1124 q 676 1136 672 1143 q 772 999 725 1060 q 774 993 774 997 q 770 987 774 989 q 763 986 767 985 z "},"Ổ":{"ha":1064,"x_min":68,"x_max":996,"o":"m 508 -17 q 278 44 379 -17 q 123 208 178 104 q 68 433 68 311 q 140 678 68 576 q 326 832 213 781 q 557 883 439 883 q 789 822 689 883 q 942 658 889 760 q 996 443 996 557 q 929 211 996 317 q 751 44 863 106 q 508 -17 639 -17 m 557 14 q 717 60 646 14 q 828 194 788 106 q 869 404 869 282 q 824 635 869 533 q 695 793 779 736 q 500 850 611 850 q 275 752 356 850 q 194 482 194 654 q 240 243 194 350 q 369 75 286 136 q 557 14 451 14 m 519 1053 q 535 1060 526 1060 q 551 1053 544 1060 l 693 910 q 694 907 694 910 q 691 901 694 904 q 686 900 688 899 l 536 971 l 385 900 q 378 903 382 899 q 376 910 374 908 l 519 1053 m 651 1008 q 649 1026 649 1022 q 667 1078 649 1047 q 676 1097 668 1081 q 685 1131 685 1114 q 671 1163 685 1151 q 639 1174 657 1174 q 608 1167 622 1174 l 607 1167 q 599 1172 603 1167 q 599 1178 594 1176 q 642 1197 619 1190 q 682 1204 665 1204 q 733 1186 714 1204 q 753 1144 753 1168 q 740 1109 753 1125 q 706 1072 728 1093 q 674 1038 683 1051 q 667 1008 664 1024 q 660 1005 668 1006 q 651 1008 653 1004 z "},"Ỗ":{"ha":1064,"x_min":68,"x_max":996,"o":"m 508 -17 q 278 44 379 -17 q 123 208 178 104 q 68 433 68 311 q 140 678 68 576 q 326 832 213 781 q 557 883 439 883 q 789 822 689 883 q 942 658 889 760 q 996 443 996 557 q 929 211 996 317 q 751 44 863 106 q 508 -17 639 -17 m 557 14 q 717 60 646 14 q 828 194 788 106 q 869 404 869 282 q 824 635 869 533 q 695 793 779 736 q 500 850 611 850 q 275 752 356 850 q 194 482 194 654 q 240 243 194 350 q 369 75 286 136 q 557 14 451 14 m 519 1053 q 535 1060 526 1060 q 551 1053 544 1060 l 693 910 q 694 907 694 910 q 691 901 694 904 q 686 900 688 899 l 536 971 l 385 900 q 378 903 382 899 q 376 910 374 908 l 519 1053 m 650 1144 q 688 1153 674 1144 q 719 1182 703 1163 l 721 1182 q 728 1178 725 1182 q 729 1172 732 1175 q 669 1097 693 1117 q 618 1078 646 1078 q 535 1094 590 1078 q 499 1104 529 1096 q 439 1113 469 1113 q 404 1106 417 1113 q 383 1089 392 1099 q 369 1075 374 1079 l 367 1075 q 360 1078 363 1075 q 360 1085 357 1082 q 478 1178 422 1178 q 547 1164 497 1178 q 650 1144 611 1144 z "},"Ö":{"ha":1064,"x_min":68,"x_max":996,"o":"m 508 -17 q 278 44 379 -17 q 123 208 178 104 q 68 433 68 311 q 140 678 68 576 q 326 832 213 781 q 557 883 439 883 q 789 822 689 883 q 942 658 889 760 q 996 443 996 557 q 929 211 996 317 q 751 44 863 106 q 508 -17 639 -17 m 557 14 q 717 60 646 14 q 828 194 788 106 q 869 404 869 282 q 824 635 869 533 q 695 793 779 736 q 500 850 611 850 q 275 752 356 850 q 194 482 194 654 q 240 243 194 350 q 369 75 286 136 q 557 14 451 14 m 415 989 q 368 1006 385 989 q 351 1053 351 1022 q 368 1098 351 1082 q 415 1114 385 1114 q 462 1098 446 1114 q 478 1053 478 1082 q 462 1006 478 1022 q 415 989 446 989 m 658 989 q 611 1006 628 989 q 594 1053 594 1022 q 611 1098 594 1082 q 658 1114 628 1114 q 705 1098 689 1114 q 721 1053 721 1082 q 705 1006 721 1022 q 658 989 689 989 z "},"Ọ":{"ha":1064,"x_min":68,"x_max":996,"o":"m 508 -17 q 278 44 379 -17 q 123 208 178 104 q 68 433 68 311 q 140 678 68 576 q 326 832 213 781 q 557 883 439 883 q 789 822 689 883 q 942 658 889 760 q 996 443 996 557 q 929 211 996 317 q 751 44 863 106 q 508 -17 639 -17 m 557 14 q 717 60 646 14 q 828 194 788 106 q 869 404 869 282 q 824 635 869 533 q 695 793 779 736 q 500 850 611 850 q 275 752 356 850 q 194 482 194 654 q 240 243 194 350 q 369 75 286 136 q 557 14 451 14 m 550 -272 q 499 -254 518 -272 q 481 -204 481 -236 q 499 -156 481 -174 q 550 -139 518 -139 q 598 -156 581 -139 q 615 -204 615 -174 q 598 -254 615 -236 q 550 -272 581 -272 z "},"Ò":{"ha":1064,"x_min":68,"x_max":996,"o":"m 508 -17 q 278 44 379 -17 q 123 208 178 104 q 68 433 68 311 q 140 678 68 576 q 326 832 213 781 q 557 883 439 883 q 789 822 689 883 q 942 658 889 760 q 996 443 996 557 q 929 211 996 317 q 751 44 863 106 q 508 -17 639 -17 m 557 14 q 717 60 646 14 q 828 194 788 106 q 869 404 869 282 q 824 635 869 533 q 695 793 779 736 q 500 850 611 850 q 275 752 356 850 q 194 482 194 654 q 240 243 194 350 q 369 75 286 136 q 557 14 451 14 m 674 943 q 365 1050 518 1013 q 376 1065 353 1053 q 433 1088 400 1078 q 471 1093 465 1097 q 542 1046 518 1063 q 679 957 633 983 q 683 951 683 956 q 681 944 683 947 q 674 943 678 942 z "},"Ỏ":{"ha":1064,"x_min":68,"x_max":996,"o":"m 508 -17 q 278 44 379 -17 q 123 208 178 104 q 68 433 68 311 q 140 678 68 576 q 326 832 213 781 q 557 883 439 883 q 789 822 689 883 q 942 658 889 760 q 996 443 996 557 q 929 211 996 317 q 751 44 863 106 q 508 -17 639 -17 m 557 14 q 717 60 646 14 q 828 194 788 106 q 869 404 869 282 q 824 635 869 533 q 695 793 779 736 q 500 850 611 850 q 275 752 356 850 q 194 482 194 654 q 240 243 194 350 q 369 75 286 136 q 557 14 451 14 m 539 904 q 533 901 540 901 q 524 904 525 901 q 519 935 519 921 q 526 974 519 956 q 546 1017 533 993 q 565 1054 558 1039 q 571 1088 571 1069 q 556 1128 571 1114 q 518 1142 542 1142 q 475 1131 503 1142 l 474 1131 q 465 1135 469 1131 q 465 1142 461 1139 q 564 1174 510 1174 q 631 1153 606 1174 q 656 1101 656 1133 q 640 1053 656 1075 q 594 1000 625 1032 q 549 949 564 971 q 539 904 535 928 z "},"Ơ":{"ha":1064,"x_min":68,"x_max":1024,"o":"m 1024 917 q 872 754 1024 822 q 964 612 932 693 q 996 443 996 531 q 929 211 996 317 q 751 44 863 106 q 508 -17 639 -17 q 278 44 379 -17 q 123 208 178 104 q 68 433 68 311 q 140 678 68 576 q 326 832 213 781 q 557 883 439 883 q 723 853 647 883 q 856 769 799 824 q 933 851 933 807 q 921 881 933 865 q 908 900 913 892 q 904 924 904 908 q 923 967 904 951 q 965 982 942 982 q 1008 963 993 982 q 1024 917 1024 943 m 557 14 q 717 60 646 14 q 828 194 788 106 q 869 404 869 282 q 824 635 869 533 q 695 793 779 736 q 500 850 611 850 q 275 752 356 850 q 194 482 194 654 q 240 243 194 350 q 369 75 286 136 q 557 14 451 14 z "},"Ớ":{"ha":1064,"x_min":68,"x_max":1024,"o":"m 1024 917 q 872 754 1024 822 q 964 612 932 693 q 996 443 996 531 q 929 211 996 317 q 751 44 863 106 q 508 -17 639 -17 q 278 44 379 -17 q 123 208 178 104 q 68 433 68 311 q 140 678 68 576 q 326 832 213 781 q 557 883 439 883 q 723 853 647 883 q 856 769 799 824 q 933 851 933 807 q 921 881 933 865 q 908 900 913 892 q 904 924 904 908 q 923 967 904 951 q 965 982 942 982 q 1008 963 993 982 q 1024 917 1024 943 m 557 14 q 717 60 646 14 q 828 194 788 106 q 869 404 869 282 q 824 635 869 533 q 695 793 779 736 q 500 850 611 850 q 275 752 356 850 q 194 482 194 654 q 240 243 194 350 q 369 75 286 136 q 557 14 451 14 m 397 942 q 390 948 392 942 q 392 957 388 954 q 528 1043 456 992 q 601 1092 593 1086 q 640 1086 608 1096 q 695 1064 671 1076 q 707 1050 719 1051 q 399 942 543 1008 l 397 942 z "},"Ợ":{"ha":1064,"x_min":68,"x_max":1024,"o":"m 1024 917 q 872 754 1024 822 q 964 612 932 693 q 996 443 996 531 q 929 211 996 317 q 751 44 863 106 q 508 -17 639 -17 q 278 44 379 -17 q 123 208 178 104 q 68 433 68 311 q 140 678 68 576 q 326 832 213 781 q 557 883 439 883 q 723 853 647 883 q 856 769 799 824 q 933 851 933 807 q 921 881 933 865 q 908 900 913 892 q 904 924 904 908 q 923 967 904 951 q 965 982 942 982 q 1008 963 993 982 q 1024 917 1024 943 m 557 14 q 717 60 646 14 q 828 194 788 106 q 869 404 869 282 q 824 635 869 533 q 695 793 779 736 q 500 850 611 850 q 275 752 356 850 q 194 482 194 654 q 240 243 194 350 q 369 75 286 136 q 557 14 451 14 m 535 -272 q 484 -254 503 -272 q 465 -204 465 -236 q 484 -156 465 -174 q 535 -139 503 -139 q 583 -156 565 -139 q 600 -204 600 -174 q 583 -254 600 -236 q 535 -272 565 -272 z "},"Ờ":{"ha":1064,"x_min":68,"x_max":1024,"o":"m 1024 917 q 872 754 1024 822 q 964 612 932 693 q 996 443 996 531 q 929 211 996 317 q 751 44 863 106 q 508 -17 639 -17 q 278 44 379 -17 q 123 208 178 104 q 68 433 68 311 q 140 678 68 576 q 326 832 213 781 q 557 883 439 883 q 723 853 647 883 q 856 769 799 824 q 933 851 933 807 q 921 881 933 865 q 908 900 913 892 q 904 924 904 908 q 923 967 904 951 q 965 982 942 982 q 1008 963 993 982 q 1024 917 1024 943 m 557 14 q 717 60 646 14 q 828 194 788 106 q 869 404 869 282 q 824 635 869 533 q 695 793 779 736 q 500 850 611 850 q 275 752 356 850 q 194 482 194 654 q 240 243 194 350 q 369 75 286 136 q 557 14 451 14 m 671 943 q 363 1050 515 1013 q 374 1065 350 1053 q 430 1088 397 1078 q 468 1093 463 1097 q 539 1046 515 1063 q 676 957 631 983 q 681 951 681 956 q 678 944 681 947 q 671 943 675 942 z "},"Ở":{"ha":1064,"x_min":68,"x_max":1024,"o":"m 1024 917 q 872 754 1024 822 q 964 612 932 693 q 996 443 996 531 q 929 211 996 317 q 751 44 863 106 q 508 -17 639 -17 q 278 44 379 -17 q 123 208 178 104 q 68 433 68 311 q 140 678 68 576 q 326 832 213 781 q 557 883 439 883 q 723 853 647 883 q 856 769 799 824 q 933 851 933 807 q 921 881 933 865 q 908 900 913 892 q 904 924 904 908 q 923 967 904 951 q 965 982 942 982 q 1008 963 993 982 q 1024 917 1024 943 m 557 14 q 717 60 646 14 q 828 194 788 106 q 869 404 869 282 q 824 635 869 533 q 695 793 779 736 q 500 850 611 850 q 275 752 356 850 q 194 482 194 654 q 240 243 194 350 q 369 75 286 136 q 557 14 451 14 m 528 918 q 522 915 531 915 q 513 918 514 914 q 508 949 508 935 q 515 987 508 969 q 535 1029 521 1004 q 553 1067 547 1051 q 560 1100 560 1082 q 545 1140 560 1126 q 507 1153 531 1153 q 464 1143 489 1153 l 461 1142 q 454 1147 457 1142 q 454 1154 451 1151 q 553 1186 503 1186 q 619 1165 594 1186 q 644 1114 644 1144 q 628 1065 644 1088 q 583 1014 613 1043 q 538 963 553 985 q 528 918 524 942 z "},"Ỡ":{"ha":1064,"x_min":68,"x_max":1024,"o":"m 1024 917 q 872 754 1024 822 q 964 612 932 693 q 996 443 996 531 q 929 211 996 317 q 751 44 863 106 q 508 -17 639 -17 q 278 44 379 -17 q 123 208 178 104 q 68 433 68 311 q 140 678 68 576 q 326 832 213 781 q 557 883 439 883 q 723 853 647 883 q 856 769 799 824 q 933 851 933 807 q 921 881 933 865 q 908 900 913 892 q 904 924 904 908 q 923 967 904 951 q 965 982 942 982 q 1008 963 993 982 q 1024 917 1024 943 m 557 14 q 717 60 646 14 q 828 194 788 106 q 869 404 869 282 q 824 635 869 533 q 695 793 779 736 q 500 850 611 850 q 275 752 356 850 q 194 482 194 654 q 240 243 194 350 q 369 75 286 136 q 557 14 451 14 m 639 1064 q 677 1073 663 1064 q 708 1101 692 1082 l 710 1101 q 717 1098 714 1101 q 718 1092 721 1094 q 658 1017 682 1036 q 607 997 635 997 q 524 1014 579 997 q 488 1024 518 1015 q 428 1032 458 1032 q 393 1025 406 1032 q 372 1008 381 1018 q 358 994 363 999 l 356 994 q 349 998 351 994 q 349 1004 346 1001 q 467 1097 411 1097 q 536 1083 486 1097 q 639 1064 600 1064 z "},"Ő":{"ha":1064,"x_min":68,"x_max":996,"o":"m 508 -17 q 278 44 379 -17 q 123 208 178 104 q 68 433 68 311 q 140 678 68 576 q 326 832 213 781 q 557 883 439 883 q 789 822 689 883 q 942 658 889 760 q 996 443 996 557 q 929 211 996 317 q 751 44 863 106 q 508 -17 639 -17 m 557 14 q 717 60 646 14 q 828 194 788 106 q 869 404 869 282 q 824 635 869 533 q 695 793 779 736 q 500 850 611 850 q 275 752 356 850 q 194 482 194 654 q 240 243 194 350 q 369 75 286 136 q 557 14 451 14 m 388 936 q 383 935 386 935 q 377 941 379 935 q 378 950 375 947 q 503 1096 449 1022 q 538 1095 507 1103 q 592 1075 568 1088 q 604 1057 615 1063 q 388 936 500 1013 m 572 936 q 568 935 571 935 q 562 941 564 935 q 563 950 560 947 q 688 1096 613 1001 q 722 1095 692 1103 q 774 1075 751 1088 q 786 1057 797 1063 q 572 936 683 1011 z "},"Ō":{"ha":1064,"x_min":68,"x_max":996,"o":"m 508 -17 q 278 44 379 -17 q 123 208 178 104 q 68 433 68 311 q 140 678 68 576 q 326 832 213 781 q 557 883 439 883 q 789 822 689 883 q 942 658 889 760 q 996 443 996 557 q 929 211 996 317 q 751 44 863 106 q 508 -17 639 -17 m 557 14 q 717 60 646 14 q 828 194 788 106 q 869 404 869 282 q 824 635 869 533 q 695 793 779 736 q 500 850 611 850 q 275 752 356 850 q 194 482 194 654 q 240 243 194 350 q 369 75 286 136 q 557 14 451 14 m 361 999 q 351 1021 351 999 q 361 1042 351 1042 l 710 1042 q 718 1035 715 1042 q 721 1021 721 1029 q 718 1006 721 1013 q 710 999 715 999 l 361 999 z "},"Ǫ":{"ha":1064,"x_min":68,"x_max":996,"o":"m 610 -7 q 541 -94 563 -51 q 519 -187 519 -136 q 553 -295 519 -256 q 650 -335 588 -335 q 731 -308 693 -335 l 733 -308 q 741 -312 738 -308 q 740 -319 744 -317 q 589 -382 668 -382 q 473 -342 515 -382 q 431 -240 431 -303 q 575 -12 431 -128 q 508 -17 542 -17 q 278 44 379 -17 q 123 208 178 104 q 68 433 68 311 q 140 678 68 576 q 326 832 213 781 q 557 883 439 883 q 789 822 689 883 q 942 658 889 760 q 996 443 996 557 q 945 238 996 333 q 806 79 894 143 q 610 -7 718 15 m 194 482 q 240 243 194 350 q 369 75 286 136 q 557 14 451 14 q 717 60 646 14 q 828 194 788 106 q 869 404 869 282 q 824 635 869 533 q 695 793 779 736 q 500 850 611 850 q 275 752 356 850 q 194 482 194 654 z "},"Ø":{"ha":1079,"x_min":68,"x_max":996,"o":"m 871 756 q 963 613 931 694 q 996 443 996 531 q 929 211 996 317 q 751 44 863 106 q 508 -17 639 -17 q 347 11 422 -17 q 215 90 272 39 l 115 -11 l 114 -12 q 99 -2 108 -12 q 93 13 89 8 l 192 113 q 100 257 132 174 q 68 433 68 340 q 140 678 68 576 q 326 832 213 781 q 557 883 439 883 q 847 778 728 883 l 944 876 l 947 876 q 963 868 953 876 q 968 856 972 860 l 871 756 m 194 482 q 268 190 194 314 l 781 710 q 660 813 732 776 q 500 850 588 850 q 275 752 356 850 q 194 482 194 654 m 557 14 q 717 60 646 14 q 828 194 788 106 q 869 404 869 282 q 799 683 869 568 l 286 163 q 404 53 335 92 q 557 14 474 14 z "},"Ǿ":{"ha":1079,"x_min":68,"x_max":996,"o":"m 871 756 q 963 613 931 694 q 996 443 996 531 q 929 211 996 317 q 751 44 863 106 q 508 -17 639 -17 q 347 11 422 -17 q 215 90 272 39 l 115 -11 l 114 -12 q 99 -2 108 -12 q 93 13 89 8 l 192 113 q 100 257 132 174 q 68 433 68 340 q 140 678 68 576 q 326 832 213 781 q 557 883 439 883 q 847 778 728 883 l 944 876 l 947 876 q 963 868 953 876 q 968 856 972 860 l 871 756 m 194 482 q 268 190 194 314 l 781 710 q 660 813 732 776 q 500 850 588 850 q 275 752 356 850 q 194 482 194 654 m 557 14 q 717 60 646 14 q 828 194 788 106 q 869 404 869 282 q 799 683 869 568 l 286 163 q 404 53 335 92 q 557 14 474 14 m 408 942 q 401 948 403 942 q 404 957 400 954 q 547 1049 454 985 q 614 1093 592 1079 q 652 1088 621 1097 q 708 1065 683 1078 q 719 1050 732 1053 q 562 1003 633 1029 q 411 943 490 978 l 408 942 z "},"Õ":{"ha":1064,"x_min":68,"x_max":996,"o":"m 508 -17 q 278 44 379 -17 q 123 208 178 104 q 68 433 68 311 q 140 678 68 576 q 326 832 213 781 q 557 883 439 883 q 789 822 689 883 q 942 658 889 760 q 996 443 996 557 q 929 211 996 317 q 751 44 863 106 q 508 -17 639 -17 m 557 14 q 717 60 646 14 q 828 194 788 106 q 869 404 869 282 q 824 635 869 533 q 695 793 779 736 q 500 850 611 850 q 275 752 356 850 q 194 482 194 654 q 240 243 194 350 q 369 75 286 136 q 557 14 451 14 m 646 1039 q 684 1048 669 1039 q 715 1076 699 1057 l 717 1076 q 724 1073 721 1076 q 725 1067 728 1069 q 665 992 689 1011 q 613 972 642 972 q 564 979 590 972 q 529 988 538 986 q 435 1006 475 1006 q 397 998 408 1006 q 365 968 386 990 l 364 968 q 356 972 360 968 q 354 978 353 975 q 474 1074 417 1074 q 542 1058 496 1074 q 581 1048 549 1057 q 646 1039 614 1039 z "},"Œ":{"ha":1278,"x_min":68,"x_max":1211,"o":"m 1194 210 q 1203 213 1196 214 q 1211 208 1211 213 q 1197 21 1197 108 q 1193 5 1197 10 q 1176 0 1189 0 l 754 0 q 658 -3 725 0 q 561 -6 594 -6 q 306 50 418 -6 q 131 202 193 106 q 68 418 68 299 q 133 656 68 553 q 309 815 199 758 q 550 871 419 871 q 647 869 613 871 l 756 868 l 1153 868 q 1165 856 1165 868 l 1168 681 q 1160 676 1168 676 q 1153 679 1153 675 q 1099 788 1146 740 q 988 836 1053 836 l 908 836 q 828 819 849 836 q 808 754 808 803 l 808 468 l 960 468 q 1064 492 1031 468 q 1097 568 1097 517 q 1106 571 1097 571 q 1114 568 1114 571 l 1113 494 q 1111 451 1111 481 l 1113 389 q 1115 319 1115 344 q 1107 317 1115 317 q 1099 319 1099 317 q 1065 408 1099 379 q 956 436 1031 436 l 808 436 l 808 118 q 827 50 808 68 q 901 32 846 32 l 1000 32 q 1122 83 1065 32 q 1194 210 1178 135 m 697 746 q 687 807 697 786 q 648 838 676 828 q 564 847 619 847 q 372 801 456 847 q 242 664 289 754 q 194 449 194 574 q 239 230 194 328 q 365 75 283 132 q 556 18 447 18 q 642 25 613 18 q 685 52 672 32 q 697 114 697 72 l 697 746 z "},"P":{"ha":758,"x_min":51,"x_max":703,"o":"m 278 118 q 289 53 278 74 q 331 25 300 33 q 432 17 363 17 q 436 8 436 17 q 432 0 436 0 q 343 1 375 0 l 222 3 l 126 1 q 54 0 100 0 q 51 8 51 0 q 54 17 51 17 q 127 24 104 17 q 158 51 150 31 q 167 113 167 71 l 167 756 q 158 817 167 797 q 127 844 150 836 q 54 851 104 851 q 51 860 51 851 q 54 868 51 868 l 126 867 q 221 864 185 864 q 300 868 254 864 q 352 870 317 868 q 414 872 388 872 q 624 815 544 872 q 703 640 703 757 q 658 488 703 550 q 542 394 613 425 q 397 364 472 364 q 331 371 357 364 q 326 378 326 371 q 328 386 326 382 q 333 389 331 390 q 383 383 356 383 q 522 443 465 383 q 579 615 579 503 q 524 787 579 725 q 376 849 468 849 q 315 842 335 849 q 286 816 294 836 q 278 753 278 796 l 278 118 z "},"Þ":{"ha":751,"x_min":56,"x_max":703,"o":"m 389 204 q 524 265 469 204 q 579 439 579 325 q 522 610 579 550 q 368 669 464 669 q 275 661 333 669 l 275 118 q 286 53 275 74 q 329 25 297 33 q 431 17 361 17 q 433 8 433 17 q 431 0 433 0 q 340 1 372 0 l 221 3 l 128 1 q 60 0 103 0 q 56 8 56 0 q 60 17 56 17 q 127 24 106 17 q 156 51 149 31 q 164 113 164 71 l 164 756 q 156 817 164 797 q 127 844 149 836 q 60 851 106 851 q 56 860 56 851 q 60 868 56 868 l 128 867 q 221 864 186 864 q 340 867 265 864 l 431 868 q 433 860 433 868 q 431 851 433 851 q 329 843 361 851 q 286 814 297 835 q 275 749 275 793 l 275 685 q 403 693 342 693 q 621 638 539 693 q 703 457 703 582 q 658 306 703 368 q 544 215 613 244 q 404 185 475 185 q 335 192 372 185 q 332 199 332 192 q 334 207 332 203 q 339 210 336 211 q 389 204 372 204 z "},"Q":{"ha":1064,"x_min":68,"x_max":1043,"o":"m 1036 -232 q 1041 -238 1039 -232 q 1040 -246 1043 -244 q 924 -262 974 -262 q 715 -197 825 -262 q 528 -17 606 -132 l 508 -17 q 278 44 379 -17 q 123 208 178 104 q 68 433 68 311 q 140 678 68 576 q 326 832 213 781 q 557 883 439 883 q 789 822 689 883 q 942 658 889 760 q 996 443 996 557 q 952 253 996 342 q 832 100 908 164 q 660 6 756 36 q 809 -167 717 -100 q 985 -235 901 -235 q 1035 -232 1010 -235 l 1036 -232 m 194 482 q 240 243 194 350 q 369 75 286 136 q 557 14 451 14 q 717 60 646 14 q 828 194 788 106 q 869 404 869 282 q 824 635 869 533 q 695 793 779 736 q 500 850 611 850 q 275 752 356 850 q 194 482 194 654 z "},"R":{"ha":946,"x_min":56,"x_max":963,"o":"m 960 17 q 963 8 963 17 q 960 0 963 0 l 758 0 q 633 119 725 0 q 413 444 540 238 q 351 438 381 438 q 283 440 325 438 l 283 113 q 292 51 283 71 q 323 24 300 31 q 396 17 346 17 q 400 8 400 17 q 396 0 400 0 q 328 1 353 0 l 228 3 l 131 1 q 60 0 104 0 q 56 8 56 0 q 60 17 56 17 q 133 24 110 17 q 165 51 157 31 q 174 113 174 71 l 174 756 q 165 817 174 797 q 134 844 157 836 q 61 851 111 851 q 58 860 58 851 q 61 868 58 868 l 131 867 q 228 864 192 864 q 275 865 253 864 q 314 868 297 867 q 400 872 360 872 q 582 826 518 872 q 646 697 646 779 q 607 574 646 632 q 506 479 568 515 q 701 203 622 303 q 840 60 779 104 q 960 17 901 17 m 283 476 q 365 471 336 471 q 492 510 454 471 q 531 647 531 550 q 489 803 531 757 q 374 849 447 849 q 319 842 338 849 q 292 815 300 835 q 283 753 283 794 l 283 476 z "},"Ŕ":{"ha":946,"x_min":56,"x_max":963,"o":"m 960 17 q 963 8 963 17 q 960 0 963 0 l 758 0 q 633 119 725 0 q 413 444 540 238 q 351 438 381 438 q 283 440 325 438 l 283 113 q 292 51 283 71 q 323 24 300 31 q 396 17 346 17 q 400 8 400 17 q 396 0 400 0 q 328 1 353 0 l 228 3 l 131 1 q 60 0 104 0 q 56 8 56 0 q 60 17 56 17 q 133 24 110 17 q 165 51 157 31 q 174 113 174 71 l 174 756 q 165 817 174 797 q 134 844 157 836 q 61 851 111 851 q 58 860 58 851 q 61 868 58 868 l 131 867 q 228 864 192 864 q 275 865 253 864 q 314 868 297 867 q 400 872 360 872 q 582 826 518 872 q 646 697 646 779 q 607 574 646 632 q 506 479 568 515 q 701 203 622 303 q 840 60 779 104 q 960 17 901 17 m 283 476 q 365 471 336 471 q 492 510 454 471 q 531 647 531 550 q 489 803 531 757 q 374 849 447 849 q 319 842 338 849 q 292 815 300 835 q 283 753 283 794 l 283 476 m 219 942 q 213 948 214 942 q 215 957 211 954 q 358 1049 265 985 q 425 1093 403 1079 q 463 1088 432 1097 q 519 1065 494 1078 q 531 1050 543 1053 q 373 1003 444 1029 q 222 943 301 978 l 219 942 z "},"Ř":{"ha":946,"x_min":56,"x_max":963,"o":"m 960 17 q 963 8 963 17 q 960 0 963 0 l 758 0 q 633 119 725 0 q 413 444 540 238 q 351 438 381 438 q 283 440 325 438 l 283 113 q 292 51 283 71 q 323 24 300 31 q 396 17 346 17 q 400 8 400 17 q 396 0 400 0 q 328 1 353 0 l 228 3 l 131 1 q 60 0 104 0 q 56 8 56 0 q 60 17 56 17 q 133 24 110 17 q 165 51 157 31 q 174 113 174 71 l 174 756 q 165 817 174 797 q 134 844 157 836 q 61 851 111 851 q 58 860 58 851 q 61 868 58 868 l 131 867 q 228 864 192 864 q 275 865 253 864 q 314 868 297 867 q 400 872 360 872 q 582 826 518 872 q 646 697 646 779 q 607 574 646 632 q 506 479 568 515 q 701 203 622 303 q 840 60 779 104 q 960 17 901 17 m 283 476 q 365 471 336 471 q 492 510 454 471 q 531 647 531 550 q 489 803 531 757 q 374 849 447 849 q 319 842 338 849 q 292 815 300 835 q 283 753 283 794 l 283 476 m 197 1097 q 196 1098 196 1097 q 196 1099 196 1099 q 199 1105 196 1101 q 206 1107 203 1108 l 357 1035 l 507 1107 l 508 1107 q 515 1103 513 1107 q 514 1097 517 1100 l 372 954 q 357 949 367 949 q 340 954 346 949 l 197 1097 z "},"Ŗ":{"ha":946,"x_min":56,"x_max":963,"o":"m 960 17 q 963 8 963 17 q 960 0 963 0 l 758 0 q 633 119 725 0 q 413 444 540 238 q 351 438 381 438 q 283 440 325 438 l 283 113 q 292 51 283 71 q 323 24 300 31 q 396 17 346 17 q 400 8 400 17 q 396 0 400 0 q 328 1 353 0 l 228 3 l 131 1 q 60 0 104 0 q 56 8 56 0 q 60 17 56 17 q 133 24 110 17 q 165 51 157 31 q 174 113 174 71 l 174 756 q 165 817 174 797 q 134 844 157 836 q 61 851 111 851 q 58 860 58 851 q 61 868 58 868 l 131 867 q 228 864 192 864 q 275 865 253 864 q 314 868 297 867 q 400 872 360 872 q 582 826 518 872 q 646 697 646 779 q 607 574 646 632 q 506 479 568 515 q 701 203 622 303 q 840 60 779 104 q 960 17 901 17 m 283 476 q 365 471 336 471 q 492 510 454 471 q 531 647 531 550 q 489 803 531 757 q 374 849 447 849 q 319 842 338 849 q 292 815 300 835 q 283 753 283 794 l 283 476 m 467 -111 q 529 -139 507 -111 q 551 -215 551 -167 q 528 -304 551 -264 q 460 -382 504 -344 l 457 -383 q 449 -378 451 -383 q 449 -371 446 -374 q 513 -256 513 -317 q 503 -214 513 -229 q 456 -236 490 -236 q 413 -219 429 -236 q 397 -174 397 -201 q 417 -126 397 -142 q 467 -111 436 -111 z "},"Ṛ":{"ha":946,"x_min":56,"x_max":963,"o":"m 960 17 q 963 8 963 17 q 960 0 963 0 l 758 0 q 633 119 725 0 q 413 444 540 238 q 351 438 381 438 q 283 440 325 438 l 283 113 q 292 51 283 71 q 323 24 300 31 q 396 17 346 17 q 400 8 400 17 q 396 0 400 0 q 328 1 353 0 l 228 3 l 131 1 q 60 0 104 0 q 56 8 56 0 q 60 17 56 17 q 133 24 110 17 q 165 51 157 31 q 174 113 174 71 l 174 756 q 165 817 174 797 q 134 844 157 836 q 61 851 111 851 q 58 860 58 851 q 61 868 58 868 l 131 867 q 228 864 192 864 q 275 865 253 864 q 314 868 297 867 q 400 872 360 872 q 582 826 518 872 q 646 697 646 779 q 607 574 646 632 q 506 479 568 515 q 701 203 622 303 q 840 60 779 104 q 960 17 901 17 m 283 476 q 365 471 336 471 q 492 510 454 471 q 531 647 531 550 q 489 803 531 757 q 374 849 447 849 q 319 842 338 849 q 292 815 300 835 q 283 753 283 794 l 283 476 m 476 -272 q 426 -254 444 -272 q 407 -204 407 -236 q 426 -156 407 -174 q 476 -139 444 -139 q 524 -156 507 -139 q 542 -204 542 -174 q 524 -254 542 -236 q 476 -272 507 -272 z "},"Ṝ":{"ha":946,"x_min":56,"x_max":963,"o":"m 960 17 q 963 8 963 17 q 960 0 963 0 l 758 0 q 633 119 725 0 q 413 444 540 238 q 351 438 381 438 q 283 440 325 438 l 283 113 q 292 51 283 71 q 323 24 300 31 q 396 17 346 17 q 400 8 400 17 q 396 0 400 0 q 328 1 353 0 l 228 3 l 131 1 q 60 0 104 0 q 56 8 56 0 q 60 17 56 17 q 133 24 110 17 q 165 51 157 31 q 174 113 174 71 l 174 756 q 165 817 174 797 q 134 844 157 836 q 61 851 111 851 q 58 860 58 851 q 61 868 58 868 l 131 867 q 228 864 192 864 q 275 865 253 864 q 314 868 297 867 q 400 872 360 872 q 582 826 518 872 q 646 697 646 779 q 607 574 646 632 q 506 479 568 515 q 701 203 622 303 q 840 60 779 104 q 960 17 901 17 m 283 476 q 365 471 336 471 q 492 510 454 471 q 531 647 531 550 q 489 803 531 757 q 374 849 447 849 q 319 842 338 849 q 292 815 300 835 q 283 753 283 794 l 283 476 m 476 -272 q 426 -254 444 -272 q 407 -204 407 -236 q 426 -156 407 -174 q 476 -139 444 -139 q 524 -156 507 -139 q 542 -204 542 -174 q 524 -254 542 -236 q 476 -272 507 -272 m 182 999 q 174 1006 176 999 q 171 1021 171 1013 q 174 1035 171 1029 q 182 1042 176 1042 l 531 1042 q 540 1021 540 1042 q 531 999 540 999 l 182 999 z "},"Ṟ":{"ha":946,"x_min":56,"x_max":963,"o":"m 960 17 q 963 8 963 17 q 960 0 963 0 l 758 0 q 633 119 725 0 q 413 444 540 238 q 351 438 381 438 q 283 440 325 438 l 283 113 q 292 51 283 71 q 323 24 300 31 q 396 17 346 17 q 400 8 400 17 q 396 0 400 0 q 328 1 353 0 l 228 3 l 131 1 q 60 0 104 0 q 56 8 56 0 q 60 17 56 17 q 133 24 110 17 q 165 51 157 31 q 174 113 174 71 l 174 756 q 165 817 174 797 q 134 844 157 836 q 61 851 111 851 q 58 860 58 851 q 61 868 58 868 l 131 867 q 228 864 192 864 q 275 865 253 864 q 314 868 297 867 q 400 872 360 872 q 582 826 518 872 q 646 697 646 779 q 607 574 646 632 q 506 479 568 515 q 701 203 622 303 q 840 60 779 104 q 960 17 901 17 m 283 476 q 365 471 336 471 q 492 510 454 471 q 531 647 531 550 q 489 803 531 757 q 374 849 447 849 q 319 842 338 849 q 292 815 300 835 q 283 753 283 794 l 283 476 m 300 -161 q 292 -155 294 -161 q 289 -140 289 -149 q 292 -125 289 -132 q 300 -118 294 -118 l 649 -118 q 658 -140 658 -118 q 649 -161 658 -161 l 300 -161 z "},"S":{"ha":693,"x_min":96,"x_max":618,"o":"m 214 713 q 240 620 214 660 q 304 552 267 581 q 408 483 342 524 q 519 409 478 440 q 589 332 560 378 q 618 224 618 286 q 583 101 618 156 q 481 15 547 46 q 328 -17 415 -17 q 218 -3 272 -17 q 124 35 164 10 q 114 44 117 39 q 111 61 111 50 l 97 260 q 103 267 96 265 q 113 263 111 268 q 206 83 146 157 q 361 10 265 10 q 470 45 426 10 q 514 161 514 81 q 486 268 514 222 q 419 345 458 314 q 313 417 379 376 q 209 488 247 458 q 144 562 171 518 q 118 664 118 606 q 156 785 118 735 q 256 859 194 835 q 386 883 318 883 q 554 851 479 883 q 575 826 575 843 l 582 653 q 575 646 582 647 q 567 650 568 644 q 501 792 551 725 q 360 860 451 860 q 252 818 290 860 q 214 713 214 776 z "},"Ś":{"ha":693,"x_min":97,"x_max":618,"o":"m 214 713 q 240 620 214 660 q 304 552 267 581 q 408 483 342 524 q 519 409 478 440 q 589 332 560 378 q 618 224 618 286 q 583 101 618 156 q 481 15 547 46 q 328 -17 415 -17 q 218 -3 272 -17 q 124 35 164 10 q 114 44 117 39 q 111 61 111 50 l 97 260 q 103 267 96 265 q 113 263 111 268 q 206 83 146 157 q 361 10 265 10 q 470 45 426 10 q 514 161 514 81 q 486 268 514 222 q 419 345 458 314 q 313 417 379 376 q 209 488 247 458 q 144 562 171 518 q 118 664 118 606 q 156 785 118 735 q 256 859 194 835 q 386 883 318 883 q 554 851 479 883 q 575 826 575 843 l 582 653 q 575 646 582 647 q 567 650 568 644 q 501 792 551 725 q 360 860 451 860 q 252 818 290 860 q 214 713 214 776 m 224 942 q 217 948 218 942 q 219 957 215 954 q 363 1049 269 985 q 429 1093 407 1079 q 467 1088 436 1097 q 523 1065 499 1078 q 535 1050 547 1053 q 377 1003 449 1029 q 226 943 306 978 l 224 942 z "},"Š":{"ha":693,"x_min":97,"x_max":618,"o":"m 214 713 q 240 620 214 660 q 304 552 267 581 q 408 483 342 524 q 519 409 478 440 q 589 332 560 378 q 618 224 618 286 q 583 101 618 156 q 481 15 547 46 q 328 -17 415 -17 q 218 -3 272 -17 q 124 35 164 10 q 114 44 117 39 q 111 61 111 50 l 97 260 q 103 267 96 265 q 113 263 111 268 q 206 83 146 157 q 361 10 265 10 q 470 45 426 10 q 514 161 514 81 q 486 268 514 222 q 419 345 458 314 q 313 417 379 376 q 209 488 247 458 q 144 562 171 518 q 118 664 118 606 q 156 785 118 735 q 256 859 194 835 q 386 883 318 883 q 554 851 479 883 q 575 826 575 843 l 582 653 q 575 646 582 647 q 567 650 568 644 q 501 792 551 725 q 360 860 451 860 q 252 818 290 860 q 214 713 214 776 m 201 1097 q 200 1098 200 1097 q 200 1099 200 1099 q 203 1105 200 1101 q 210 1107 207 1108 l 361 1035 l 511 1107 l 513 1107 q 519 1103 517 1107 q 518 1097 521 1100 l 376 954 q 361 949 371 949 q 344 954 350 949 l 201 1097 z "},"Ş":{"ha":693,"x_min":96,"x_max":618,"o":"m 618 224 q 551 62 618 128 q 369 -15 485 -4 q 360 -71 360 -49 q 372 -105 360 -92 q 417 -137 385 -118 q 472 -182 451 -157 q 493 -244 493 -207 q 455 -340 493 -299 q 340 -382 417 -382 q 272 -367 297 -382 q 246 -325 246 -353 q 260 -293 246 -307 q 293 -279 274 -279 q 322 -288 313 -279 q 339 -315 331 -297 q 357 -343 347 -333 q 388 -353 367 -353 q 431 -306 431 -353 q 405 -241 431 -269 q 313 -176 379 -212 q 294 -158 294 -167 q 301 -135 294 -153 q 347 -17 322 -86 l 328 -17 q 218 -3 272 -17 q 124 35 164 10 q 114 44 117 39 q 111 61 111 50 l 97 260 q 103 267 96 265 q 113 263 111 268 q 206 83 146 157 q 361 10 265 10 q 470 45 426 10 q 514 161 514 81 q 486 268 514 222 q 419 345 458 314 q 313 417 379 376 q 209 488 247 458 q 144 562 171 518 q 118 664 118 606 q 156 785 118 735 q 256 859 194 835 q 386 883 318 883 q 554 851 479 883 q 575 826 575 843 l 582 653 q 575 646 582 647 q 567 650 568 644 q 501 792 551 725 q 360 860 451 860 q 252 818 290 860 q 214 713 214 776 q 240 620 214 660 q 304 552 267 581 q 408 483 342 524 q 519 409 478 440 q 589 332 560 378 q 618 224 618 286 z "},"Ŝ":{"ha":693,"x_min":97,"x_max":618,"o":"m 214 713 q 240 620 214 660 q 304 552 267 581 q 408 483 342 524 q 519 409 478 440 q 589 332 560 378 q 618 224 618 286 q 583 101 618 156 q 481 15 547 46 q 328 -17 415 -17 q 218 -3 272 -17 q 124 35 164 10 q 114 44 117 39 q 111 61 111 50 l 97 260 q 103 267 96 265 q 113 263 111 268 q 206 83 146 157 q 361 10 265 10 q 470 45 426 10 q 514 161 514 81 q 486 268 514 222 q 419 345 458 314 q 313 417 379 376 q 209 488 247 458 q 144 562 171 518 q 118 664 118 606 q 156 785 118 735 q 256 859 194 835 q 386 883 318 883 q 554 851 479 883 q 575 826 575 843 l 582 653 q 575 646 582 647 q 567 650 568 644 q 501 792 551 725 q 360 860 451 860 q 252 818 290 860 q 214 713 214 776 m 346 1110 q 363 1117 353 1117 q 378 1110 371 1117 l 519 965 q 521 963 521 965 q 517 957 521 960 q 513 956 514 954 l 363 1028 l 211 956 q 204 959 208 954 q 203 965 200 964 l 346 1110 z "},"Ș":{"ha":693,"x_min":97,"x_max":618,"o":"m 214 713 q 240 620 214 660 q 304 552 267 581 q 408 483 342 524 q 519 409 478 440 q 589 332 560 378 q 618 224 618 286 q 583 101 618 156 q 481 15 547 46 q 328 -17 415 -17 q 218 -3 272 -17 q 124 35 164 10 q 114 44 117 39 q 111 61 111 50 l 97 260 q 103 267 96 265 q 113 263 111 268 q 206 83 146 157 q 361 10 265 10 q 470 45 426 10 q 514 161 514 81 q 486 268 514 222 q 419 345 458 314 q 313 417 379 376 q 209 488 247 458 q 144 562 171 518 q 118 664 118 606 q 156 785 118 735 q 256 859 194 835 q 386 883 318 883 q 554 851 479 883 q 575 826 575 843 l 582 653 q 575 646 582 647 q 567 650 568 644 q 501 792 551 725 q 360 860 451 860 q 252 818 290 860 q 214 713 214 776 m 364 -111 q 426 -139 404 -111 q 449 -215 449 -167 q 425 -304 449 -264 q 357 -382 401 -344 l 354 -383 q 346 -378 349 -383 q 346 -371 343 -374 q 410 -256 410 -317 q 400 -214 410 -229 q 353 -236 388 -236 q 310 -219 326 -236 q 294 -174 294 -201 q 314 -126 294 -142 q 364 -111 333 -111 z "},"Ṡ":{"ha":693,"x_min":97,"x_max":618,"o":"m 214 713 q 240 620 214 660 q 304 552 267 581 q 408 483 342 524 q 519 409 478 440 q 589 332 560 378 q 618 224 618 286 q 583 101 618 156 q 481 15 547 46 q 328 -17 415 -17 q 218 -3 272 -17 q 124 35 164 10 q 114 44 117 39 q 111 61 111 50 l 97 260 q 103 267 96 265 q 113 263 111 268 q 206 83 146 157 q 361 10 265 10 q 470 45 426 10 q 514 161 514 81 q 486 268 514 222 q 419 345 458 314 q 313 417 379 376 q 209 488 247 458 q 144 562 171 518 q 118 664 118 606 q 156 785 118 735 q 256 859 194 835 q 386 883 318 883 q 554 851 479 883 q 575 826 575 843 l 582 653 q 575 646 582 647 q 567 650 568 644 q 501 792 551 725 q 360 860 451 860 q 252 818 290 860 q 214 713 214 776 m 361 990 q 310 1008 329 990 q 292 1058 292 1026 q 310 1106 292 1089 q 361 1124 329 1124 q 409 1106 392 1124 q 426 1058 426 1089 q 409 1008 426 1026 q 361 990 392 990 z "},"Ṣ":{"ha":693,"x_min":97,"x_max":618,"o":"m 214 713 q 240 620 214 660 q 304 552 267 581 q 408 483 342 524 q 519 409 478 440 q 589 332 560 378 q 618 224 618 286 q 583 101 618 156 q 481 15 547 46 q 328 -17 415 -17 q 218 -3 272 -17 q 124 35 164 10 q 114 44 117 39 q 111 61 111 50 l 97 260 q 103 267 96 265 q 113 263 111 268 q 206 83 146 157 q 361 10 265 10 q 470 45 426 10 q 514 161 514 81 q 486 268 514 222 q 419 345 458 314 q 313 417 379 376 q 209 488 247 458 q 144 562 171 518 q 118 664 118 606 q 156 785 118 735 q 256 859 194 835 q 386 883 318 883 q 554 851 479 883 q 575 826 575 843 l 582 653 q 575 646 582 647 q 567 650 568 644 q 501 792 551 725 q 360 860 451 860 q 252 818 290 860 q 214 713 214 776 m 374 -272 q 323 -254 342 -272 q 304 -204 304 -236 q 323 -156 304 -174 q 374 -139 342 -139 q 422 -156 404 -139 q 439 -204 439 -174 q 422 -254 439 -236 q 374 -272 404 -272 z "},"ẞ":{"ha":968,"x_min":32,"x_max":896,"o":"m 678 15 q 771 51 733 15 q 808 151 808 86 q 752 302 808 232 q 564 469 696 372 q 558 490 551 479 l 708 732 q 545 804 626 779 q 400 829 464 829 q 315 808 344 829 q 272 727 286 786 q 258 554 258 668 l 258 113 q 265 50 258 69 q 294 24 272 31 q 364 17 315 17 q 368 8 368 17 q 364 0 368 0 l 200 1 l 36 0 q 32 8 32 0 q 36 17 32 17 q 107 24 83 17 q 140 51 131 32 q 149 113 149 71 l 149 515 q 188 692 149 608 q 305 830 226 776 q 496 883 383 883 q 726 838 589 883 q 757 831 747 831 q 782 840 771 831 q 810 874 793 850 q 817 878 813 878 q 824 874 821 878 q 825 868 826 871 l 628 553 q 831 380 767 456 q 896 228 896 304 q 865 115 896 171 q 773 21 833 58 q 628 -17 713 -17 q 543 -8 579 -17 q 467 24 507 1 q 457 33 460 28 q 454 50 454 39 l 440 211 q 447 218 439 217 q 456 214 454 219 q 502 120 467 167 q 585 44 538 74 q 678 15 632 15 z "},"Ə":{"ha":889,"x_min":60,"x_max":815,"o":"m 389 883 q 717 757 618 883 q 815 450 815 631 q 756 200 815 306 q 597 39 697 94 q 372 -17 496 -17 q 197 22 267 -17 q 93 117 126 61 q 60 226 60 174 q 63 240 60 236 q 75 243 67 243 l 676 246 q 692 400 692 318 q 656 635 692 531 q 551 801 621 740 q 385 861 482 861 q 210 808 292 861 q 96 657 128 754 q 86 653 94 653 q 79 658 78 654 l 140 890 q 149 895 142 896 q 154 889 156 894 q 153 876 153 885 q 160 855 153 863 q 178 847 167 847 q 192 850 181 847 q 293 876 247 868 q 389 883 339 883 m 421 10 q 578 64 515 10 q 669 218 642 118 l 182 213 q 258 65 192 121 q 421 10 324 10 z "},"T":{"ha":885,"x_min":53,"x_max":835,"o":"m 276 840 q 142 792 190 840 q 69 639 93 744 q 60 636 68 636 q 53 639 53 636 q 65 767 58 679 q 72 899 72 854 q 81 906 72 906 q 89 899 89 906 q 165 868 89 868 q 444 864 283 864 q 618 867 526 864 l 713 868 q 788 875 764 868 q 818 903 811 882 q 827 908 819 908 q 835 903 835 908 q 826 778 831 864 q 821 639 821 692 q 813 636 821 636 q 806 639 806 636 q 750 793 796 746 q 614 840 704 840 q 540 834 563 840 q 510 810 518 828 q 501 753 501 793 l 501 113 q 510 50 501 69 q 546 24 519 31 q 631 17 572 17 q 633 8 633 17 q 631 0 633 0 q 554 1 582 0 l 444 3 l 338 1 q 260 0 310 0 q 256 8 256 0 q 260 17 256 17 q 343 24 317 17 q 379 51 369 31 q 389 113 389 71 l 389 756 q 381 812 389 794 q 350 835 372 829 q 276 840 328 840 z "},"Ŧ":{"ha":878,"x_min":53,"x_max":835,"o":"m 818 903 q 827 908 819 908 q 835 903 835 908 q 826 778 831 864 q 821 639 821 692 q 813 636 821 636 q 806 639 806 636 q 750 793 796 746 q 614 840 704 840 q 540 834 563 840 q 510 810 518 828 q 501 753 501 793 l 501 464 l 636 464 q 641 459 639 464 q 643 449 643 454 q 641 438 643 443 q 636 432 639 432 l 501 432 l 501 113 q 510 50 501 69 q 546 24 519 31 q 631 17 572 17 q 633 8 633 17 q 631 0 633 0 q 554 1 582 0 l 444 3 l 338 1 q 260 0 310 0 q 256 8 256 0 q 260 17 256 17 q 343 24 317 17 q 379 51 369 31 q 389 113 389 71 l 389 432 l 256 432 q 250 449 250 432 q 256 464 250 464 l 389 464 l 389 756 q 381 812 389 794 q 350 835 372 829 q 276 840 328 840 q 142 792 190 840 q 69 639 93 744 q 60 636 68 636 q 53 639 53 636 q 65 767 58 679 q 72 899 72 854 q 81 906 72 906 q 89 899 89 906 q 165 868 89 868 q 444 864 283 864 q 618 867 526 864 l 713 868 q 788 875 764 868 q 818 903 811 882 z "},"Ť":{"ha":885,"x_min":53,"x_max":835,"o":"m 276 840 q 142 792 190 840 q 69 639 93 744 q 60 636 68 636 q 53 639 53 636 q 65 767 58 679 q 72 899 72 854 q 81 906 72 906 q 89 899 89 906 q 165 868 89 868 q 444 864 283 864 q 618 867 526 864 l 713 868 q 788 875 764 868 q 818 903 811 882 q 827 908 819 908 q 835 903 835 908 q 826 778 831 864 q 821 639 821 692 q 813 636 821 636 q 806 639 806 636 q 750 793 796 746 q 614 840 704 840 q 540 834 563 840 q 510 810 518 828 q 501 753 501 793 l 501 113 q 510 50 501 69 q 546 24 519 31 q 631 17 572 17 q 633 8 633 17 q 631 0 633 0 q 554 1 582 0 l 444 3 l 338 1 q 260 0 310 0 q 256 8 256 0 q 260 17 256 17 q 343 24 317 17 q 379 51 369 31 q 389 113 389 71 l 389 756 q 381 812 389 794 q 350 835 372 829 q 276 840 328 840 m 283 1097 q 282 1098 282 1097 q 282 1099 282 1099 q 285 1105 282 1101 q 292 1107 289 1108 l 443 1035 l 593 1107 l 594 1107 q 601 1103 599 1107 q 600 1097 603 1100 l 458 954 q 443 949 453 949 q 426 954 432 949 l 283 1097 z "},"Ţ":{"ha":885,"x_min":53,"x_max":835,"o":"m 818 903 q 827 908 819 908 q 835 903 835 908 q 826 778 831 864 q 821 639 821 692 q 813 636 821 636 q 806 639 806 636 q 750 793 796 746 q 614 840 704 840 q 540 834 563 840 q 510 810 518 828 q 501 753 501 793 l 501 113 q 510 50 501 69 q 546 24 519 31 q 631 17 572 17 q 633 8 633 17 q 631 0 633 0 q 556 1 583 0 l 453 3 q 439 -69 439 -50 q 451 -106 439 -92 q 493 -137 463 -121 q 549 -182 528 -157 q 569 -244 569 -207 q 531 -340 569 -299 q 417 -382 493 -382 q 348 -367 374 -382 q 322 -325 322 -353 q 336 -293 322 -307 q 369 -279 350 -279 q 398 -288 389 -279 q 415 -315 407 -297 q 433 -343 424 -333 q 464 -353 443 -353 q 507 -306 507 -353 q 481 -241 507 -269 q 389 -176 456 -212 q 371 -158 371 -167 q 378 -135 371 -153 q 431 3 401 -79 l 333 1 q 260 0 307 0 q 256 8 256 0 q 260 17 256 17 q 343 24 317 17 q 379 51 369 31 q 389 113 389 71 l 389 756 q 381 812 389 794 q 350 835 372 829 q 276 840 328 840 q 142 792 190 840 q 69 639 93 744 q 60 636 68 636 q 53 639 53 636 q 65 767 58 679 q 72 899 72 854 q 81 906 72 906 q 89 899 89 906 q 165 868 89 868 q 444 864 283 864 q 618 867 526 864 l 713 868 q 788 875 764 868 q 818 903 811 882 z "},"Ț":{"ha":885,"x_min":53,"x_max":835,"o":"m 276 840 q 142 792 190 840 q 69 639 93 744 q 60 636 68 636 q 53 639 53 636 q 65 767 58 679 q 72 899 72 854 q 81 906 72 906 q 89 899 89 906 q 165 868 89 868 q 444 864 283 864 q 618 867 526 864 l 713 868 q 788 875 764 868 q 818 903 811 882 q 827 908 819 908 q 835 903 835 908 q 826 778 831 864 q 821 639 821 692 q 813 636 821 636 q 806 639 806 636 q 750 793 796 746 q 614 840 704 840 q 540 834 563 840 q 510 810 518 828 q 501 753 501 793 l 501 113 q 510 50 501 69 q 546 24 519 31 q 631 17 572 17 q 633 8 633 17 q 631 0 633 0 q 554 1 582 0 l 444 3 l 338 1 q 260 0 310 0 q 256 8 256 0 q 260 17 256 17 q 343 24 317 17 q 379 51 369 31 q 389 113 389 71 l 389 756 q 381 812 389 794 q 350 835 372 829 q 276 840 328 840 m 442 -111 q 504 -139 482 -111 q 526 -215 526 -167 q 503 -304 526 -264 q 435 -382 479 -344 l 432 -383 q 424 -378 426 -383 q 424 -371 421 -374 q 488 -256 488 -317 q 478 -214 488 -229 q 431 -236 465 -236 q 388 -219 404 -236 q 372 -174 372 -201 q 392 -126 372 -142 q 442 -111 411 -111 z "},"Ṭ":{"ha":885,"x_min":53,"x_max":835,"o":"m 276 840 q 142 792 190 840 q 69 639 93 744 q 60 636 68 636 q 53 639 53 636 q 65 767 58 679 q 72 899 72 854 q 81 906 72 906 q 89 899 89 906 q 165 868 89 868 q 444 864 283 864 q 618 867 526 864 l 713 868 q 788 875 764 868 q 818 903 811 882 q 827 908 819 908 q 835 903 835 908 q 826 778 831 864 q 821 639 821 692 q 813 636 821 636 q 806 639 806 636 q 750 793 796 746 q 614 840 704 840 q 540 834 563 840 q 510 810 518 828 q 501 753 501 793 l 501 113 q 510 50 501 69 q 546 24 519 31 q 631 17 572 17 q 633 8 633 17 q 631 0 633 0 q 554 1 582 0 l 444 3 l 338 1 q 260 0 310 0 q 256 8 256 0 q 260 17 256 17 q 343 24 317 17 q 379 51 369 31 q 389 113 389 71 l 389 756 q 381 812 389 794 q 350 835 372 829 q 276 840 328 840 m 451 -272 q 401 -254 419 -272 q 382 -204 382 -236 q 401 -156 382 -174 q 451 -139 419 -139 q 499 -156 482 -139 q 517 -204 517 -174 q 499 -254 517 -236 q 451 -272 482 -272 z "},"Ṯ":{"ha":885,"x_min":53,"x_max":835,"o":"m 276 840 q 142 792 190 840 q 69 639 93 744 q 60 636 68 636 q 53 639 53 636 q 65 767 58 679 q 72 899 72 854 q 81 906 72 906 q 89 899 89 906 q 165 868 89 868 q 444 864 283 864 q 618 867 526 864 l 713 868 q 788 875 764 868 q 818 903 811 882 q 827 908 819 908 q 835 903 835 908 q 826 778 831 864 q 821 639 821 692 q 813 636 821 636 q 806 639 806 636 q 750 793 796 746 q 614 840 704 840 q 540 834 563 840 q 510 810 518 828 q 501 753 501 793 l 501 113 q 510 50 501 69 q 546 24 519 31 q 631 17 572 17 q 633 8 633 17 q 631 0 633 0 q 554 1 582 0 l 444 3 l 338 1 q 260 0 310 0 q 256 8 256 0 q 260 17 256 17 q 343 24 317 17 q 379 51 369 31 q 389 113 389 71 l 389 756 q 381 812 389 794 q 350 835 372 829 q 276 840 328 840 m 275 -161 q 267 -155 269 -161 q 264 -140 264 -149 q 267 -125 264 -132 q 275 -118 269 -118 l 624 -118 q 633 -140 633 -118 q 624 -161 633 -161 l 275 -161 z "},"U":{"ha":972,"x_min":38,"x_max":947,"o":"m 794 707 q 763 815 794 778 q 671 851 732 851 q 667 860 667 851 q 671 868 667 868 l 733 867 q 813 864 783 864 q 885 867 838 864 l 944 868 q 947 860 947 868 q 944 851 947 851 q 832 707 832 851 l 832 315 q 741 71 832 160 q 499 -18 650 -18 q 318 22 396 -18 q 197 135 240 61 q 154 310 154 210 l 154 756 q 146 817 154 797 q 115 844 138 836 q 42 851 92 851 q 38 860 38 851 q 42 868 38 868 l 111 867 q 208 864 172 864 q 308 867 247 864 l 375 868 q 379 860 379 868 q 375 851 379 851 q 303 843 326 851 q 272 815 281 835 q 264 753 264 794 l 264 358 q 335 110 264 194 q 536 26 407 26 q 726 102 657 26 q 794 314 794 178 l 794 707 z "},"Ú":{"ha":972,"x_min":38,"x_max":947,"o":"m 794 707 q 763 815 794 778 q 671 851 732 851 q 667 860 667 851 q 671 868 667 868 l 733 867 q 813 864 783 864 q 885 867 838 864 l 944 868 q 947 860 947 868 q 944 851 947 851 q 832 707 832 851 l 832 315 q 741 71 832 160 q 499 -18 650 -18 q 318 22 396 -18 q 197 135 240 61 q 154 310 154 210 l 154 756 q 146 817 154 797 q 115 844 138 836 q 42 851 92 851 q 38 860 38 851 q 42 868 38 868 l 111 867 q 208 864 172 864 q 308 867 247 864 l 375 868 q 379 860 379 868 q 375 851 379 851 q 303 843 326 851 q 272 815 281 835 q 264 753 264 794 l 264 358 q 335 110 264 194 q 536 26 407 26 q 726 102 657 26 q 794 314 794 178 l 794 707 m 382 942 q 375 948 376 942 q 378 957 374 954 q 521 1049 428 985 q 588 1093 565 1079 q 626 1088 594 1097 q 681 1065 657 1078 q 693 1050 706 1053 q 535 1003 607 1029 q 385 943 464 978 l 382 942 z "},"Ŭ":{"ha":972,"x_min":38,"x_max":947,"o":"m 794 707 q 763 815 794 778 q 671 851 732 851 q 667 860 667 851 q 671 868 667 868 l 733 867 q 813 864 783 864 q 885 867 838 864 l 944 868 q 947 860 947 868 q 944 851 947 851 q 832 707 832 851 l 832 315 q 741 71 832 160 q 499 -18 650 -18 q 318 22 396 -18 q 197 135 240 61 q 154 310 154 210 l 154 756 q 146 817 154 797 q 115 844 138 836 q 42 851 92 851 q 38 860 38 851 q 42 868 38 868 l 111 867 q 208 864 172 864 q 308 867 247 864 l 375 868 q 379 860 379 868 q 375 851 379 851 q 303 843 326 851 q 272 815 281 835 q 264 753 264 794 l 264 358 q 335 110 264 194 q 536 26 407 26 q 726 102 657 26 q 794 314 794 178 l 794 707 m 519 958 q 420 999 457 958 q 376 1115 383 1040 q 383 1122 375 1121 q 392 1119 390 1122 q 435 1059 399 1085 q 519 1033 472 1033 q 602 1059 565 1033 q 646 1119 639 1085 q 651 1122 646 1122 q 659 1120 656 1122 q 661 1115 663 1118 q 618 999 654 1040 q 519 958 582 958 z "},"Ǔ":{"ha":972,"x_min":38,"x_max":947,"o":"m 794 707 q 763 815 794 778 q 671 851 732 851 q 667 860 667 851 q 671 868 667 868 l 733 867 q 813 864 783 864 q 885 867 838 864 l 944 868 q 947 860 947 868 q 944 851 947 851 q 832 707 832 851 l 832 315 q 741 71 832 160 q 499 -18 650 -18 q 318 22 396 -18 q 197 135 240 61 q 154 310 154 210 l 154 756 q 146 817 154 797 q 115 844 138 836 q 42 851 92 851 q 38 860 38 851 q 42 868 38 868 l 111 867 q 208 864 172 864 q 308 867 247 864 l 375 868 q 379 860 379 868 q 375 851 379 851 q 303 843 326 851 q 272 815 281 835 q 264 753 264 794 l 264 358 q 335 110 264 194 q 536 26 407 26 q 726 102 657 26 q 794 314 794 178 l 794 707 m 360 1097 q 358 1098 358 1097 q 358 1099 358 1099 q 362 1105 358 1101 q 368 1107 365 1108 l 519 1035 l 669 1107 l 671 1107 q 677 1103 675 1107 q 676 1097 679 1100 l 535 954 q 519 949 529 949 q 503 954 508 949 l 360 1097 z "},"Û":{"ha":972,"x_min":38,"x_max":947,"o":"m 794 707 q 763 815 794 778 q 671 851 732 851 q 667 860 667 851 q 671 868 667 868 l 733 867 q 813 864 783 864 q 885 867 838 864 l 944 868 q 947 860 947 868 q 944 851 947 851 q 832 707 832 851 l 832 315 q 741 71 832 160 q 499 -18 650 -18 q 318 22 396 -18 q 197 135 240 61 q 154 310 154 210 l 154 756 q 146 817 154 797 q 115 844 138 836 q 42 851 92 851 q 38 860 38 851 q 42 868 38 868 l 111 867 q 208 864 172 864 q 308 867 247 864 l 375 868 q 379 860 379 868 q 375 851 379 851 q 303 843 326 851 q 272 815 281 835 q 264 753 264 794 l 264 358 q 335 110 264 194 q 536 26 407 26 q 726 102 657 26 q 794 314 794 178 l 794 707 m 504 1110 q 521 1117 511 1117 q 536 1110 529 1117 l 678 965 q 679 963 679 965 q 676 957 679 960 q 671 956 672 954 l 521 1028 l 369 956 q 363 959 367 954 q 361 965 358 964 l 504 1110 z "},"Ü":{"ha":972,"x_min":38,"x_max":947,"o":"m 794 707 q 763 815 794 778 q 671 851 732 851 q 667 860 667 851 q 671 868 667 868 l 733 867 q 813 864 783 864 q 885 867 838 864 l 944 868 q 947 860 947 868 q 944 851 947 851 q 832 707 832 851 l 832 315 q 741 71 832 160 q 499 -18 650 -18 q 318 22 396 -18 q 197 135 240 61 q 154 310 154 210 l 154 756 q 146 817 154 797 q 115 844 138 836 q 42 851 92 851 q 38 860 38 851 q 42 868 38 868 l 111 867 q 208 864 172 864 q 308 867 247 864 l 375 868 q 379 860 379 868 q 375 851 379 851 q 303 843 326 851 q 272 815 281 835 q 264 753 264 794 l 264 358 q 335 110 264 194 q 536 26 407 26 q 726 102 657 26 q 794 314 794 178 l 794 707 m 399 989 q 351 1006 368 989 q 335 1053 335 1022 q 351 1098 335 1082 q 399 1114 368 1114 q 445 1098 429 1114 q 461 1053 461 1082 q 445 1006 461 1022 q 399 989 429 989 m 642 989 q 594 1006 611 989 q 578 1053 578 1022 q 594 1098 578 1082 q 642 1114 611 1114 q 688 1098 672 1114 q 704 1053 704 1082 q 688 1006 704 1022 q 642 989 672 989 z "},"Ǘ":{"ha":972,"x_min":38,"x_max":947,"o":"m 794 707 q 763 815 794 778 q 671 851 732 851 q 667 860 667 851 q 671 868 667 868 l 733 867 q 813 864 783 864 q 885 867 838 864 l 944 868 q 947 860 947 868 q 944 851 947 851 q 832 707 832 851 l 832 315 q 741 71 832 160 q 499 -18 650 -18 q 318 22 396 -18 q 197 135 240 61 q 154 310 154 210 l 154 756 q 146 817 154 797 q 115 844 138 836 q 42 851 92 851 q 38 860 38 851 q 42 868 38 868 l 111 867 q 208 864 172 864 q 308 867 247 864 l 375 868 q 379 860 379 868 q 375 851 379 851 q 303 843 326 851 q 272 815 281 835 q 264 753 264 794 l 264 358 q 335 110 264 194 q 536 26 407 26 q 726 102 657 26 q 794 314 794 178 l 794 707 m 350 1139 q 342 1145 344 1139 q 346 1154 340 1151 q 501 1239 396 1179 q 589 1288 560 1272 q 628 1282 596 1292 q 683 1260 660 1272 q 694 1244 707 1247 q 351 1139 507 1203 l 350 1139 m 399 974 q 351 990 368 974 q 335 1038 335 1007 q 351 1081 335 1065 q 399 1097 368 1097 q 445 1081 429 1097 q 461 1038 461 1065 q 445 990 461 1007 q 399 974 429 974 m 642 974 q 594 990 611 974 q 578 1038 578 1007 q 594 1081 578 1065 q 642 1097 611 1097 q 688 1081 672 1097 q 704 1038 704 1065 q 688 990 704 1007 q 642 974 672 974 z "},"Ǚ":{"ha":972,"x_min":38,"x_max":947,"o":"m 794 707 q 763 815 794 778 q 671 851 732 851 q 667 860 667 851 q 671 868 667 868 l 733 867 q 813 864 783 864 q 885 867 838 864 l 944 868 q 947 860 947 868 q 944 851 947 851 q 832 707 832 851 l 832 315 q 741 71 832 160 q 499 -18 650 -18 q 318 22 396 -18 q 197 135 240 61 q 154 310 154 210 l 154 756 q 146 817 154 797 q 115 844 138 836 q 42 851 92 851 q 38 860 38 851 q 42 868 38 868 l 111 867 q 208 864 172 864 q 308 867 247 864 l 375 868 q 379 860 379 868 q 375 851 379 851 q 303 843 326 851 q 272 815 281 835 q 264 753 264 794 l 264 358 q 335 110 264 194 q 536 26 407 26 q 726 102 657 26 q 794 314 794 178 l 794 707 m 356 1275 q 354 1276 354 1275 q 354 1276 354 1276 q 358 1283 354 1279 q 364 1285 361 1286 l 524 1206 l 682 1285 l 685 1285 q 691 1281 689 1285 q 690 1275 693 1278 l 538 1132 q 522 1126 533 1126 q 507 1132 513 1126 l 356 1275 m 399 974 q 351 990 368 974 q 335 1038 335 1007 q 351 1081 335 1065 q 399 1097 368 1097 q 445 1081 429 1097 q 461 1038 461 1065 q 445 990 461 1007 q 399 974 429 974 m 642 974 q 594 990 611 974 q 578 1038 578 1007 q 594 1081 578 1065 q 642 1097 611 1097 q 688 1081 672 1097 q 704 1038 704 1065 q 688 990 704 1007 q 642 974 672 974 z "},"Ǜ":{"ha":972,"x_min":38,"x_max":947,"o":"m 794 707 q 763 815 794 778 q 671 851 732 851 q 667 860 667 851 q 671 868 667 868 l 733 867 q 813 864 783 864 q 885 867 838 864 l 944 868 q 947 860 947 868 q 944 851 947 851 q 832 707 832 851 l 832 315 q 741 71 832 160 q 499 -18 650 -18 q 318 22 396 -18 q 197 135 240 61 q 154 310 154 210 l 154 756 q 146 817 154 797 q 115 844 138 836 q 42 851 92 851 q 38 860 38 851 q 42 868 38 868 l 111 867 q 208 864 172 864 q 308 867 247 864 l 375 868 q 379 860 379 868 q 375 851 379 851 q 303 843 326 851 q 272 815 281 835 q 264 753 264 794 l 264 358 q 335 110 264 194 q 536 26 407 26 q 726 102 657 26 q 794 314 794 178 l 794 707 m 706 1139 q 364 1244 550 1203 q 376 1260 351 1247 q 432 1282 400 1272 q 471 1288 464 1292 l 551 1242 q 713 1154 644 1188 q 715 1149 715 1153 q 713 1141 715 1144 q 706 1139 710 1138 m 417 974 q 372 990 388 974 q 356 1038 356 1007 q 372 1081 356 1065 q 417 1097 388 1097 q 464 1081 447 1097 q 481 1038 481 1065 q 464 990 481 1007 q 417 974 447 974 m 660 974 q 613 990 629 974 q 597 1038 597 1007 q 613 1081 597 1065 q 660 1097 629 1097 q 708 1081 690 1097 q 725 1038 725 1065 q 708 990 725 1007 q 660 974 690 974 z "},"Ǖ":{"ha":972,"x_min":38,"x_max":947,"o":"m 794 707 q 763 815 794 778 q 671 851 732 851 q 667 860 667 851 q 671 868 667 868 l 733 867 q 813 864 783 864 q 885 867 838 864 l 944 868 q 947 860 947 868 q 944 851 947 851 q 832 707 832 851 l 832 315 q 741 71 832 160 q 499 -18 650 -18 q 318 22 396 -18 q 197 135 240 61 q 154 310 154 210 l 154 756 q 146 817 154 797 q 115 844 138 836 q 42 851 92 851 q 38 860 38 851 q 42 868 38 868 l 111 867 q 208 864 172 864 q 308 867 247 864 l 375 868 q 379 860 379 868 q 375 851 379 851 q 303 843 326 851 q 272 815 281 835 q 264 753 264 794 l 264 358 q 335 110 264 194 q 536 26 407 26 q 726 102 657 26 q 794 314 794 178 l 794 707 m 353 1168 q 343 1190 343 1168 q 353 1211 343 1211 l 685 1211 q 693 1205 690 1211 q 696 1190 696 1199 q 693 1175 696 1182 q 685 1168 690 1168 l 353 1168 m 399 974 q 351 990 368 974 q 335 1038 335 1007 q 351 1081 335 1065 q 399 1097 368 1097 q 445 1081 429 1097 q 461 1038 461 1065 q 445 990 461 1007 q 399 974 429 974 m 642 974 q 594 990 611 974 q 578 1038 578 1007 q 594 1081 578 1065 q 642 1097 611 1097 q 688 1081 672 1097 q 704 1038 704 1065 q 688 990 704 1007 q 642 974 672 974 z "},"Ụ":{"ha":972,"x_min":38,"x_max":947,"o":"m 794 707 q 763 815 794 778 q 671 851 732 851 q 667 860 667 851 q 671 868 667 868 l 733 867 q 813 864 783 864 q 885 867 838 864 l 944 868 q 947 860 947 868 q 944 851 947 851 q 832 707 832 851 l 832 315 q 741 71 832 160 q 499 -18 650 -18 q 318 22 396 -18 q 197 135 240 61 q 154 310 154 210 l 154 756 q 146 817 154 797 q 115 844 138 836 q 42 851 92 851 q 38 860 38 851 q 42 868 38 868 l 111 867 q 208 864 172 864 q 308 867 247 864 l 375 868 q 379 860 379 868 q 375 851 379 851 q 303 843 326 851 q 272 815 281 835 q 264 753 264 794 l 264 358 q 335 110 264 194 q 536 26 407 26 q 726 102 657 26 q 794 314 794 178 l 794 707 m 488 -272 q 437 -254 456 -272 q 418 -204 418 -236 q 437 -156 418 -174 q 488 -139 456 -139 q 535 -156 518 -139 q 553 -204 553 -174 q 535 -254 553 -236 q 488 -272 518 -272 z "},"Ù":{"ha":972,"x_min":38,"x_max":947,"o":"m 794 707 q 763 815 794 778 q 671 851 732 851 q 667 860 667 851 q 671 868 667 868 l 733 867 q 813 864 783 864 q 885 867 838 864 l 944 868 q 947 860 947 868 q 944 851 947 851 q 832 707 832 851 l 832 315 q 741 71 832 160 q 499 -18 650 -18 q 318 22 396 -18 q 197 135 240 61 q 154 310 154 210 l 154 756 q 146 817 154 797 q 115 844 138 836 q 42 851 92 851 q 38 860 38 851 q 42 868 38 868 l 111 867 q 208 864 172 864 q 308 867 247 864 l 375 868 q 379 860 379 868 q 375 851 379 851 q 303 843 326 851 q 272 815 281 835 q 264 753 264 794 l 264 358 q 335 110 264 194 q 536 26 407 26 q 726 102 657 26 q 794 314 794 178 l 794 707 m 657 943 q 349 1050 501 1013 q 360 1065 336 1053 q 416 1088 383 1078 q 454 1093 449 1097 q 525 1046 501 1063 q 663 957 617 983 q 667 951 667 956 q 664 944 667 947 q 657 943 661 942 z "},"Ủ":{"ha":972,"x_min":38,"x_max":947,"o":"m 794 707 q 763 815 794 778 q 671 851 732 851 q 667 860 667 851 q 671 868 667 868 l 733 867 q 813 864 783 864 q 885 867 838 864 l 944 868 q 947 860 947 868 q 944 851 947 851 q 832 707 832 851 l 832 315 q 741 71 832 160 q 499 -18 650 -18 q 318 22 396 -18 q 197 135 240 61 q 154 310 154 210 l 154 756 q 146 817 154 797 q 115 844 138 836 q 42 851 92 851 q 38 860 38 851 q 42 868 38 868 l 111 867 q 208 864 172 864 q 308 867 247 864 l 375 868 q 379 860 379 868 q 375 851 379 851 q 303 843 326 851 q 272 815 281 835 q 264 753 264 794 l 264 358 q 335 110 264 194 q 536 26 407 26 q 726 102 657 26 q 794 314 794 178 l 794 707 m 522 904 q 516 901 524 901 q 507 904 508 901 q 503 935 503 921 q 510 974 503 956 q 529 1017 517 993 q 548 1054 542 1039 q 554 1088 554 1069 q 540 1128 554 1114 q 501 1142 525 1142 q 458 1131 486 1142 l 457 1131 q 449 1135 453 1131 q 449 1142 444 1139 q 547 1174 493 1174 q 614 1153 589 1174 q 639 1101 639 1133 q 624 1053 639 1075 q 578 1000 608 1032 q 533 949 547 971 q 522 904 518 928 z "},"Ư":{"ha":972,"x_min":38,"x_max":1035,"o":"m 832 300 q 740 67 832 151 q 494 -18 647 -18 q 247 66 339 -18 q 154 296 154 150 l 154 756 q 146 817 154 797 q 115 844 138 836 q 42 851 92 851 q 38 860 38 851 q 42 868 38 868 l 111 867 q 208 864 172 864 q 308 867 247 864 l 375 868 q 379 860 379 868 q 375 851 379 851 q 303 843 326 851 q 272 815 281 835 q 264 753 264 794 l 264 344 q 335 107 264 188 q 531 26 407 26 q 724 99 654 26 q 794 299 794 171 l 794 707 q 763 815 794 778 q 671 851 732 851 q 667 860 667 851 q 671 868 667 868 l 733 867 q 813 864 783 864 q 911 877 881 864 q 942 924 942 890 q 936 947 942 938 q 929 958 931 956 q 915 996 915 978 q 934 1039 915 1024 q 976 1054 953 1054 q 1020 1034 1006 1054 q 1035 985 1035 1014 q 907 853 1035 901 q 853 808 874 839 q 832 707 832 778 l 832 300 z "},"Ứ":{"ha":972,"x_min":38,"x_max":1035,"o":"m 832 300 q 740 67 832 151 q 494 -18 647 -18 q 247 66 339 -18 q 154 296 154 150 l 154 756 q 146 817 154 797 q 115 844 138 836 q 42 851 92 851 q 38 860 38 851 q 42 868 38 868 l 111 867 q 208 864 172 864 q 308 867 247 864 l 375 868 q 379 860 379 868 q 375 851 379 851 q 303 843 326 851 q 272 815 281 835 q 264 753 264 794 l 264 344 q 335 107 264 188 q 531 26 407 26 q 724 99 654 26 q 794 299 794 171 l 794 707 q 763 815 794 778 q 671 851 732 851 q 667 860 667 851 q 671 868 667 868 l 733 867 q 813 864 783 864 q 911 877 881 864 q 942 924 942 890 q 936 947 942 938 q 929 958 931 956 q 915 996 915 978 q 934 1039 915 1024 q 976 1054 953 1054 q 1020 1034 1006 1054 q 1035 985 1035 1014 q 907 853 1035 901 q 853 808 874 839 q 832 707 832 778 l 832 300 m 385 942 q 377 948 379 942 q 379 957 375 954 q 515 1043 443 992 q 589 1092 581 1086 q 627 1086 596 1096 q 683 1064 658 1076 q 694 1050 707 1051 q 386 942 531 1008 l 385 942 z "},"Ự":{"ha":972,"x_min":38,"x_max":1035,"o":"m 832 300 q 740 67 832 151 q 494 -18 647 -18 q 247 66 339 -18 q 154 296 154 150 l 154 756 q 146 817 154 797 q 115 844 138 836 q 42 851 92 851 q 38 860 38 851 q 42 868 38 868 l 111 867 q 208 864 172 864 q 308 867 247 864 l 375 868 q 379 860 379 868 q 375 851 379 851 q 303 843 326 851 q 272 815 281 835 q 264 753 264 794 l 264 344 q 335 107 264 188 q 531 26 407 26 q 724 99 654 26 q 794 299 794 171 l 794 707 q 763 815 794 778 q 671 851 732 851 q 667 860 667 851 q 671 868 667 868 l 733 867 q 813 864 783 864 q 911 877 881 864 q 942 924 942 890 q 936 947 942 938 q 929 958 931 956 q 915 996 915 978 q 934 1039 915 1024 q 976 1054 953 1054 q 1020 1034 1006 1054 q 1035 985 1035 1014 q 907 853 1035 901 q 853 808 874 839 q 832 707 832 778 l 832 300 m 514 -272 q 463 -254 482 -272 q 444 -204 444 -236 q 463 -156 444 -174 q 514 -139 482 -139 q 562 -156 544 -139 q 579 -204 579 -174 q 562 -254 579 -236 q 514 -272 544 -272 z "},"Ừ":{"ha":972,"x_min":38,"x_max":1035,"o":"m 832 300 q 740 67 832 151 q 494 -18 647 -18 q 247 66 339 -18 q 154 296 154 150 l 154 756 q 146 817 154 797 q 115 844 138 836 q 42 851 92 851 q 38 860 38 851 q 42 868 38 868 l 111 867 q 208 864 172 864 q 308 867 247 864 l 375 868 q 379 860 379 868 q 375 851 379 851 q 303 843 326 851 q 272 815 281 835 q 264 753 264 794 l 264 344 q 335 107 264 188 q 531 26 407 26 q 724 99 654 26 q 794 299 794 171 l 794 707 q 763 815 794 778 q 671 851 732 851 q 667 860 667 851 q 671 868 667 868 l 733 867 q 813 864 783 864 q 911 877 881 864 q 942 924 942 890 q 936 947 942 938 q 929 958 931 956 q 915 996 915 978 q 934 1039 915 1024 q 976 1054 953 1054 q 1020 1034 1006 1054 q 1035 985 1035 1014 q 907 853 1035 901 q 853 808 874 839 q 832 707 832 778 l 832 300 m 658 943 q 350 1050 503 1013 q 361 1065 338 1053 q 417 1088 385 1078 q 456 1093 450 1097 q 526 1046 503 1063 q 664 957 618 983 q 668 951 668 956 q 665 944 668 947 q 658 943 663 942 z "},"Ử":{"ha":972,"x_min":38,"x_max":1035,"o":"m 832 300 q 740 67 832 151 q 494 -18 647 -18 q 247 66 339 -18 q 154 296 154 150 l 154 756 q 146 817 154 797 q 115 844 138 836 q 42 851 92 851 q 38 860 38 851 q 42 868 38 868 l 111 867 q 208 864 172 864 q 308 867 247 864 l 375 868 q 379 860 379 868 q 375 851 379 851 q 303 843 326 851 q 272 815 281 835 q 264 753 264 794 l 264 344 q 335 107 264 188 q 531 26 407 26 q 724 99 654 26 q 794 299 794 171 l 794 707 q 763 815 794 778 q 671 851 732 851 q 667 860 667 851 q 671 868 667 868 l 733 867 q 813 864 783 864 q 911 877 881 864 q 942 924 942 890 q 936 947 942 938 q 929 958 931 956 q 915 996 915 978 q 934 1039 915 1024 q 976 1054 953 1054 q 1020 1034 1006 1054 q 1035 985 1035 1014 q 907 853 1035 901 q 853 808 874 839 q 832 707 832 778 l 832 300 m 524 904 q 517 901 525 901 q 508 904 510 901 q 504 935 504 921 q 511 974 504 956 q 531 1017 518 993 q 549 1054 543 1039 q 556 1088 556 1069 q 541 1128 556 1114 q 503 1142 526 1142 q 460 1131 488 1142 l 458 1131 q 450 1135 454 1131 q 450 1142 446 1139 q 549 1174 494 1174 q 615 1153 590 1174 q 640 1101 640 1133 q 625 1053 640 1075 q 579 1000 610 1032 q 534 949 549 971 q 524 904 519 928 z "},"Ữ":{"ha":972,"x_min":38,"x_max":1035,"o":"m 832 300 q 740 67 832 151 q 494 -18 647 -18 q 247 66 339 -18 q 154 296 154 150 l 154 756 q 146 817 154 797 q 115 844 138 836 q 42 851 92 851 q 38 860 38 851 q 42 868 38 868 l 111 867 q 208 864 172 864 q 308 867 247 864 l 375 868 q 379 860 379 868 q 375 851 379 851 q 303 843 326 851 q 272 815 281 835 q 264 753 264 794 l 264 344 q 335 107 264 188 q 531 26 407 26 q 724 99 654 26 q 794 299 794 171 l 794 707 q 763 815 794 778 q 671 851 732 851 q 667 860 667 851 q 671 868 667 868 l 733 867 q 813 864 783 864 q 911 877 881 864 q 942 924 942 890 q 936 947 942 938 q 929 958 931 956 q 915 996 915 978 q 934 1039 915 1024 q 976 1054 953 1054 q 1020 1034 1006 1054 q 1035 985 1035 1014 q 907 853 1035 901 q 853 808 874 839 q 832 707 832 778 l 832 300 m 626 1064 q 665 1073 650 1064 q 696 1101 679 1082 l 697 1101 q 705 1098 701 1101 q 706 1092 708 1094 q 646 1017 669 1036 q 594 997 622 997 q 511 1014 567 997 q 476 1024 506 1015 q 415 1032 446 1032 q 381 1025 393 1032 q 359 1008 368 1018 q 346 994 350 999 l 343 994 q 336 998 339 994 q 336 1004 333 1001 q 454 1097 399 1097 q 524 1083 474 1097 q 626 1064 588 1064 z "},"Ű":{"ha":972,"x_min":38,"x_max":947,"o":"m 794 707 q 763 815 794 778 q 671 851 732 851 q 667 860 667 851 q 671 868 667 868 l 733 867 q 813 864 783 864 q 885 867 838 864 l 944 868 q 947 860 947 868 q 944 851 947 851 q 832 707 832 851 l 832 315 q 741 71 832 160 q 499 -18 650 -18 q 318 22 396 -18 q 197 135 240 61 q 154 310 154 210 l 154 756 q 146 817 154 797 q 115 844 138 836 q 42 851 92 851 q 38 860 38 851 q 42 868 38 868 l 111 867 q 208 864 172 864 q 308 867 247 864 l 375 868 q 379 860 379 868 q 375 851 379 851 q 303 843 326 851 q 272 815 281 835 q 264 753 264 794 l 264 358 q 335 110 264 194 q 536 26 407 26 q 726 102 657 26 q 794 314 794 178 l 794 707 m 371 936 q 367 935 369 935 q 360 941 363 935 q 361 950 358 947 q 486 1096 432 1022 q 521 1095 490 1103 q 575 1075 551 1088 q 588 1057 599 1063 q 371 936 483 1013 m 556 936 q 551 935 554 935 q 545 941 547 935 q 546 950 543 947 q 671 1096 596 1001 q 705 1095 675 1103 q 758 1075 735 1088 q 769 1057 781 1063 q 556 936 667 1011 z "},"Ū":{"ha":972,"x_min":38,"x_max":947,"o":"m 794 707 q 763 815 794 778 q 671 851 732 851 q 667 860 667 851 q 671 868 667 868 l 733 867 q 813 864 783 864 q 885 867 838 864 l 944 868 q 947 860 947 868 q 944 851 947 851 q 832 707 832 851 l 832 315 q 741 71 832 160 q 499 -18 650 -18 q 318 22 396 -18 q 197 135 240 61 q 154 310 154 210 l 154 756 q 146 817 154 797 q 115 844 138 836 q 42 851 92 851 q 38 860 38 851 q 42 868 38 868 l 111 867 q 208 864 172 864 q 308 867 247 864 l 375 868 q 379 860 379 868 q 375 851 379 851 q 303 843 326 851 q 272 815 281 835 q 264 753 264 794 l 264 358 q 335 110 264 194 q 536 26 407 26 q 726 102 657 26 q 794 314 794 178 l 794 707 m 344 999 q 335 1021 335 999 q 344 1042 335 1042 l 693 1042 q 701 1035 699 1042 q 704 1021 704 1029 q 701 1006 704 1013 q 693 999 699 999 l 344 999 z "},"Ų":{"ha":972,"x_min":38,"x_max":947,"o":"m 944 868 q 947 860 947 868 q 944 851 947 851 q 832 707 832 851 l 832 315 q 770 104 832 188 q 599 -7 708 21 q 530 -94 551 -51 q 508 -187 508 -136 q 542 -295 508 -256 q 639 -335 576 -335 q 719 -308 682 -335 l 722 -308 q 730 -312 726 -308 q 729 -319 733 -317 q 578 -382 657 -382 q 462 -342 504 -382 q 419 -240 419 -303 q 563 -14 419 -128 q 499 -18 532 -18 q 318 22 396 -18 q 197 135 240 61 q 154 310 154 210 l 154 756 q 146 817 154 797 q 115 844 138 836 q 42 851 92 851 q 38 860 38 851 q 42 868 38 868 l 111 867 q 208 864 172 864 q 308 867 247 864 l 375 868 q 379 860 379 868 q 375 851 379 851 q 303 843 326 851 q 272 815 281 835 q 264 753 264 794 l 264 358 q 335 110 264 194 q 536 26 407 26 q 726 102 657 26 q 794 314 794 178 l 794 707 q 763 815 794 778 q 671 851 732 851 q 667 860 667 851 q 671 868 667 868 l 733 867 q 813 864 783 864 q 885 867 838 864 l 944 868 z "},"Ů":{"ha":972,"x_min":38,"x_max":947,"o":"m 794 707 q 763 815 794 778 q 671 851 732 851 q 667 860 667 851 q 671 868 667 868 l 733 867 q 813 864 783 864 q 885 867 838 864 l 944 868 q 947 860 947 868 q 944 851 947 851 q 832 707 832 851 l 832 315 q 741 71 832 160 q 499 -18 650 -18 q 318 22 396 -18 q 197 135 240 61 q 154 310 154 210 l 154 756 q 146 817 154 797 q 115 844 138 836 q 42 851 92 851 q 38 860 38 851 q 42 868 38 868 l 111 867 q 208 864 172 864 q 308 867 247 864 l 375 868 q 379 860 379 868 q 375 851 379 851 q 303 843 326 851 q 272 815 281 835 q 264 753 264 794 l 264 358 q 335 110 264 194 q 536 26 407 26 q 726 102 657 26 q 794 314 794 178 l 794 707 m 507 982 q 412 1015 447 982 q 376 1092 376 1047 q 422 1171 376 1142 q 521 1200 467 1200 q 613 1167 574 1200 q 651 1089 651 1135 q 607 1011 651 1040 q 507 982 563 982 m 529 997 q 575 1064 575 997 q 551 1148 575 1113 q 493 1183 528 1183 q 461 1167 471 1183 q 451 1119 451 1151 q 473 1035 451 1072 q 529 997 494 997 z "},"Ũ":{"ha":972,"x_min":38,"x_max":947,"o":"m 794 707 q 763 815 794 778 q 671 851 732 851 q 667 860 667 851 q 671 868 667 868 l 733 867 q 813 864 783 864 q 885 867 838 864 l 944 868 q 947 860 947 868 q 944 851 947 851 q 832 707 832 851 l 832 315 q 741 71 832 160 q 499 -18 650 -18 q 318 22 396 -18 q 197 135 240 61 q 154 310 154 210 l 154 756 q 146 817 154 797 q 115 844 138 836 q 42 851 92 851 q 38 860 38 851 q 42 868 38 868 l 111 867 q 208 864 172 864 q 308 867 247 864 l 375 868 q 379 860 379 868 q 375 851 379 851 q 303 843 326 851 q 272 815 281 835 q 264 753 264 794 l 264 358 q 335 110 264 194 q 536 26 407 26 q 726 102 657 26 q 794 314 794 178 l 794 707 m 625 1064 q 663 1073 649 1064 q 694 1101 678 1082 l 696 1101 q 703 1098 700 1101 q 704 1092 707 1094 q 644 1017 668 1036 q 593 997 621 997 q 510 1014 565 997 q 474 1024 504 1015 q 414 1032 444 1032 q 379 1025 392 1032 q 358 1008 367 1018 q 344 994 349 999 l 342 994 q 335 998 338 994 q 335 1004 332 1001 q 453 1097 397 1097 q 522 1083 472 1097 q 625 1064 586 1064 z "},"V":{"ha":922,"x_min":-3,"x_max":932,"o":"m 928 868 q 932 860 932 868 q 928 851 932 851 q 778 725 828 851 l 494 1 q 479 -4 493 -4 q 464 1 465 -4 l 115 753 q 65 828 90 806 q 1 851 39 851 q -3 860 -3 851 q 1 868 -3 868 l 44 867 q 113 864 81 864 q 258 867 189 864 q 315 868 281 868 q 319 860 319 868 q 315 851 319 851 q 229 797 229 851 q 242 749 229 778 l 517 151 l 744 731 q 756 783 756 761 q 650 851 756 851 q 646 860 646 851 q 650 868 646 868 l 713 867 q 804 864 763 864 q 869 867 833 864 l 928 868 z "},"W":{"ha":1285,"x_min":-3,"x_max":1293,"o":"m 1290 868 q 1293 860 1293 868 q 1290 851 1293 851 q 1140 725 1190 851 l 857 1 q 842 -4 856 -4 q 826 1 828 -4 l 646 390 l 494 1 q 479 -4 493 -4 q 464 1 465 -4 l 115 753 q 66 831 89 811 q 1 851 43 851 q -3 860 -3 851 q 1 868 -3 868 l 44 867 q 113 864 81 864 q 236 867 175 864 q 289 868 256 868 q 293 860 293 868 q 289 851 293 851 q 231 843 249 851 q 213 811 213 835 q 232 749 213 792 l 514 147 l 626 432 l 478 753 q 430 828 454 804 q 371 851 406 851 q 367 860 367 851 q 371 868 367 868 l 414 867 q 475 864 447 864 q 572 867 528 864 q 610 868 586 868 q 614 860 614 868 q 610 851 614 851 q 576 847 586 851 q 565 829 565 842 q 574 797 565 818 q 594 749 582 776 l 683 558 l 751 731 q 771 808 771 782 q 719 851 771 851 q 717 860 717 851 q 719 868 717 868 l 747 867 q 811 864 772 864 q 871 867 838 864 l 928 868 q 931 860 931 868 q 928 851 931 851 q 846 822 881 851 q 785 725 811 793 l 703 518 l 876 147 l 1104 725 q 1117 782 1117 757 q 1019 851 1117 851 q 1015 860 1015 851 q 1019 868 1015 868 l 1079 867 q 1167 864 1129 864 q 1231 867 1194 864 l 1290 868 z "},"Ẃ":{"ha":1285,"x_min":-3,"x_max":1293,"o":"m 1290 868 q 1293 860 1293 868 q 1290 851 1293 851 q 1140 725 1190 851 l 857 1 q 842 -4 856 -4 q 826 1 828 -4 l 646 390 l 494 1 q 479 -4 493 -4 q 464 1 465 -4 l 115 753 q 66 831 89 811 q 1 851 43 851 q -3 860 -3 851 q 1 868 -3 868 l 44 867 q 113 864 81 864 q 236 867 175 864 q 289 868 256 868 q 293 860 293 868 q 289 851 293 851 q 231 843 249 851 q 213 811 213 835 q 232 749 213 792 l 514 147 l 626 432 l 478 753 q 430 828 454 804 q 371 851 406 851 q 367 860 367 851 q 371 868 367 868 l 414 867 q 475 864 447 864 q 572 867 528 864 q 610 868 586 868 q 614 860 614 868 q 610 851 614 851 q 576 847 586 851 q 565 829 565 842 q 574 797 565 818 q 594 749 582 776 l 683 558 l 751 731 q 771 808 771 782 q 719 851 771 851 q 717 860 717 851 q 719 868 717 868 l 747 867 q 811 864 772 864 q 871 867 838 864 l 928 868 q 931 860 931 868 q 928 851 931 851 q 846 822 881 851 q 785 725 811 793 l 703 518 l 876 147 l 1104 725 q 1117 782 1117 757 q 1019 851 1117 851 q 1015 860 1015 851 q 1019 868 1015 868 l 1079 867 q 1167 864 1129 864 q 1231 867 1194 864 l 1290 868 m 514 942 q 507 948 508 942 q 510 957 506 954 q 653 1049 560 985 q 719 1093 697 1079 q 758 1088 726 1097 q 813 1065 789 1078 q 825 1050 838 1053 q 667 1003 739 1029 q 517 943 596 978 l 514 942 z "},"Ŵ":{"ha":1285,"x_min":-3,"x_max":1293,"o":"m 1290 868 q 1293 860 1293 868 q 1290 851 1293 851 q 1140 725 1190 851 l 857 1 q 842 -4 856 -4 q 826 1 828 -4 l 646 390 l 494 1 q 479 -4 493 -4 q 464 1 465 -4 l 115 753 q 66 831 89 811 q 1 851 43 851 q -3 860 -3 851 q 1 868 -3 868 l 44 867 q 113 864 81 864 q 236 867 175 864 q 289 868 256 868 q 293 860 293 868 q 289 851 293 851 q 231 843 249 851 q 213 811 213 835 q 232 749 213 792 l 514 147 l 626 432 l 478 753 q 430 828 454 804 q 371 851 406 851 q 367 860 367 851 q 371 868 367 868 l 414 867 q 475 864 447 864 q 572 867 528 864 q 610 868 586 868 q 614 860 614 868 q 610 851 614 851 q 576 847 586 851 q 565 829 565 842 q 574 797 565 818 q 594 749 582 776 l 683 558 l 751 731 q 771 808 771 782 q 719 851 771 851 q 717 860 717 851 q 719 868 717 868 l 747 867 q 811 864 772 864 q 871 867 838 864 l 928 868 q 931 860 931 868 q 928 851 931 851 q 846 822 881 851 q 785 725 811 793 l 703 518 l 876 147 l 1104 725 q 1117 782 1117 757 q 1019 851 1117 851 q 1015 860 1015 851 q 1019 868 1015 868 l 1079 867 q 1167 864 1129 864 q 1231 867 1194 864 l 1290 868 m 636 1110 q 653 1117 643 1117 q 668 1110 661 1117 l 810 965 q 811 963 811 965 q 808 957 811 960 q 803 956 804 954 l 653 1028 l 501 956 q 494 959 499 954 q 493 965 490 964 l 636 1110 z "},"Ẅ":{"ha":1285,"x_min":-3,"x_max":1293,"o":"m 1290 868 q 1293 860 1293 868 q 1290 851 1293 851 q 1140 725 1190 851 l 857 1 q 842 -4 856 -4 q 826 1 828 -4 l 646 390 l 494 1 q 479 -4 493 -4 q 464 1 465 -4 l 115 753 q 66 831 89 811 q 1 851 43 851 q -3 860 -3 851 q 1 868 -3 868 l 44 867 q 113 864 81 864 q 236 867 175 864 q 289 868 256 868 q 293 860 293 868 q 289 851 293 851 q 231 843 249 851 q 213 811 213 835 q 232 749 213 792 l 514 147 l 626 432 l 478 753 q 430 828 454 804 q 371 851 406 851 q 367 860 367 851 q 371 868 367 868 l 414 867 q 475 864 447 864 q 572 867 528 864 q 610 868 586 868 q 614 860 614 868 q 610 851 614 851 q 576 847 586 851 q 565 829 565 842 q 574 797 565 818 q 594 749 582 776 l 683 558 l 751 731 q 771 808 771 782 q 719 851 771 851 q 717 860 717 851 q 719 868 717 868 l 747 867 q 811 864 772 864 q 871 867 838 864 l 928 868 q 931 860 931 868 q 928 851 931 851 q 846 822 881 851 q 785 725 811 793 l 703 518 l 876 147 l 1104 725 q 1117 782 1117 757 q 1019 851 1117 851 q 1015 860 1015 851 q 1019 868 1015 868 l 1079 867 q 1167 864 1129 864 q 1231 867 1194 864 l 1290 868 m 531 989 q 483 1006 500 989 q 467 1053 467 1022 q 483 1098 467 1082 q 531 1114 500 1114 q 577 1098 561 1114 q 593 1053 593 1082 q 577 1006 593 1022 q 531 989 561 989 m 774 989 q 726 1006 743 989 q 710 1053 710 1022 q 726 1098 710 1082 q 774 1114 743 1114 q 820 1098 804 1114 q 836 1053 836 1082 q 820 1006 836 1022 q 774 989 804 989 z "},"Ẁ":{"ha":1285,"x_min":-3,"x_max":1293,"o":"m 1290 868 q 1293 860 1293 868 q 1290 851 1293 851 q 1140 725 1190 851 l 857 1 q 842 -4 856 -4 q 826 1 828 -4 l 646 390 l 494 1 q 479 -4 493 -4 q 464 1 465 -4 l 115 753 q 66 831 89 811 q 1 851 43 851 q -3 860 -3 851 q 1 868 -3 868 l 44 867 q 113 864 81 864 q 236 867 175 864 q 289 868 256 868 q 293 860 293 868 q 289 851 293 851 q 231 843 249 851 q 213 811 213 835 q 232 749 213 792 l 514 147 l 626 432 l 478 753 q 430 828 454 804 q 371 851 406 851 q 367 860 367 851 q 371 868 367 868 l 414 867 q 475 864 447 864 q 572 867 528 864 q 610 868 586 868 q 614 860 614 868 q 610 851 614 851 q 576 847 586 851 q 565 829 565 842 q 574 797 565 818 q 594 749 582 776 l 683 558 l 751 731 q 771 808 771 782 q 719 851 771 851 q 717 860 717 851 q 719 868 717 868 l 747 867 q 811 864 772 864 q 871 867 838 864 l 928 868 q 931 860 931 868 q 928 851 931 851 q 846 822 881 851 q 785 725 811 793 l 703 518 l 876 147 l 1104 725 q 1117 782 1117 757 q 1019 851 1117 851 q 1015 860 1015 851 q 1019 868 1015 868 l 1079 867 q 1167 864 1129 864 q 1231 867 1194 864 l 1290 868 m 789 943 q 481 1050 633 1013 q 492 1065 468 1053 q 548 1088 515 1078 q 586 1093 581 1097 q 657 1046 633 1063 q 794 957 749 983 q 799 951 799 956 q 796 944 799 947 q 789 943 793 942 z "},"X":{"ha":903,"x_min":14,"x_max":889,"o":"m 886 17 q 889 8 889 17 q 886 0 889 0 q 826 1 849 0 l 749 3 l 640 1 q 569 0 614 0 q 567 8 567 0 q 569 17 567 17 q 617 22 601 17 q 632 40 632 28 q 619 71 632 53 l 415 383 l 257 158 q 218 68 218 106 q 296 17 218 17 q 300 8 300 17 q 296 0 300 0 q 231 1 253 0 l 133 3 l 71 1 q 18 0 54 0 q 14 8 14 0 q 18 17 14 17 q 116 53 64 17 q 222 163 168 90 l 401 406 l 178 747 q 106 828 140 804 q 25 851 71 851 q 22 860 22 851 q 25 868 22 868 l 81 867 q 135 864 117 864 q 251 867 182 864 l 325 868 q 329 860 329 868 q 325 851 329 851 q 278 846 293 851 q 263 826 263 840 q 275 796 263 815 l 472 494 l 619 703 q 663 800 663 765 q 586 851 663 851 q 582 860 582 851 q 586 868 582 868 l 650 867 q 749 864 706 864 q 810 867 774 864 l 863 868 q 867 860 867 868 q 863 851 867 851 q 763 813 817 851 q 654 697 708 774 l 488 471 l 721 115 q 794 39 757 61 q 886 17 832 17 z "},"Y":{"ha":850,"x_min":-3,"x_max":860,"o":"m 857 868 q 860 860 860 868 q 857 851 860 851 q 755 809 810 851 q 657 697 700 767 l 485 426 l 485 113 q 492 50 485 69 q 523 24 500 31 q 596 17 546 17 q 600 8 600 17 q 596 0 600 0 q 528 1 553 0 l 428 3 l 331 1 q 260 0 306 0 q 256 8 256 0 q 260 17 256 17 q 333 24 310 17 q 365 51 357 31 q 374 113 374 71 l 374 403 l 153 732 q 74 825 108 799 q 1 851 40 851 q -3 860 -3 851 q 1 868 -3 868 q 50 865 17 868 l 96 864 q 222 867 142 864 l 303 868 q 306 860 306 868 q 303 851 306 851 q 238 818 238 851 q 253 779 238 803 l 467 460 l 622 706 q 656 794 656 760 q 636 837 656 822 q 579 851 617 851 q 575 860 575 851 q 579 868 575 868 l 647 867 q 749 864 703 864 q 806 867 772 864 l 857 868 z "},"Ý":{"ha":850,"x_min":-3,"x_max":860,"o":"m 857 868 q 860 860 860 868 q 857 851 860 851 q 755 809 810 851 q 657 697 700 767 l 485 426 l 485 113 q 492 50 485 69 q 523 24 500 31 q 596 17 546 17 q 600 8 600 17 q 596 0 600 0 q 528 1 553 0 l 428 3 l 331 1 q 260 0 306 0 q 256 8 256 0 q 260 17 256 17 q 333 24 310 17 q 365 51 357 31 q 374 113 374 71 l 374 403 l 153 732 q 74 825 108 799 q 1 851 40 851 q -3 860 -3 851 q 1 868 -3 868 q 50 865 17 868 l 96 864 q 222 867 142 864 l 303 868 q 306 860 306 868 q 303 851 306 851 q 238 818 238 851 q 253 779 238 803 l 467 460 l 622 706 q 656 794 656 760 q 636 837 656 822 q 579 851 617 851 q 575 860 575 851 q 579 868 575 868 l 647 867 q 749 864 703 864 q 806 867 772 864 l 857 868 m 307 942 q 300 948 301 942 q 303 957 299 954 q 446 1049 353 985 q 513 1093 490 1079 q 551 1088 519 1097 q 606 1065 582 1078 q 618 1050 631 1053 q 460 1003 532 1029 q 310 943 389 978 l 307 942 z "},"Ŷ":{"ha":850,"x_min":-3,"x_max":860,"o":"m 857 868 q 860 860 860 868 q 857 851 860 851 q 755 809 810 851 q 657 697 700 767 l 485 426 l 485 113 q 492 50 485 69 q 523 24 500 31 q 596 17 546 17 q 600 8 600 17 q 596 0 600 0 q 528 1 553 0 l 428 3 l 331 1 q 260 0 306 0 q 256 8 256 0 q 260 17 256 17 q 333 24 310 17 q 365 51 357 31 q 374 113 374 71 l 374 403 l 153 732 q 74 825 108 799 q 1 851 40 851 q -3 860 -3 851 q 1 868 -3 868 q 50 865 17 868 l 96 864 q 222 867 142 864 l 303 868 q 306 860 306 868 q 303 851 306 851 q 238 818 238 851 q 253 779 238 803 l 467 460 l 622 706 q 656 794 656 760 q 636 837 656 822 q 579 851 617 851 q 575 860 575 851 q 579 868 575 868 l 647 867 q 749 864 703 864 q 806 867 772 864 l 857 868 m 429 1110 q 446 1117 436 1117 q 461 1110 454 1117 l 603 965 q 604 963 604 965 q 601 957 604 960 q 596 956 597 954 l 446 1028 l 294 956 q 288 959 292 954 q 286 965 283 964 l 429 1110 z "},"Ÿ":{"ha":850,"x_min":-3,"x_max":860,"o":"m 857 868 q 860 860 860 868 q 857 851 860 851 q 755 809 810 851 q 657 697 700 767 l 485 426 l 485 113 q 492 50 485 69 q 523 24 500 31 q 596 17 546 17 q 600 8 600 17 q 596 0 600 0 q 528 1 553 0 l 428 3 l 331 1 q 260 0 306 0 q 256 8 256 0 q 260 17 256 17 q 333 24 310 17 q 365 51 357 31 q 374 113 374 71 l 374 403 l 153 732 q 74 825 108 799 q 1 851 40 851 q -3 860 -3 851 q 1 868 -3 868 q 50 865 17 868 l 96 864 q 222 867 142 864 l 303 868 q 306 860 306 868 q 303 851 306 851 q 238 818 238 851 q 253 779 238 803 l 467 460 l 622 706 q 656 794 656 760 q 636 837 656 822 q 579 851 617 851 q 575 860 575 851 q 579 868 575 868 l 647 867 q 749 864 703 864 q 806 867 772 864 l 857 868 m 324 989 q 276 1006 293 989 q 260 1053 260 1022 q 276 1098 260 1082 q 324 1114 293 1114 q 370 1098 354 1114 q 386 1053 386 1082 q 370 1006 386 1022 q 324 989 354 989 m 567 989 q 519 1006 536 989 q 503 1053 503 1022 q 519 1098 503 1082 q 567 1114 536 1114 q 613 1098 597 1114 q 629 1053 629 1082 q 613 1006 629 1022 q 567 989 597 989 z "},"Ẏ":{"ha":850,"x_min":-3,"x_max":860,"o":"m 857 868 q 860 860 860 868 q 857 851 860 851 q 755 809 810 851 q 657 697 700 767 l 485 426 l 485 113 q 492 50 485 69 q 523 24 500 31 q 596 17 546 17 q 600 8 600 17 q 596 0 600 0 q 528 1 553 0 l 428 3 l 331 1 q 260 0 306 0 q 256 8 256 0 q 260 17 256 17 q 333 24 310 17 q 365 51 357 31 q 374 113 374 71 l 374 403 l 153 732 q 74 825 108 799 q 1 851 40 851 q -3 860 -3 851 q 1 868 -3 868 q 50 865 17 868 l 96 864 q 222 867 142 864 l 303 868 q 306 860 306 868 q 303 851 306 851 q 238 818 238 851 q 253 779 238 803 l 467 460 l 622 706 q 656 794 656 760 q 636 837 656 822 q 579 851 617 851 q 575 860 575 851 q 579 868 575 868 l 647 867 q 749 864 703 864 q 806 867 772 864 l 857 868 m 444 990 q 394 1008 413 990 q 375 1058 375 1026 q 394 1106 375 1089 q 444 1124 413 1124 q 492 1106 475 1124 q 510 1058 510 1089 q 492 1008 510 1026 q 444 990 475 990 z "},"Ỵ":{"ha":850,"x_min":-3,"x_max":860,"o":"m 857 868 q 860 860 860 868 q 857 851 860 851 q 755 809 810 851 q 657 697 700 767 l 485 426 l 485 113 q 492 50 485 69 q 523 24 500 31 q 596 17 546 17 q 600 8 600 17 q 596 0 600 0 q 528 1 553 0 l 428 3 l 331 1 q 260 0 306 0 q 256 8 256 0 q 260 17 256 17 q 333 24 310 17 q 365 51 357 31 q 374 113 374 71 l 374 403 l 153 732 q 74 825 108 799 q 1 851 40 851 q -3 860 -3 851 q 1 868 -3 868 q 50 865 17 868 l 96 864 q 222 867 142 864 l 303 868 q 306 860 306 868 q 303 851 306 851 q 238 818 238 851 q 253 779 238 803 l 467 460 l 622 706 q 656 794 656 760 q 636 837 656 822 q 579 851 617 851 q 575 860 575 851 q 579 868 575 868 l 647 867 q 749 864 703 864 q 806 867 772 864 l 857 868 m 428 -272 q 377 -254 396 -272 q 358 -204 358 -236 q 377 -156 358 -174 q 428 -139 396 -139 q 476 -156 458 -139 q 493 -204 493 -174 q 476 -254 493 -236 q 428 -272 458 -272 z "},"Ỳ":{"ha":850,"x_min":-3,"x_max":860,"o":"m 857 868 q 860 860 860 868 q 857 851 860 851 q 755 809 810 851 q 657 697 700 767 l 485 426 l 485 113 q 492 50 485 69 q 523 24 500 31 q 596 17 546 17 q 600 8 600 17 q 596 0 600 0 q 528 1 553 0 l 428 3 l 331 1 q 260 0 306 0 q 256 8 256 0 q 260 17 256 17 q 333 24 310 17 q 365 51 357 31 q 374 113 374 71 l 374 403 l 153 732 q 74 825 108 799 q 1 851 40 851 q -3 860 -3 851 q 1 868 -3 868 q 50 865 17 868 l 96 864 q 222 867 142 864 l 303 868 q 306 860 306 868 q 303 851 306 851 q 238 818 238 851 q 253 779 238 803 l 467 460 l 622 706 q 656 794 656 760 q 636 837 656 822 q 579 851 617 851 q 575 860 575 851 q 579 868 575 868 l 647 867 q 749 864 703 864 q 806 867 772 864 l 857 868 m 582 943 q 274 1050 426 1013 q 285 1065 261 1053 q 341 1088 308 1078 q 379 1093 374 1097 q 450 1046 426 1063 q 588 957 542 983 q 592 951 592 956 q 589 944 592 947 q 582 943 586 942 z "},"Ỷ":{"ha":850,"x_min":-3,"x_max":860,"o":"m 857 868 q 860 860 860 868 q 857 851 860 851 q 755 809 810 851 q 657 697 700 767 l 485 426 l 485 113 q 492 50 485 69 q 523 24 500 31 q 596 17 546 17 q 600 8 600 17 q 596 0 600 0 q 528 1 553 0 l 428 3 l 331 1 q 260 0 306 0 q 256 8 256 0 q 260 17 256 17 q 333 24 310 17 q 365 51 357 31 q 374 113 374 71 l 374 403 l 153 732 q 74 825 108 799 q 1 851 40 851 q -3 860 -3 851 q 1 868 -3 868 q 50 865 17 868 l 96 864 q 222 867 142 864 l 303 868 q 306 860 306 868 q 303 851 306 851 q 238 818 238 851 q 253 779 238 803 l 467 460 l 622 706 q 656 794 656 760 q 636 837 656 822 q 579 851 617 851 q 575 860 575 851 q 579 868 575 868 l 647 867 q 749 864 703 864 q 806 867 772 864 l 857 868 m 447 904 q 441 901 449 901 q 432 904 433 901 q 428 935 428 921 q 435 974 428 956 q 454 1017 442 993 q 473 1054 467 1039 q 479 1088 479 1069 q 465 1128 479 1114 q 426 1142 450 1142 q 383 1131 411 1142 l 382 1131 q 374 1135 378 1131 q 374 1142 369 1139 q 472 1174 418 1174 q 539 1153 514 1174 q 564 1101 564 1133 q 549 1053 564 1075 q 503 1000 533 1032 q 458 949 472 971 q 447 904 443 928 z "},"Ȳ":{"ha":850,"x_min":-3,"x_max":860,"o":"m 857 868 q 860 860 860 868 q 857 851 860 851 q 755 809 810 851 q 657 697 700 767 l 485 426 l 485 113 q 492 50 485 69 q 523 24 500 31 q 596 17 546 17 q 600 8 600 17 q 596 0 600 0 q 528 1 553 0 l 428 3 l 331 1 q 260 0 306 0 q 256 8 256 0 q 260 17 256 17 q 333 24 310 17 q 365 51 357 31 q 374 113 374 71 l 374 403 l 153 732 q 74 825 108 799 q 1 851 40 851 q -3 860 -3 851 q 1 868 -3 868 q 50 865 17 868 l 96 864 q 222 867 142 864 l 303 868 q 306 860 306 868 q 303 851 306 851 q 238 818 238 851 q 253 779 238 803 l 467 460 l 622 706 q 656 794 656 760 q 636 837 656 822 q 579 851 617 851 q 575 860 575 851 q 579 868 575 868 l 647 867 q 749 864 703 864 q 806 867 772 864 l 857 868 m 269 999 q 260 1021 260 999 q 269 1042 260 1042 l 618 1042 q 626 1035 624 1042 q 629 1021 629 1029 q 626 1006 629 1013 q 618 999 624 999 l 269 999 z "},"Ỹ":{"ha":850,"x_min":-3,"x_max":860,"o":"m 857 868 q 860 860 860 868 q 857 851 860 851 q 755 809 810 851 q 657 697 700 767 l 485 426 l 485 113 q 492 50 485 69 q 523 24 500 31 q 596 17 546 17 q 600 8 600 17 q 596 0 600 0 q 528 1 553 0 l 428 3 l 331 1 q 260 0 306 0 q 256 8 256 0 q 260 17 256 17 q 333 24 310 17 q 365 51 357 31 q 374 113 374 71 l 374 403 l 153 732 q 74 825 108 799 q 1 851 40 851 q -3 860 -3 851 q 1 868 -3 868 q 50 865 17 868 l 96 864 q 222 867 142 864 l 303 868 q 306 860 306 868 q 303 851 306 851 q 238 818 238 851 q 253 779 238 803 l 467 460 l 622 706 q 656 794 656 760 q 636 837 656 822 q 579 851 617 851 q 575 860 575 851 q 579 868 575 868 l 647 867 q 749 864 703 864 q 806 867 772 864 l 857 868 m 554 1039 q 592 1048 578 1039 q 624 1076 607 1057 l 625 1076 q 633 1073 629 1076 q 633 1067 636 1069 q 574 992 597 1011 q 521 972 550 972 q 472 979 499 972 q 438 988 446 986 q 343 1006 383 1006 q 306 998 317 1006 q 274 968 294 990 l 272 968 q 265 972 268 968 q 263 978 261 975 q 382 1074 325 1074 q 450 1058 404 1074 q 490 1048 457 1057 q 554 1039 522 1039 z "},"Z":{"ha":831,"x_min":74,"x_max":783,"o":"m 608 833 q 612 842 613 840 q 601 844 611 844 q 294 835 383 844 q 165 794 206 826 q 92 682 124 763 q 86 679 89 679 q 78 681 82 679 q 75 685 74 683 l 131 910 q 136 911 131 911 q 147 907 150 911 q 146 896 146 903 q 162 874 146 879 q 226 868 178 868 l 733 868 q 744 861 740 868 q 743 850 747 854 l 221 38 q 217 28 215 31 q 226 26 218 26 l 557 26 q 699 70 644 26 q 768 196 753 114 q 776 199 769 199 q 783 196 783 199 l 764 11 q 760 2 764 7 q 751 -3 757 -3 q 86 0 544 0 q 78 6 81 0 q 79 18 75 13 l 608 833 z "},"Ź":{"ha":831,"x_min":75,"x_max":783,"o":"m 608 833 q 612 842 613 840 q 601 844 611 844 q 294 835 383 844 q 165 794 206 826 q 92 682 124 763 q 86 679 89 679 q 78 681 82 679 q 75 685 74 683 l 131 910 q 136 911 131 911 q 147 907 150 911 q 146 896 146 903 q 162 874 146 879 q 226 868 178 868 l 733 868 q 744 861 740 868 q 743 850 747 854 l 221 38 q 217 28 215 31 q 226 26 218 26 l 557 26 q 699 70 644 26 q 768 196 753 114 q 776 199 769 199 q 783 196 783 199 l 764 11 q 760 2 764 7 q 751 -3 757 -3 q 86 0 544 0 q 78 6 81 0 q 79 18 75 13 l 608 833 m 300 942 q 293 948 294 942 q 296 957 292 954 q 439 1049 346 985 q 506 1093 483 1079 q 544 1088 513 1097 q 599 1065 575 1078 q 611 1050 624 1053 q 453 1003 525 1029 q 303 943 382 978 l 300 942 z "},"Ž":{"ha":831,"x_min":75,"x_max":783,"o":"m 608 833 q 612 842 613 840 q 601 844 611 844 q 294 835 383 844 q 165 794 206 826 q 92 682 124 763 q 86 679 89 679 q 78 681 82 679 q 75 685 74 683 l 131 910 q 136 911 131 911 q 147 907 150 911 q 146 896 146 903 q 162 874 146 879 q 226 868 178 868 l 733 868 q 744 861 740 868 q 743 850 747 854 l 221 38 q 217 28 215 31 q 226 26 218 26 l 557 26 q 699 70 644 26 q 768 196 753 114 q 776 199 769 199 q 783 196 783 199 l 764 11 q 760 2 764 7 q 751 -3 757 -3 q 86 0 544 0 q 78 6 81 0 q 79 18 75 13 l 608 833 m 278 1097 q 276 1098 276 1097 q 276 1099 276 1099 q 280 1105 276 1101 q 286 1107 283 1108 l 438 1035 l 588 1107 l 589 1107 q 595 1103 593 1107 q 594 1097 597 1100 l 453 954 q 438 949 447 949 q 421 954 426 949 l 278 1097 z "},"Ż":{"ha":831,"x_min":75,"x_max":783,"o":"m 608 833 q 612 842 613 840 q 601 844 611 844 q 294 835 383 844 q 165 794 206 826 q 92 682 124 763 q 86 679 89 679 q 78 681 82 679 q 75 685 74 683 l 131 910 q 136 911 131 911 q 147 907 150 911 q 146 896 146 903 q 162 874 146 879 q 226 868 178 868 l 733 868 q 744 861 740 868 q 743 850 747 854 l 221 38 q 217 28 215 31 q 226 26 218 26 l 557 26 q 699 70 644 26 q 768 196 753 114 q 776 199 769 199 q 783 196 783 199 l 764 11 q 760 2 764 7 q 751 -3 757 -3 q 86 0 544 0 q 78 6 81 0 q 79 18 75 13 l 608 833 m 438 990 q 387 1008 406 990 q 368 1058 368 1026 q 387 1106 368 1089 q 438 1124 406 1124 q 485 1106 468 1124 q 503 1058 503 1089 q 485 1008 503 1026 q 438 990 468 990 z "},"Ẓ":{"ha":831,"x_min":75,"x_max":783,"o":"m 608 833 q 612 842 613 840 q 601 844 611 844 q 294 835 383 844 q 165 794 206 826 q 92 682 124 763 q 86 679 89 679 q 78 681 82 679 q 75 685 74 683 l 131 910 q 136 911 131 911 q 147 907 150 911 q 146 896 146 903 q 162 874 146 879 q 226 868 178 868 l 733 868 q 744 861 740 868 q 743 850 747 854 l 221 38 q 217 28 215 31 q 226 26 218 26 l 557 26 q 699 70 644 26 q 768 196 753 114 q 776 199 769 199 q 783 196 783 199 l 764 11 q 760 2 764 7 q 751 -3 757 -3 q 86 0 544 0 q 78 6 81 0 q 79 18 75 13 l 608 833 m 418 -272 q 367 -254 386 -272 q 349 -204 349 -236 q 367 -156 349 -174 q 418 -139 386 -139 q 466 -156 449 -139 q 483 -204 483 -174 q 466 -254 483 -236 q 418 -272 449 -272 z "},"a":{"ha":583,"x_min":68,"x_max":588,"o":"m 578 75 q 585 69 583 75 q 582 60 588 63 l 439 -8 q 426 -11 433 -11 q 392 12 408 -11 q 371 75 376 35 l 292 32 q 160 -10 213 -10 q 92 13 117 -10 q 68 74 68 36 q 98 136 68 114 q 208 186 128 158 l 368 242 l 368 354 q 347 481 368 443 q 285 519 325 519 q 217 488 242 519 q 188 407 193 457 q 126 346 182 346 q 88 358 101 346 q 74 393 74 371 q 117 463 74 426 q 222 524 161 500 q 332 549 283 549 q 426 510 390 549 q 463 396 463 472 l 463 150 q 476 82 463 104 q 517 60 489 60 q 576 75 542 60 l 578 75 m 368 96 l 368 110 l 368 222 l 246 176 q 198 148 213 164 q 183 108 183 132 q 200 63 183 79 q 243 46 217 46 q 304 63 274 46 l 368 96 z "},"á":{"ha":583,"x_min":68,"x_max":586,"o":"m 578 75 q 585 69 583 75 q 582 60 588 63 l 439 -8 q 426 -11 433 -11 q 392 12 408 -11 q 371 75 376 35 l 292 32 q 160 -10 213 -10 q 92 13 117 -10 q 68 74 68 36 q 98 136 68 114 q 208 186 128 158 l 368 242 l 368 354 q 347 481 368 443 q 285 519 325 519 q 217 488 242 519 q 188 407 193 457 q 126 346 182 346 q 88 358 101 346 q 74 393 74 371 q 117 463 74 426 q 222 524 161 500 q 332 549 283 549 q 426 510 390 549 q 463 396 463 472 l 463 150 q 476 82 463 104 q 517 60 489 60 q 576 75 542 60 l 578 75 m 368 96 l 368 110 l 368 222 l 246 176 q 198 148 213 164 q 183 108 183 132 q 200 63 183 79 q 243 46 217 46 q 304 63 274 46 l 368 96 m 290 658 q 285 656 290 656 q 277 658 281 656 q 275 661 274 660 l 339 994 q 373 1008 340 1000 q 426 1015 406 1015 q 440 1010 442 1015 l 290 658 z "},"ă":{"ha":583,"x_min":68,"x_max":586,"o":"m 578 75 q 585 69 583 75 q 582 60 588 63 l 439 -8 q 426 -11 433 -11 q 392 12 408 -11 q 371 75 376 35 l 292 32 q 160 -10 213 -10 q 92 13 117 -10 q 68 74 68 36 q 98 136 68 114 q 208 186 128 158 l 368 242 l 368 354 q 347 481 368 443 q 285 519 325 519 q 217 488 242 519 q 188 407 193 457 q 126 346 182 346 q 88 358 101 346 q 74 393 74 371 q 117 463 74 426 q 222 524 161 500 q 332 549 283 549 q 426 510 390 549 q 463 396 463 472 l 463 150 q 476 82 463 104 q 517 60 489 60 q 576 75 542 60 l 578 75 m 368 96 l 368 110 l 368 222 l 246 176 q 198 148 213 164 q 183 108 183 132 q 200 63 183 79 q 243 46 217 46 q 304 63 274 46 l 368 96 m 150 867 q 158 872 150 871 q 165 869 165 872 q 202 775 165 814 q 293 736 239 736 q 383 776 346 736 q 419 869 419 815 q 425 872 419 872 q 431 870 428 872 q 435 867 435 868 q 399 707 435 761 q 293 653 363 653 q 187 707 224 653 q 150 867 150 761 z "}}}
